<svg width="367" height="396" viewBox="0 0 367 396" fill="none" xmlns="http://www.w3.org/2000/svg">
<path d="M280.124 110.642C281.782 109.562 283.567 108.726 285.431 108.156L286.524 102.485L295.406 102.318L296.683 107.942C298.568 108.441 300.382 109.211 302.078 110.231L306.562 107.063L312.956 113.723L310.174 118.673C311.176 120.462 311.951 122.388 312.478 124.399L317.734 125.58L317.888 135.163L312.677 136.541C312.212 138.572 311.499 140.527 310.555 142.354L313.491 147.201L307.318 154.092L302.731 151.09C301.073 152.173 299.288 153.012 297.424 153.585L296.33 159.255L287.449 159.422L286.172 153.798C284.29 153.297 282.478 152.527 280.784 151.51L276.292 154.678L269.899 148.017L272.681 143.067C271.68 141.277 270.905 139.352 270.376 137.341L265.121 136.153L264.974 126.577L270.185 125.191C270.653 123.162 271.366 121.207 272.307 119.378L269.371 114.539L275.544 107.641L280.131 110.642H280.124ZM284.858 123.409C283.544 124.873 282.661 126.724 282.323 128.729C281.984 130.734 282.205 132.802 282.956 134.672C283.708 136.541 284.957 138.128 286.545 139.231C288.133 140.335 289.988 140.905 291.877 140.869C293.765 140.834 295.601 140.194 297.153 139.032C298.704 137.87 299.901 136.237 300.591 134.34C301.282 132.443 301.436 130.368 301.032 128.377C300.629 126.386 299.688 124.569 298.327 123.156C296.508 121.267 294.069 120.233 291.544 120.28C289.019 120.328 286.615 121.453 284.858 123.409Z" fill="#E0E0E0"/>
<path d="M284.858 123.41C285.36 122.747 285.96 122.18 286.634 121.73C288.471 120.441 290.666 119.881 292.844 120.146C294.349 120.307 295.798 120.85 297.072 121.73C298.535 122.761 299.714 124.197 300.485 125.888C300.913 126.795 301.208 127.767 301.358 128.771C301.53 129.818 301.547 130.887 301.41 131.939C301.135 134.174 300.202 136.254 298.748 137.873C297.295 139.491 295.397 140.563 293.336 140.929C292.366 141.113 291.375 141.132 290.4 140.984C289.476 140.868 288.575 140.599 287.728 140.184C286.136 139.411 284.764 138.191 283.757 136.652C282.697 135.013 282.095 133.08 282.025 131.083C281.955 129.087 282.418 127.11 283.361 125.39C283.748 124.651 284.244 123.985 284.829 123.417C284.357 124.089 283.919 124.787 283.515 125.508C282.497 127.515 282.128 129.831 282.465 132.09C282.712 133.746 283.339 135.309 284.289 136.637C285.239 137.965 286.482 139.016 287.904 139.693C289.583 140.487 291.441 140.732 293.248 140.398C295.188 140.039 296.973 139.022 298.34 137.493C299.708 135.965 300.588 134.005 300.852 131.9C301.092 129.94 300.799 127.948 300.008 126.166C299.33 124.655 298.313 123.351 297.049 122.373C295.785 121.395 294.314 120.774 292.771 120.566C290.667 120.279 288.535 120.761 286.715 121.936C285.46 122.76 284.902 123.465 284.858 123.41Z" fill="#E0E0E0"/>
<path d="M280.124 110.642C280.019 110.596 279.919 110.541 279.823 110.476L278.92 109.93L275.485 107.712H275.595L269.466 114.642V114.46L272.402 119.283L272.453 119.37L272.409 119.465C271.478 121.281 270.777 123.222 270.325 125.239V125.358H270.222L265.011 126.752L265.157 126.546C265.216 129.566 265.275 132.76 265.334 136.129L265.165 135.907L270.42 137.071H270.56L270.596 137.214C271.12 139.204 271.891 141.109 272.887 142.877L272.96 143.011L272.887 143.146L270.112 148.152L270.075 147.827L276.468 154.48H276.153L280.638 151.312L280.77 151.224L280.909 151.304C282.582 152.309 284.371 153.068 286.231 153.561H286.385L286.429 153.727C286.825 155.493 287.266 157.41 287.706 159.35L287.442 159.137L296.323 158.962L296.059 159.192L297.153 153.521V153.347L297.314 153.3C299.153 152.739 300.913 151.913 302.547 150.844L302.687 150.749L302.834 150.844L307.421 153.846L307.084 153.894L313.249 146.995V147.36L310.313 142.512L310.218 142.37L310.298 142.219C311.232 140.415 311.938 138.484 312.398 136.477L312.434 136.303L312.589 136.264L317.807 134.893L317.609 135.171C317.555 131.902 317.506 128.708 317.462 125.587L317.661 125.849L312.405 124.661H312.258L312.222 124.502C311.698 122.512 310.933 120.605 309.946 118.832L309.873 118.705L309.946 118.57L312.735 113.62V113.929L306.357 107.261H306.621L302.122 110.429L302.026 110.5L301.924 110.436C300.246 109.426 298.451 108.659 296.587 108.156H296.477V108.045C296.015 105.993 295.604 104.156 295.215 102.414L295.376 102.548L286.495 102.675L286.612 102.564C286.157 104.829 285.79 106.682 285.482 108.227V108.29H285.431C284.029 108.715 282.668 109.279 281.364 109.977L280.41 110.516C280.309 110.583 280.204 110.641 280.094 110.69L280.388 110.476C280.594 110.341 280.902 110.136 281.328 109.89C282.618 109.147 283.975 108.55 285.379 108.108L285.32 108.179C285.607 106.635 285.952 104.774 286.377 102.501V102.398H286.473L295.354 102.192H295.479L295.516 102.326C295.912 104.069 296.338 105.906 296.808 107.95L296.675 107.807C298.576 108.308 300.407 109.078 302.122 110.096H301.916L306.394 106.928L306.533 106.833L306.658 106.96L313.058 113.597L313.19 113.731L313.095 113.905L310.372 118.8V118.539C311.377 120.355 312.155 122.307 312.684 124.344L312.5 124.162L317.756 125.334L317.954 125.374V125.595C318.013 128.705 318.069 131.9 318.123 135.179V135.4L317.925 135.456L312.706 136.834L312.904 136.628C312.434 138.683 311.713 140.662 310.761 142.512V142.212L313.697 147.059L313.814 147.249L313.66 147.415L307.495 154.313L307.348 154.488L307.157 154.361L302.569 151.359H302.848C301.169 152.451 299.362 153.298 297.476 153.878L297.666 153.648L296.573 159.319L296.529 159.548H296.308L287.427 159.715H287.214L287.163 159.493C286.722 157.553 286.289 155.628 285.893 153.862L286.084 154.076C284.179 153.565 282.345 152.785 280.63 151.755H280.902L276.41 154.923L276.241 155.042L276.094 154.891C273.892 152.571 271.69 150.314 269.708 148.223L269.569 148.08L269.672 147.898L272.461 142.956V143.217C271.451 141.405 270.668 139.455 270.134 137.42L270.31 137.594L265.055 136.398H264.886V136.216C264.837 132.853 264.79 129.658 264.746 126.633V126.467L264.893 126.427L270.112 125.065L269.98 125.207C270.457 123.162 271.183 121.194 272.138 119.354V119.529L269.202 114.674L269.143 114.579L269.224 114.492L275.426 107.633L275.478 107.577L275.536 107.617L278.913 109.89L279.786 110.484L280.124 110.642Z" fill="#E0E0E0"/>
<path d="M51.7617 167.619C53.4201 166.539 55.2048 165.702 57.0685 165.132L58.1622 159.461L67.0436 159.287L68.3207 164.918C70.2038 165.416 72.016 166.186 73.7083 167.207L78.2004 164.039L84.5935 170.692L81.8043 175.642C82.8102 177.43 83.588 179.356 84.1164 181.368L89.3719 182.548L89.526 192.131L84.3146 193.509C83.8498 195.54 83.1364 197.495 82.1933 199.323L85.1293 204.17L78.9564 211.06L74.3689 208.058C72.7108 209.141 70.926 209.98 69.0621 210.553L67.9758 216.216L59.0944 216.382L57.8172 210.759C55.9333 210.256 54.1193 209.486 52.4223 208.47L47.9376 211.638L41.5444 204.978L44.3263 200.028C43.3237 198.236 42.5486 196.308 42.0215 194.294L36.7661 193.113L36.6119 183.53L41.838 182.16C42.3054 180.13 43.0186 178.176 43.9593 176.347L41.0233 171.508L47.1962 164.609L51.7837 167.611L51.7617 167.619ZM56.518 180.386C55.2037 181.849 54.3214 183.701 53.9829 185.706C53.6443 187.711 53.8648 189.779 54.6164 191.648C55.3679 193.518 56.6168 195.105 58.2047 196.208C59.7927 197.311 61.6483 197.881 63.5367 197.846C65.425 197.81 67.2612 197.171 68.8125 196.008C70.3639 194.846 71.5606 193.213 72.2513 191.317C72.942 189.42 73.0955 187.345 72.6924 185.354C72.2893 183.363 71.3478 181.546 69.9869 180.133C68.1676 178.243 65.7285 177.209 63.2039 177.257C60.6794 177.304 58.2752 178.429 56.518 180.386Z" fill="#F5F5F5"/>
<path d="M56.5179 180.386C57.0178 179.725 57.6155 179.158 58.2869 178.707C60.1268 177.418 62.3241 176.859 64.5038 177.123C66.0092 177.284 67.458 177.826 68.7317 178.707C70.1948 179.737 71.3738 181.173 72.1448 182.865C73.008 184.736 73.3302 186.844 73.0696 188.916C72.7951 191.15 71.8621 193.23 70.4083 194.849C68.9544 196.468 67.0569 197.539 64.9956 197.905C64.0257 198.091 63.0343 198.107 62.0596 197.953C61.1263 197.843 60.2148 197.576 59.3585 197.161C57.764 196.387 56.3923 195.164 55.3876 193.62C54.3269 191.984 53.7254 190.052 53.6551 188.056C53.5849 186.06 54.0487 184.085 54.9912 182.366C55.3783 181.627 55.8741 180.961 56.4592 180.394C55.9888 181.064 55.5503 181.759 55.1453 182.477C54.1275 184.484 53.7582 186.8 54.0957 189.058C54.341 190.607 54.9192 192.072 55.7839 193.335C56.7574 194.786 58.0691 195.934 59.586 196.662C61.2649 197.456 63.1228 197.701 64.9296 197.366C66.8677 197.005 68.6485 195.986 70.0134 194.458C71.3782 192.93 72.256 190.972 72.5191 188.868C72.6511 187.874 72.6363 186.864 72.4751 185.875C72.3415 184.922 72.0716 183.997 71.675 183.134C70.9482 181.53 69.8386 180.163 68.4601 179.174C67.2532 178.313 65.8752 177.77 64.4378 177.59C62.3341 177.303 60.2018 177.785 58.3823 178.96C57.0978 179.784 56.5179 180.441 56.5179 180.386Z" fill="#F5F5F5"/>
<path d="M51.7617 167.619C51.6572 167.573 51.5565 167.517 51.4607 167.453L50.5873 166.906L47.1228 164.736H47.2329L41.104 171.619V171.428L44.04 176.26L44.0914 176.347L44.0473 176.442C43.1163 178.257 42.4152 180.199 41.9628 182.215V182.326H41.86L36.656 183.744L36.8028 183.538C36.8615 186.558 36.9202 189.753 36.9789 193.121L36.8101 192.9L42.0655 194.04H42.1977L42.2417 194.183C42.7657 196.173 43.536 198.077 44.5318 199.845L44.6052 199.98L44.5318 200.115C43.673 201.651 42.7188 203.338 41.7573 205.065L41.7132 204.74L48.1137 211.393H47.7981L52.2828 208.225L52.4149 208.13L52.5544 208.217C54.2284 209.219 56.0177 209.978 57.8759 210.474L58.03 210.514V210.68C58.4337 212.438 58.8741 214.363 59.3145 216.303L59.0503 216.089L67.9317 215.915L67.6675 216.145L68.7611 210.474V210.3L68.9153 210.252C70.756 209.69 72.5186 208.864 74.156 207.797L74.2955 207.71L74.4349 207.797L79.0298 210.807L78.6921 210.846L84.8577 203.956V204.32L81.9217 199.473L81.8337 199.331L81.9144 199.172C82.8476 197.37 83.5535 195.442 84.0136 193.438V193.264L84.1678 193.224L89.3865 191.854L89.1883 192.131C89.1345 188.863 89.0856 185.669 89.0415 182.548L89.2397 182.809L83.9843 181.621H83.8375V181.463C83.3142 179.473 82.5491 177.566 81.5621 175.792L81.4887 175.658L81.5621 175.531L84.3513 170.581V170.89L77.9728 164.213H78.2371L73.7376 167.381L73.6422 167.453L73.5321 167.389C71.8767 166.381 70.1045 165.614 68.262 165.108H68.1519V164.997C67.6895 162.946 67.2784 161.109 66.8894 159.366L67.0509 159.501L58.1695 159.62L58.2869 159.517C57.8319 161.782 57.4649 163.635 57.1566 165.18V165.235H57.1125C55.7102 165.656 54.3485 166.221 53.0462 166.922L52.092 167.461C51.9913 167.528 51.8857 167.586 51.7764 167.635L52.07 167.421C52.2755 167.286 52.5838 167.08 53.0095 166.835C54.2997 166.092 55.6575 165.495 57.0612 165.053L57.0024 165.124C57.2887 163.58 57.6337 161.719 58.0594 159.445V159.343H58.1548L67.0362 159.129H67.161V159.263C67.5574 161.006 67.9831 162.843 68.4528 164.887L68.3207 164.744C70.2206 165.241 72.0499 166.01 73.7597 167.033H73.5615L78.0389 163.865L78.1783 163.77L78.3031 163.889C80.3216 165.995 82.4502 168.197 84.7036 170.533L84.8357 170.668L84.7403 170.834C83.8375 172.418 82.92 174.097 81.9658 175.792V175.531C82.9803 177.341 83.7676 179.287 84.3072 181.321L84.1237 181.13L89.3792 182.311L89.5774 182.35V182.572C89.6361 185.682 89.6924 188.874 89.7462 192.147V192.377L89.548 192.424L84.41 193.787L84.6082 193.581C84.1381 195.636 83.4174 197.615 82.4649 199.465V199.164L85.4009 204.011L85.5183 204.201L85.3642 204.368L79.1986 211.266L79.0445 211.432L78.861 211.314L74.2368 208.296H74.5157C72.8374 209.391 71.0302 210.239 69.1428 210.815L69.3336 210.593L68.262 216.279L68.218 216.509H67.9978L59.1164 216.667H58.9035L58.8521 216.446C58.4117 214.497 57.9787 212.581 57.5823 210.815L57.7731 211.028C55.8694 210.514 54.036 209.734 52.3195 208.708H52.5911L48.099 211.876L47.9302 211.995L47.7834 211.844L41.3976 205.176L41.2581 205.033L41.3609 204.851L44.1501 199.901V200.17C43.1467 198.358 42.3693 196.412 41.838 194.381L42.0142 194.547L36.7 193.359H36.5312V193.177C36.4774 189.813 36.4309 186.619 36.3917 183.594V183.427L36.5385 183.388L41.7573 182.025L41.6251 182.16C42.1026 180.118 42.8282 178.152 43.7831 176.315V176.489L40.8471 171.634L40.7884 171.531L40.8691 171.452L47.0714 164.593L47.1228 164.538L47.1815 164.578L50.5579 166.851L51.4314 167.445L51.7617 167.619Z" fill="#F5F5F5"/>
<path d="M296.646 58.2833C297.849 57.501 299.142 56.8938 300.492 56.4776L301.285 52.3671L307.722 52.2483L308.647 56.3271C310.011 56.6881 311.325 57.2448 312.552 57.9824L315.803 55.6777L320.435 60.5089L318.424 64.0887C319.15 65.3877 319.71 66.7863 320.09 68.2467L323.899 69.102L324.017 76.0479L320.237 77.0458C319.901 78.5175 319.385 79.9345 318.703 81.2592L320.831 84.7678L316.354 89.7653L313.029 87.5873C311.826 88.3696 310.533 88.9768 309.183 89.3931L308.39 93.5036L301.953 93.6224L301.028 89.5436C299.664 89.1826 298.35 88.6259 297.123 87.8883L293.872 90.193L289.24 85.3618L291.251 81.774C290.526 80.4756 289.968 79.0768 289.592 77.616L285.783 76.7607L285.665 69.8149L289.446 68.8169C289.78 67.3448 290.296 65.9277 290.98 64.6035L288.851 61.0949L293.321 56.0974L296.646 58.2754V58.2833ZM300.074 67.5339C299.128 68.5973 298.496 69.9394 298.257 71.3904C298.018 72.8415 298.183 74.3364 298.732 75.6861C299.28 77.0359 300.187 78.1799 301.338 78.9736C302.489 79.7672 303.832 80.1749 305.198 80.145C306.563 80.1151 307.89 79.649 309.01 78.8056C310.13 77.9623 310.993 76.7795 311.491 75.4069C311.988 74.0342 312.097 72.5333 311.804 71.0939C311.51 69.6545 310.828 68.3412 309.843 67.32C309.189 66.6416 308.417 66.1089 307.572 65.7524C306.727 65.396 305.825 65.2227 304.918 65.2426C304.01 65.2624 303.115 65.475 302.284 65.8682C301.453 66.2613 300.702 66.8274 300.074 67.5339Z" fill="#F5F5F5"/>
<path d="M300.074 67.5339C300.442 67.0561 300.878 66.6444 301.366 66.3142C302.492 65.5289 303.805 65.1112 305.146 65.1112C306.487 65.1112 307.799 65.5289 308.926 66.3142C309.986 67.0621 310.842 68.1008 311.407 69.3238C312.022 70.6847 312.254 72.2099 312.075 73.7115C311.875 75.328 311.2 76.8329 310.15 78.0058C309.1 79.1788 307.73 79.9581 306.239 80.2297C305.537 80.3523 304.821 80.3523 304.118 80.2297C303.44 80.1418 302.778 79.9386 302.158 79.6277C301.005 79.0641 300.011 78.1782 299.281 77.0617C298.652 76.0924 298.242 74.9776 298.085 73.8065C297.856 72.108 298.177 70.3764 298.995 68.9041C299.282 68.3699 299.646 67.8886 300.074 67.4785C300.118 67.4785 299.663 67.9695 299.127 68.9912C298.399 70.4428 298.141 72.1152 298.393 73.7432C298.57 74.9484 299.023 76.0867 299.712 77.0549C300.4 78.0231 301.302 78.7904 302.335 79.2872C302.926 79.575 303.555 79.7621 304.199 79.8416C304.867 79.9444 305.547 79.9283 306.21 79.7941C307.617 79.5381 308.911 78.8024 309.901 77.6948C310.892 76.5873 311.528 75.1662 311.715 73.6402C311.892 72.2198 311.68 70.7745 311.106 69.4822C310.614 68.3888 309.878 67.4451 308.962 66.7369C308.047 66.0288 306.983 65.5785 305.865 65.4272C304.336 65.2139 302.784 65.5627 301.461 66.4172C300.514 67.0666 300.111 67.5735 300.074 67.5339Z" fill="#F5F5F5"/>
<path d="M296.646 58.2833C296.571 58.2531 296.5 58.2132 296.433 58.1645L295.795 57.7606L293.284 56.1766H293.365L288.924 61.2058V61.0712L291.075 64.5718L291.112 64.6352L291.075 64.6985C290.405 66.0156 289.896 67.4214 289.563 68.8803V68.9674H289.482L285.71 69.9812L285.812 69.8307C285.856 72.0166 285.9 74.3372 285.944 76.7765L285.82 76.6102L289.629 77.4576H289.725V77.5606C290.105 79.0019 290.663 80.3816 291.383 81.6632L291.442 81.7582L291.383 81.8612L289.372 85.4489V85.2113L294.011 90.0267H293.784C294.796 89.306 295.905 88.514 297.035 87.722L297.131 87.6507L297.226 87.714C298.44 88.44 299.739 88.9886 301.087 89.3456H301.197V89.4644C301.491 90.7395 301.806 92.1334 302.129 93.5432L301.931 93.3848L308.368 93.258L308.177 93.4244C308.427 92.1255 308.698 90.7315 308.97 89.3139V89.1872H309.08C310.416 88.7792 311.694 88.1799 312.882 87.4052L312.985 87.3418L313.088 87.4052L316.413 89.5832H316.171L320.641 84.5856V84.847L318.556 81.3701L318.497 81.2672L318.549 81.1563C319.214 79.8493 319.71 78.4504 320.024 76.9983V76.8716H320.141L323.922 75.8816L323.775 76.0796C323.738 73.7036 323.701 71.3909 323.665 69.1337L323.811 69.3238L320.024 68.4368H319.921V68.3259C319.545 66.8856 318.992 65.5059 318.277 64.2233L318.218 64.1204L318.277 64.0253L320.296 60.4455V60.6672L315.671 55.8281H315.862L312.603 58.117L312.53 58.1645L312.456 58.1249C311.241 57.3892 309.94 56.8325 308.588 56.4696H308.515V56.3904C308.185 54.9094 307.884 53.5709 307.605 52.3116L307.715 52.4067L301.285 52.4938L301.366 52.4225C301.043 54.062 300.771 55.4004 300.551 56.5251H300.514C299.501 56.8308 298.518 57.2419 297.578 57.7527L296.844 58.1408C296.773 58.1922 296.697 58.2347 296.617 58.2675C296.683 58.2076 296.754 58.1546 296.83 58.1091C296.976 58.014 297.204 57.8635 297.512 57.6893C298.447 57.1497 299.431 56.7171 300.448 56.3984L300.404 56.4459C300.61 55.3291 300.867 53.9748 301.138 52.3354V52.2562H301.212L307.649 52.1057H307.737V52.2008C308.023 53.46 308.331 54.7906 308.669 56.2716L308.581 56.1687C309.958 56.5313 311.283 57.0907 312.523 57.8319H312.376L315.62 55.5192L315.723 55.448L315.811 55.543C317.279 57.0636 318.825 58.6661 320.45 60.3504L320.545 60.4534L320.472 60.5722L318.556 64.1916V63.9936C319.286 65.3084 319.856 66.7192 320.252 68.1912L320.112 68.0566L323.936 68.904H324.083V69.0545C324.12 71.3196 324.164 73.6323 324.2 76.0004V76.1667H324.054L320.274 77.1646L320.413 77.0141C320.077 78.5057 319.556 79.9416 318.864 81.283V81.0612L320.993 84.5698L321.081 84.7124L320.971 84.8312L316.501 89.8287L316.391 89.9554L316.259 89.8683L312.934 87.6903H313.132C311.916 88.484 310.608 89.0993 309.242 89.5198L309.381 89.3535L308.588 93.464L308.552 93.6303H308.397L301.96 93.7491H301.806L301.769 93.5828C301.454 92.1809 301.138 90.787 300.845 89.5119L300.984 89.6624C299.604 89.2932 298.276 88.7258 297.035 87.9754H297.27L294.011 90.2722L293.894 90.3593L293.784 90.2484L289.159 85.4172L289.057 85.3064L289.13 85.1796L291.156 81.5919V81.7899C290.424 80.4743 289.856 79.0603 289.468 77.5844L289.592 77.7111L285.783 76.8478H285.665V76.7211C285.665 74.2817 285.599 71.9691 285.57 69.7752V69.696H285.68L289.46 68.706L289.365 68.809C289.705 67.3264 290.231 65.9009 290.928 64.5718V64.6985C290.194 63.4313 289.46 62.2433 288.807 61.182L288.77 61.1028L288.822 61.0474L293.321 56.0736H293.358H293.395C294.459 56.7864 295.281 57.3329 295.846 57.721L296.477 58.1487C296.535 58.1911 296.592 58.236 296.646 58.2833Z" fill="#F5F5F5"/>
<path d="M95.3685 38.721C96.5737 37.9386 97.8694 37.3314 99.222 36.9152L100.015 32.8047L106.445 32.6859L107.377 36.7647C108.741 37.1249 110.055 37.6817 111.282 38.42L114.504 36.1153L119.135 40.9386L117.117 44.5263C117.842 45.8268 118.405 47.2249 118.79 48.6843L122.6 49.5397L122.71 56.4855L118.93 57.4834C118.607 58.9524 118.106 60.369 117.44 61.6969L119.569 65.2054L115.098 70.203L111.773 68.025C110.562 68.8098 109.258 69.4171 107.898 69.8307L107.105 73.9412L100.668 74.06L99.7432 69.9812C98.3788 69.6202 97.0655 69.0635 95.8383 68.3259L92.5867 70.6227L87.9551 65.7994L89.9736 62.2117C89.2473 60.9147 88.6845 59.5191 88.3001 58.0616L84.4907 57.2062L84.4099 50.2604L88.1827 49.2625C88.5198 47.79 89.0382 46.3729 89.7241 45.049L87.5881 41.5405L92.0582 36.543L95.3832 38.721H95.3685ZM98.8037 47.9715C97.8547 49.0322 97.2186 50.3727 96.9759 51.8236C96.7331 53.2744 96.8946 54.7703 97.4399 56.1221C97.9852 57.4738 98.8898 58.6207 100.039 59.4177C101.189 60.2146 102.531 60.6258 103.898 60.5992C105.264 60.5726 106.592 60.1094 107.714 59.2682C108.836 58.4271 109.702 57.2457 110.201 55.8736C110.701 54.5015 110.812 53.0002 110.521 51.5598C110.23 50.1194 109.55 48.8045 108.566 47.7814C107.914 47.1017 107.144 46.5674 106.3 46.209C105.456 45.8506 104.555 45.6753 103.648 45.6929C102.742 45.7106 101.847 45.9209 101.016 46.3119C100.184 46.7029 99.4328 47.2668 98.8037 47.9715Z" fill="#E0E0E0"/>
<path d="M98.8037 47.9715C99.1657 47.4838 99.5997 47.0637 100.088 46.7281C101.216 45.943 102.53 45.5255 103.872 45.5255C105.214 45.5255 106.528 45.943 107.656 46.7281C108.715 47.474 109.57 48.5135 110.129 49.7377C110.775 51.105 111.021 52.6516 110.834 54.1729C110.636 55.7959 109.958 57.3065 108.899 58.4797C107.841 59.6528 106.46 60.4257 104.962 60.6831C103.578 60.9361 102.155 60.7404 100.874 60.1208C99.7208 59.5589 98.7295 58.6725 98.0036 57.5547C97.2324 56.3696 96.7944 54.9696 96.7423 53.5226C96.6902 52.0756 97.0262 50.6431 97.71 49.3971C97.9951 48.8592 98.3624 48.3772 98.7964 47.9715C98.4567 48.4577 98.1407 48.9627 97.8495 49.4842C97.1213 50.9359 96.863 52.6082 97.1155 54.2362C97.2775 55.3546 97.6825 56.4157 98.2972 57.3329C99.0079 58.3727 99.9597 59.1921 101.057 59.7089C101.646 59.9958 102.272 60.1828 102.914 60.2633C103.582 60.3661 104.262 60.3501 104.925 60.2158C106.323 59.9517 107.608 59.217 108.595 58.117C109.58 57.0043 110.217 55.586 110.416 54.062C110.518 53.3429 110.518 52.611 110.416 51.8919C110.317 51.2003 110.119 50.5295 109.828 49.904C109.324 48.8227 108.578 47.8938 107.658 47.2011C106.738 46.5084 105.673 46.0737 104.558 45.9361C103.029 45.724 101.478 46.0727 100.154 46.9261C99.6872 47.2484 99.2363 47.5974 98.8037 47.9715Z" fill="#E0E0E0"/>
<path d="M95.3686 38.7209L95.1557 38.5941L94.5172 38.1981L92.0142 36.6141H92.0876L87.6836 41.6434V41.5087C88.3295 42.57 89.0562 43.7422 89.8269 45.0094L89.8636 45.0648V45.1361C89.1859 46.4494 88.6772 47.8563 88.3516 49.3178V49.405H88.2781L84.41 50.4108L84.5201 50.2603C84.5201 52.4462 84.6008 54.7668 84.6448 57.2062L84.5201 57.0398L88.3295 57.8873H88.4323V57.9902C88.8189 59.4305 89.3791 60.8098 90.0985 62.0928L90.1498 62.1878L90.0985 62.2829L88.0873 65.8786V65.6409L92.7262 70.488H92.484L95.7356 68.1912L95.831 68.1199L95.9338 68.1833C97.1594 68.8994 98.4675 69.4374 99.824 69.7831H99.9414V69.9019C100.235 71.177 100.551 72.571 100.874 73.9807L100.683 73.8223L107.113 73.6956L106.929 73.8619L107.722 69.7514V69.6247H107.839C109.172 69.2152 110.448 68.616 111.634 67.8427L111.737 67.7794L111.84 67.8427L115.165 70.0207H114.922L119.392 65.0232V65.2846L117.264 61.776L117.198 61.673L117.256 61.5622C117.932 60.2524 118.443 58.8515 118.776 57.3962V57.2774H118.886L122.666 56.2874L122.519 56.4854C122.483 54.1094 122.453 51.7968 122.416 49.5396L122.563 49.7297L118.754 48.8664H118.644V48.7555C118.269 47.3147 117.716 45.9348 117 44.653L116.948 44.55L117 44.455L119.018 40.8751V41.0969L114.394 36.2577H114.585L111.326 38.5466L111.252 38.5941H111.179C109.965 37.8563 108.664 37.2994 107.311 36.9389H107.237V36.8597C106.907 35.3707 106.606 34.0401 106.327 32.7809L106.445 32.8759L100.007 32.963L100.088 32.8917C99.7652 34.5312 99.501 35.8697 99.2735 36.9943H99.2368C98.2236 37.3 97.2403 37.7111 96.3008 38.2219L95.6108 38.61L95.3759 38.7367C95.444 38.6758 95.5178 38.6227 95.5961 38.5783C95.7429 38.4833 95.9631 38.3328 96.2714 38.1586C97.2057 37.619 98.1897 37.1863 99.2074 36.8676L99.1634 36.9151C99.3762 35.7905 99.6258 34.4441 99.8974 32.8046V32.7254H99.9634L106.401 32.575H106.496V32.67C106.782 33.9293 107.091 35.2598 107.436 36.7409L107.34 36.6379C108.717 36.9992 110.043 37.5586 111.282 38.3011H111.135L114.379 35.9885L114.482 35.9172L114.57 36.0122L119.209 40.8197L119.304 40.9226L119.238 41.0414L117.227 44.6371V44.4312C117.963 45.7426 118.533 47.1543 118.923 48.6288L118.791 48.4941L122.6 49.3416H122.739V49.5C122.783 51.7572 122.82 54.0777 122.864 56.4458V56.6122H122.717L118.937 57.618L119.084 57.4675C118.765 58.968 118.264 60.4166 117.594 61.776V61.5542L119.73 65.0628L119.811 65.2054L119.708 65.3242L115.238 70.3454L115.128 70.4722L114.988 70.385L111.663 68.207H111.869C110.651 69.0008 109.34 69.6161 107.971 70.0366L108.111 69.8702L107.318 73.9807V74.147H107.157L100.727 74.2737H100.558L100.521 74.1074C100.198 72.7056 99.8827 71.3117 99.5964 70.0366L99.7359 70.187C98.3556 69.8179 97.0274 69.2505 95.787 68.5001H95.9778L92.7262 70.7969L92.6014 70.884L92.4986 70.781L87.8671 65.9498L87.7717 65.8389L87.8451 65.7122C88.5424 64.4609 89.2397 63.2412 89.8636 62.1245V62.3146C89.1295 61.0041 88.564 59.5919 88.1827 58.1169L88.3002 58.2437L84.4981 57.3804H84.3733V57.2457C84.3733 54.8143 84.3072 52.4938 84.2705 50.3078V50.1811H84.3806L88.1387 49.104L88.0433 49.207C88.3866 47.7255 88.9125 46.3004 89.6067 44.9697V45.144C88.8727 43.8768 88.1387 42.6888 87.4928 41.6275L87.4487 41.5483L87.5001 41.4929L91.9995 36.5191H92.0436L94.4878 38.1665L95.119 38.5941C95.2071 38.624 95.2911 38.6666 95.3686 38.7209Z" fill="#E0E0E0"/>
<path d="M265.62 60.3505L264.923 57.2854C263.899 57.0082 262.912 56.5903 261.987 56.042L259.528 57.7765L256.012 54.1174L257.531 51.4167C256.986 50.4412 256.564 49.3918 256.276 48.2962L253.399 47.6468L253.318 42.3879L256.159 41.5959C256.416 40.4911 256.803 39.4264 257.311 38.4279L255.703 35.7747L259.102 31.9652L261.605 33.5967C262.511 33.0122 263.483 32.557 264.497 32.2424L265.099 29.1378L269.98 29.0427L270.677 32.1078C271.702 32.3843 272.689 32.805 273.613 33.3591L276.072 31.6167L279.654 35.3074L278.098 38.0161C278.646 39.0067 279.068 40.0722 279.353 41.1841L282.23 41.8256L282.318 47.0924L279.478 47.8844C279.222 48.9907 278.832 50.0558 278.318 51.0524L279.933 53.7056L276.542 57.4914L274.039 55.8519C273.133 56.4412 272.158 56.8967 271.14 57.2062L270.545 60.3188L265.62 60.3505ZM261.987 55.9786C262.909 56.5337 263.897 56.9519 264.923 57.2221L265.62 60.2871L270.457 60.2L271.051 57.0954C272.081 56.7829 273.069 56.3248 273.987 55.7331L276.483 57.3646L279.845 53.6185L278.237 50.9653C278.756 49.9716 279.147 48.9056 279.397 47.7973L282.238 47.0053L282.15 41.786L279.324 41.1841C279.037 40.0713 278.613 39.0056 278.061 38.0161L279.573 35.3233L276.094 31.6801L273.642 33.4225C272.72 32.8647 271.733 32.4438 270.706 32.1711L270.016 29.1061L265.179 29.2011L264.585 32.2978C263.565 32.6068 262.59 33.0651 261.686 33.6601L259.102 32.0127L255.74 35.7668L257.348 38.4121C256.831 39.4064 256.444 40.4723 256.195 41.5801L253.355 42.3721L253.435 47.5834L256.313 48.225C256.604 49.3356 257.029 50.4006 257.575 51.393L256.063 54.0937L259.542 57.7131L261.987 55.9786ZM267.969 50.1733C266.595 50.1797 265.275 49.6009 264.295 48.5628C263.315 47.5246 262.755 46.111 262.735 44.6293C262.718 43.8867 262.839 43.148 263.091 42.4568C263.343 41.7657 263.721 41.1362 264.203 40.6059C264.804 39.9344 265.549 39.4338 266.372 39.149C267.195 38.8641 268.071 38.8039 268.922 38.9735C269.772 39.1432 270.57 39.5376 271.245 40.1214C271.919 40.7052 272.449 41.4602 272.787 42.319C273.125 43.1778 273.26 44.1136 273.181 45.0427C273.102 45.9718 272.811 46.8653 272.334 47.6433C271.857 48.4213 271.208 49.0596 270.446 49.501C269.685 49.9425 268.833 50.1735 267.969 50.1733ZM267.969 38.9269C267.27 38.925 266.578 39.0756 265.935 39.3696C265.292 39.6636 264.71 40.0949 264.225 40.6376C263.273 41.7085 262.752 43.1429 262.777 44.627C262.801 46.1112 263.37 47.5244 264.357 48.5576C264.969 49.1958 265.717 49.6622 266.535 49.9157C267.352 50.1692 268.216 50.2022 269.048 50.0116C269.88 49.8211 270.657 49.4129 271.309 48.8229C271.961 48.2329 272.468 47.4792 272.787 46.628C273.106 45.7767 273.227 44.854 273.138 43.9408C273.049 43.0277 272.754 42.152 272.278 41.3908C271.802 40.6296 271.16 40.0061 270.409 39.5751C269.658 39.1441 268.82 38.9188 267.969 38.919V38.9269Z" fill="#E0E0E0"/>
<path d="M264.24 40.6217C264.512 40.2582 264.84 39.9475 265.209 39.703C266.217 38.9964 267.42 38.6886 268.615 38.8318C269.503 38.9364 270.352 39.2817 271.084 39.8356C271.815 40.3895 272.405 41.134 272.798 41.9998C273.028 42.4993 273.186 43.0333 273.268 43.5838C273.356 44.1554 273.356 44.7388 273.268 45.3104C273.121 46.5328 272.614 47.6718 271.821 48.559C271.028 49.4461 269.991 50.0343 268.864 50.2366C267.82 50.4317 266.746 50.2827 265.781 49.8089C264.898 49.3892 264.137 48.7186 263.579 47.8685C262.997 46.9731 262.667 45.9155 262.628 44.8227C262.589 43.7298 262.843 42.6479 263.359 41.7068C263.592 41.2923 263.89 40.9251 264.24 40.6217C263.976 40.987 263.731 41.3678 263.506 41.7622C263.028 42.6832 262.805 43.7322 262.86 44.7858C262.916 45.8394 263.25 46.854 263.822 47.7101C264.355 48.5058 265.074 49.1344 265.906 49.5317C266.351 49.7489 266.824 49.8905 267.308 49.9515C267.814 50.0345 268.329 50.0345 268.835 49.9515C269.898 49.7556 270.876 49.1981 271.624 48.3603C272.373 47.5224 272.854 46.4482 272.997 45.2945C273.078 44.7515 273.078 44.1981 272.997 43.6551C272.92 43.1351 272.772 42.6305 272.556 42.1582C272.157 41.2751 271.55 40.521 270.795 39.9723C270.133 39.4998 269.38 39.1989 268.593 39.0932C267.441 38.9338 266.272 39.1959 265.275 39.8377C264.918 40.08 264.572 40.3417 264.24 40.6217Z" fill="#EBEBEB"/>
<path d="M261.62 33.6284L261.458 33.5412L260.981 33.2403L259.102 32.0285H259.161L255.799 35.8301V35.7272C256.283 36.5192 256.834 37.4141 257.414 38.3724V38.42V38.4675C256.905 39.4645 256.52 40.5297 256.269 41.6355V41.6988H256.21L253.362 42.4908L253.443 42.372C253.472 44.03 253.504 45.7803 253.538 47.623L253.443 47.4963L256.32 48.1378H256.394V48.217C256.68 49.3034 257.097 50.3446 257.634 51.3137L257.678 51.385L257.634 51.48L256.166 54.1649V53.9907L259.667 57.6339H259.498L261.95 55.8994L262.023 55.844L262.097 55.8915C263.02 56.4422 264.008 56.8577 265.033 57.127H265.113V57.2141L265.847 60.295L265.701 60.1762L270.56 60.0812L270.42 60.2079C270.611 59.2258 270.809 58.1724 271.015 57.1032V57.0082H271.103C272.11 56.6971 273.075 56.2444 273.973 55.6618L274.054 55.6064L274.127 55.6618L276.637 57.3012H276.454L279.83 53.5313V53.7293L278.186 51.0761L278.135 50.9969L278.179 50.9098C278.692 49.9148 279.077 48.849 279.324 47.7418V47.6547H279.412L282.267 46.8627L282.157 47.0132C282.157 45.2232 282.106 43.4729 282.076 41.7701L282.186 41.9127L279.309 41.2632H279.228V41.184C278.948 40.0928 278.531 39.0482 277.988 38.0794L277.944 38.0081L277.988 37.9289L279.515 35.2282V35.3945L276.028 31.7355H276.168L273.709 33.47L273.65 33.5096L273.599 33.47C272.674 32.917 271.687 32.4963 270.663 32.2186H270.604V32.1632L269.914 29.0744L270.002 29.1536L265.135 29.2169L265.202 29.1615C264.952 30.397 264.754 31.4187 264.585 32.2661C263.826 32.4959 263.088 32.8036 262.383 33.1848L261.862 33.4779L261.686 33.5729L261.847 33.4541L262.361 33.1373C263.061 32.7302 263.799 32.4036 264.563 32.1632H264.526C264.688 31.3157 264.879 30.294 265.106 29.0506V28.9952H265.158L270.017 28.8843H270.09V28.9635L270.824 32.0364L270.751 31.9572C271.791 32.2349 272.792 32.6583 273.731 33.2165H273.621L276.072 31.4741L276.145 31.4187L276.212 31.49L279.654 35.2124L279.727 35.2916L279.676 35.3787L278.186 38.0952V37.9527C278.741 38.9423 279.171 40.0078 279.463 41.1207L279.368 41.0177L282.245 41.6592H282.348V41.778C282.377 43.4782 282.407 45.2259 282.436 47.0211V47.1478H282.326L279.471 47.9002L279.581 47.7893C279.322 48.9148 278.927 49.9987 278.406 51.0128V50.8464L280.021 53.4996L280.087 53.6026L279.999 53.6976L276.623 57.4755L276.542 57.5626L276.439 57.4992L273.929 55.8519H274.083C273.163 56.4459 272.177 56.9091 271.147 57.23L271.25 57.1032C271.044 58.1724 270.839 59.2337 270.655 60.2079V60.3346H270.538L265.679 60.4296H265.561V60.3108C265.319 59.2416 265.084 58.1883 264.864 57.23L264.967 57.3408C263.925 57.0645 262.923 56.6383 261.987 56.0736H262.133L259.675 57.8081L259.579 57.8715L259.498 57.7923L256.005 54.1412L255.931 54.062L255.983 53.9669C256.518 53.0244 257.039 52.0978 257.509 51.2583V51.48C256.93 50.495 256.478 49.4292 256.166 48.312L256.261 48.4071L253.384 47.7576H253.289V47.5992C253.289 45.7618 253.237 44.0036 253.215 42.3562V42.2612H253.296L256.151 41.5167L256.078 41.5959C256.343 40.489 256.74 39.4241 257.26 38.4279V38.5229L255.66 35.8618V35.8064L255.704 35.7588L259.102 31.9493L260.959 33.1928L261.429 33.5175L261.62 33.6284Z" fill="#EBEBEB"/>
<path d="M39.2103 155.01L38.4763 151.945C37.451 151.669 36.4639 151.248 35.5403 150.694L33.0814 152.436L29.5729 148.777L31.0923 146.076C30.5449 145.102 30.1227 144.053 29.8371 142.956L26.9525 142.314L26.9011 137.016L29.7417 136.264C29.9986 135.159 30.3859 134.094 30.8941 133.096L29.2866 130.442L32.6777 126.657L35.232 128.304C36.1377 127.719 37.1098 127.264 38.124 126.95L38.7259 123.837L43.5996 123.75L44.3336 126.815C45.3576 127.092 46.3443 127.51 47.2696 128.058L49.7285 126.324L53.237 129.983L51.725 132.684C52.2667 133.661 52.6886 134.71 52.9801 135.804L55.8574 136.454L55.9455 141.72L53.1049 142.512C52.8487 143.619 52.4587 144.684 51.9452 145.68L53.56 148.334L50.1102 152.064L47.5926 150.48C46.6883 151.067 45.7158 151.523 44.7006 151.834L44.1061 154.939L39.2103 155.01ZM35.5403 150.638C36.4623 151.196 37.4499 151.617 38.4763 151.89L39.2103 154.955L44.0474 154.868L44.6419 151.763C45.6601 151.453 46.6352 150.998 47.5412 150.409L50.0368 152.04L53.3985 148.286L51.7911 145.641C52.3109 144.647 52.7012 143.581 52.9508 142.473L55.7914 141.728L55.784 136.477L52.9141 135.836C52.6303 134.724 52.2081 133.658 51.6589 132.668L53.171 129.967L49.6918 126.348L47.2403 128.082C46.3196 127.521 45.3316 127.1 44.3043 126.831L43.6143 123.766L38.7772 123.853L38.168 126.942C37.138 127.254 36.1508 127.712 35.232 128.304L32.7291 126.672L29.36 130.427L30.9528 133.056C30.433 134.049 30.0427 135.115 29.7931 136.224L26.9378 137.016L27.0186 142.235L29.8958 142.877C30.1885 143.975 30.6129 145.026 31.1583 146.005L29.6463 148.698L33.1254 152.325L35.5403 150.638ZM41.5224 144.833C40.1502 144.835 38.8322 144.255 37.8531 143.218C36.8739 142.181 36.3121 140.769 36.289 139.289C36.2714 138.546 36.3923 137.808 36.6445 137.117C36.8967 136.425 37.275 135.796 37.757 135.266C38.3573 134.594 39.1024 134.094 39.9258 133.809C40.7492 133.524 41.6252 133.464 42.4755 133.633C43.3257 133.803 44.1238 134.197 44.7983 134.781C45.4728 135.365 46.0027 136.12 46.3407 136.979C46.6787 137.838 46.8142 138.773 46.7352 139.702C46.6561 140.632 46.3649 141.525 45.8876 142.303C45.4103 143.081 44.7618 143.719 44.0001 144.161C43.2383 144.602 42.3871 144.833 41.5224 144.833ZM41.5224 133.579H41.427C40.0218 133.592 38.6788 134.206 37.6918 135.285C36.7048 136.365 36.1543 137.822 36.1606 139.338C36.1669 140.855 36.7296 142.306 37.7255 143.376C38.7214 144.446 40.0694 145.047 41.4747 145.047C42.88 145.047 44.228 144.446 45.2239 143.376C46.2198 142.306 46.7825 140.855 46.7888 139.338C46.7951 137.822 46.2446 136.365 45.2576 135.285C44.2706 134.206 42.9276 133.592 41.5224 133.579Z" fill="#E0E0E0"/>
<path d="M37.8083 135.282C38.0812 134.917 38.4087 134.603 38.7772 134.355C39.7861 133.652 40.9894 133.347 42.183 133.492C43.0076 133.587 43.7997 133.891 44.4951 134.379C45.2941 134.945 45.9399 135.729 46.3668 136.652C46.5963 137.151 46.7547 137.685 46.8366 138.236C46.9248 138.81 46.9248 139.396 46.8366 139.97C46.6897 141.193 46.1823 142.332 45.3892 143.219C44.5961 144.106 43.5594 144.694 42.4326 144.896C41.3883 145.081 40.3168 144.932 39.3497 144.469C38.4655 144.051 37.704 143.38 37.1477 142.528C36.5658 141.633 36.2355 140.575 36.1964 139.483C36.1574 138.39 36.4112 137.308 36.9275 136.367C37.1432 135.96 37.4211 135.596 37.7496 135.29C37.4834 135.653 37.2383 136.034 37.0156 136.43C36.6687 137.102 36.4553 137.846 36.3891 138.612C36.3229 139.378 36.4053 140.151 36.6311 140.881C36.8569 141.611 37.2211 142.283 37.7005 142.853C38.1799 143.423 38.7641 143.879 39.4158 144.192C39.8599 144.411 40.3328 144.555 40.8177 144.619C41.3254 144.693 41.8407 144.68 42.3445 144.58C43.4076 144.387 44.3855 143.831 45.1345 142.994C45.8835 142.158 46.3643 141.084 46.5062 139.931C46.5872 139.388 46.5872 138.834 46.5062 138.291C46.4299 137.769 46.2814 137.261 46.0658 136.786C45.6922 135.961 45.1343 135.249 44.4425 134.714C43.7507 134.179 42.9465 133.838 42.1022 133.721C40.9496 133.568 39.7825 133.833 38.7846 134.474C38.445 134.722 38.119 134.992 37.8083 135.282Z" fill="#EBEBEB"/>
<path d="M35.232 128.304C35.1745 128.28 35.1201 128.248 35.0705 128.209L34.5934 127.916L32.6776 126.72H32.7364L29.36 130.474V130.379C29.8444 131.171 30.3949 132.066 30.9748 133.016V133.064V133.119C30.4656 134.116 30.0806 135.182 29.8297 136.287V136.351H29.771L26.9231 137.143L27.0038 137.032C27.0332 138.685 27.065 140.432 27.0992 142.275L27.0038 142.156L29.8811 142.798H29.9545V142.877C30.2429 143.965 30.665 145.006 31.2096 145.974L31.2537 146.045L31.2096 146.124L29.6903 148.833V148.658L33.1914 152.294H33.0226L35.4742 150.551L35.5476 150.504L35.621 150.551C36.5448 151.099 37.5321 151.512 38.557 151.779H38.6377V151.874L39.3717 154.955L39.2249 154.836L44.084 154.741L43.9445 154.868C44.1354 153.886 44.3336 152.824 44.5391 151.763V151.668H44.6272C45.633 151.356 46.5975 150.906 47.4971 150.33L47.5778 150.282L47.6512 150.33L50.1615 151.977H49.978L53.3544 148.207V148.405L51.7543 145.728L51.7029 145.649L51.747 145.562C52.2601 144.567 52.6453 143.501 52.892 142.394V142.307H52.9801L55.8353 141.554L55.7252 141.705C55.7252 139.915 55.6739 138.164 55.6445 136.454L55.7546 136.596L52.8773 135.947H52.7966V135.86C52.5135 134.77 52.0963 133.726 51.5561 132.755L51.5121 132.684L51.5561 132.613L53.0828 129.888V130.054L49.5963 126.403H49.7358L47.2769 128.138H47.2182H47.1668C46.2441 127.581 45.2567 127.161 44.2308 126.886H44.1721V126.823L43.4821 123.742L43.5702 123.813L38.7038 123.885L38.7698 123.829C38.5203 125.065 38.3221 126.079 38.1533 126.926C37.3929 127.156 36.6554 127.467 35.9513 127.853L35.4301 128.146C35.3728 128.21 35.3058 128.264 35.232 128.304L35.3934 128.185L35.9072 127.868C36.6076 127.461 37.3456 127.135 38.1092 126.894L38.0725 126.934C38.234 126.079 38.4249 125.065 38.6524 123.821V123.766H38.7038L43.5629 123.647H43.6363V123.718L44.3703 126.799L44.2969 126.72C45.3379 126.994 46.3402 127.418 47.2769 127.979H47.1668L49.6184 126.237L49.6918 126.182L49.7578 126.253L53.2737 129.888L53.3471 129.959L53.2957 130.054L51.7763 132.763V132.62C52.331 133.61 52.7605 134.676 53.0535 135.788L52.9581 135.686L55.8353 136.327H55.9381V136.446C55.9675 138.146 55.9968 139.894 56.0262 141.689V141.816H55.9161L53.0608 142.608L53.1709 142.497C52.9112 143.622 52.5164 144.705 51.9965 145.72V145.554C52.5323 146.425 53.0682 147.312 53.6113 148.207L53.6774 148.31L53.5893 148.405L50.2129 152.175L50.1322 152.27L50.0294 152.207L47.5191 150.559H47.71C46.7936 151.16 45.8059 151.623 44.774 151.937L44.8767 151.819C44.6712 152.888 44.4657 153.941 44.2822 154.923V155.05H44.1647L39.3057 155.145H39.1882V155.018C38.946 153.957 38.7111 152.904 38.4542 151.937L38.557 152.056C37.5152 151.777 36.5128 151.348 35.5769 150.781H35.7237L33.2648 152.516L33.1694 152.579L33.0887 152.5L29.5288 148.896L29.4554 148.817L29.5068 148.714L31.0335 146.005V146.156C30.4796 145.166 30.0524 144.101 29.7637 142.988L29.8591 143.083L26.9818 142.425H26.8864V142.322C26.8864 140.485 26.835 138.727 26.813 137.079V136.984H26.8937L29.749 136.24L29.6756 136.319C29.923 135.181 30.3106 134.083 30.828 133.056V133.159L29.2278 130.498V130.442V130.395L32.6263 126.641L34.4833 127.884L34.953 128.209C35.049 128.229 35.1426 128.261 35.232 128.304Z" fill="#EBEBEB"/>
<path d="M256.357 307.169C253.31 305.112 249.868 303.833 246.294 303.431C244.65 303.249 242.851 303.304 241.53 304.374C241.378 304.469 241.253 304.607 241.168 304.773C241.082 304.939 241.04 305.127 241.046 305.316C241.123 305.583 241.287 305.811 241.508 305.958C243.646 307.6 246.159 308.582 248.776 308.795C251.393 309.009 254.014 308.447 256.357 307.169Z" fill="#E0E0E0"/>
<path d="M256.1 306.86C253.768 305.014 251.592 302.95 249.597 300.691C247.597 298.415 246.192 295.609 245.523 292.557C245.391 292.106 245.352 291.629 245.408 291.16C245.463 290.691 245.613 290.241 245.846 289.84C251.028 294.204 255.102 299.851 256.122 306.86" fill="#E0E0E0"/>
<path d="M256.305 307.13C255.827 304.077 255.866 300.956 256.423 297.919C257.002 294.858 258.626 292.144 260.974 290.315C261.869 292.581 261.48 295.178 260.849 297.538C259.871 301.193 258.349 304.652 256.342 307.779" fill="#E0E0E0"/>
<path d="M261.385 316.95C258.302 317.354 255.615 319.105 253.311 321.354C250.999 323.63 249.388 326.615 248.694 329.908C251.718 329.71 254.287 327.405 256.144 324.823C258.001 322.241 259.3 319.414 261.341 316.998" fill="#E0E0E0"/>
<path d="M262.486 318.519C261.272 315.194 260.847 311.594 261.248 308.047C261.649 304.5 262.864 301.117 264.783 298.204C266.545 304.944 265.899 312.563 262.486 318.519Z" fill="#E0E0E0"/>
<path d="M269.202 327.143C266.383 326.957 263.576 327.667 261.128 329.187C258.681 330.706 256.7 332.967 255.432 335.689C255.263 336.061 255.116 336.529 255.344 336.853C255.462 336.978 255.607 337.07 255.765 337.121C255.924 337.172 256.092 337.181 256.254 337.146C258.97 336.956 261.392 335.198 263.359 333.186C265.326 331.175 267.066 328.87 269.231 327.135" fill="#E0E0E0"/>
<path d="M268.982 326.676C267.543 321.655 267.456 316.296 268.732 311.224C269.231 309.237 270.083 307.138 271.785 306.203C271.854 306.155 271.931 306.122 272.012 306.107C272.093 306.092 272.176 306.095 272.255 306.116C272.391 306.198 272.495 306.33 272.549 306.488C273.126 307.88 273.378 309.403 273.283 310.923C273.185 312.435 272.969 313.934 272.637 315.406C272.101 318.147 271.815 321.101 270.435 323.461C270.108 324.032 269.814 324.625 269.554 325.235C269.29 325.837 269.282 326.027 269.04 326.526" fill="#E0E0E0"/>
<path d="M286.752 329.527C285.438 324.126 286.832 317.576 289.989 313.149C290.216 312.824 290.524 312.476 290.906 312.507C291.486 312.571 291.64 313.402 291.64 314.036C291.404 319.59 289.72 324.96 286.781 329.527" fill="#E0E0E0"/>
<path d="M288.352 330.708C291.458 331.5 294.687 331.557 297.816 330.873C300.944 330.19 303.898 328.782 306.474 326.748C303.441 325.103 299.973 324.644 296.661 325.449C293.387 326.241 290.392 327.825 288.352 330.723" fill="#E0E0E0"/>
<path d="M289.702 327.096C293.108 321.101 299.641 317.196 306.151 316.84C305.417 319.691 303.215 321.908 300.771 323.255C298.256 324.48 295.596 325.322 292.866 325.758C291.816 325.979 290.378 326.225 289.695 327.112" fill="#E0E0E0"/>
<path d="M287.089 309.672C288.122 306.291 288.828 302.803 289.196 299.265C289.556 295.701 288.884 292.104 287.273 288.969C284.095 295.614 283.772 303.376 286.994 309.997" fill="#E0E0E0"/>
<path d="M297.806 303.819C301.527 296.517 309.117 290.688 316.802 289.872C313.866 297.832 305.755 303.985 297.806 303.819Z" fill="#E0E0E0"/>
<path d="M295.464 305.245C301.013 306.156 305.74 309.997 310.93 312.302C312.016 312.867 313.221 313.115 314.424 313.022C314.984 313.016 315.528 312.825 315.984 312.473C316.44 312.122 316.784 311.628 316.971 311.058C317.158 310.489 317.178 309.871 317.028 309.288C316.878 308.706 316.566 308.187 316.134 307.803C315.4 307.07 314.536 306.504 313.594 306.14C307.95 303.598 301.887 303.534 295.941 305.079" fill="#E0E0E0"/>
<path d="M292.249 309.442C293.505 309.83 293.938 310.535 294.928 311.454C298.327 314.566 302.346 316.789 306.672 317.948C307.12 318.067 307.707 318.123 307.928 317.679C308.148 317.236 307.876 316.84 307.627 316.499C305.741 314.114 303.294 312.322 300.544 311.311C297.842 310.226 295.494 308.935 292.264 309.197" fill="#E0E0E0"/>
<path d="M288.623 284.074C290.9 286.34 293.59 288.066 296.522 289.142C299.453 290.218 302.561 290.621 305.645 290.323C305.915 290.32 306.175 290.213 306.379 290.022C306.805 289.523 306.291 288.747 305.792 288.328C300.793 284.114 294.73 282.372 288.587 284.074" fill="#E0E0E0"/>
<path d="M292.925 282.38C295.936 279.989 299.429 278.401 303.118 277.744C306.808 277.087 310.588 277.381 314.152 278.602C311.376 281.381 307.812 283.069 304.037 283.393C300.307 283.762 296.545 283.419 292.925 282.38Z" fill="#E0E0E0"/>
<path d="M291.214 270.721C290.723 265.336 291.046 261.083 290.693 255.673C290.693 255.238 290.583 254.715 290.209 254.565C289.688 254.343 289.247 255.04 289.079 255.61C288.35 258.119 288.163 260.774 288.532 263.373C288.901 265.971 289.816 268.444 291.207 270.603" fill="#E0E0E0"/>
<path d="M290.855 271.323C294.118 269.037 296.93 266.076 299.127 262.611C300.764 260.235 302.136 257.313 301.769 254.351C300.621 254.379 299.493 254.678 298.462 255.225C297.431 255.772 296.524 256.555 295.802 257.519C294.377 259.469 293.34 261.715 292.756 264.116C292.095 266.492 291.633 268.924 290.855 271.244" fill="#E0E0E0"/>
<path d="M298.98 268.884C306.427 265.908 313.322 261.523 319.341 255.935C316.904 254.873 314.123 255.507 311.693 256.568C306.173 258.823 301.613 263.185 298.877 268.829" fill="#E0E0E0"/>
<path d="M293.138 274.27C296.885 274.846 300.689 274.865 304.441 274.325C308.111 273.668 311.568 272.1 314.996 270.547C315.302 270.457 315.564 270.245 315.73 269.953C315.781 269.782 315.784 269.598 315.739 269.424C315.693 269.251 315.601 269.096 315.473 268.979C315.208 268.756 314.899 268.602 314.57 268.528C310.849 267.403 306.827 267.926 303.164 269.264C299.674 270.55 296.318 272.228 293.152 274.27" fill="#E0E0E0"/>
<path d="M271.683 284.265C269.121 278.681 269.29 272.163 271.499 266.405C273.063 268.971 273.254 272.234 272.967 275.283C272.681 278.333 271.822 281.477 271.763 284.542" fill="#E0E0E0"/>
<path d="M261.443 278.689C258.234 278.644 255.05 279.322 252.097 280.679C249.144 282.036 246.485 284.042 244.29 286.569C247.526 286.99 250.803 286.335 253.685 284.692C256.555 283.06 259.261 281.112 261.759 278.879" fill="#E0E0E0"/>
<path d="M254.558 276.202C251.424 275.933 248.415 275.513 245.406 276.511C243.884 276.969 242.473 277.776 241.268 278.878C240.063 279.98 239.093 281.35 238.425 282.894C241.378 283.158 244.342 282.559 247.006 281.16C249.656 279.762 252.184 278.107 254.558 276.218" fill="#E0E0E0"/>
<path d="M264.754 276.321C261.935 274.325 259.043 272.298 255.762 271.474C252.481 270.65 248.679 271.26 246.396 273.921C249.046 275.608 252.268 275.806 255.351 275.806C258.434 275.806 262.199 275.759 265.106 276.867" fill="#E0E0E0"/>
<path d="M264.768 276.479C259.953 271.379 258.126 262.223 260.063 255.23C263.867 261.511 265.53 269.022 264.768 276.479Z" fill="#E0E0E0"/>
<path d="M278.01 262.017C278.92 259.776 279.558 257.353 280.388 255.024C281.13 252.67 282.272 250.487 283.757 248.585C285.262 246.672 287.401 245.472 289.717 245.243C288.979 248.76 287.568 252.071 285.575 254.965C283.582 257.86 281.05 260.272 278.142 262.049" fill="#E0E0E0"/>
<path d="M275.617 265.035C274.112 262.802 272.373 259.768 270.34 258.105C268.306 256.442 265.642 255.428 263.161 256.07C264.451 258.509 266.25 260.589 268.417 262.146C270.583 263.702 273.056 264.692 275.639 265.035" fill="#E0E0E0"/>
<path d="M276.094 262.207C275.017 259.545 274.22 256.761 273.716 253.907C273.223 251.027 273.647 248.052 274.92 245.465C277.569 250.858 278.421 256.64 276.226 262.271" fill="#E0E0E0"/>
<path d="M278.039 245.465C279.507 240.119 284.073 236.182 288.968 234.377C289.574 234.106 290.232 234 290.884 234.068C291.209 234.105 291.516 234.245 291.767 234.471C292.018 234.696 292.201 234.997 292.293 235.335C292.477 236.246 291.78 237.061 291.126 237.663C287.298 241.192 282.846 243.846 278.039 245.465Z" fill="#E0E0E0"/>
<path d="M278.09 241.093C278.281 237.648 278.48 234.147 279.514 230.884C280.549 227.621 282.561 224.548 285.475 223.122C285.966 226.607 284.542 230.068 282.825 233.062C281.107 236.056 279.045 238.891 278.01 242.225" fill="#E0E0E0"/>
<path d="M278.01 243.461C276.777 239.572 276.645 234.622 274.487 231.224C272.975 228.848 270.552 227.264 269.253 224.73C268.467 227.137 268.574 229.78 269.554 232.103C270.536 234.403 271.891 236.496 273.554 238.281C275.155 240.126 276.527 241.512 278.01 243.461Z" fill="#E0E0E0"/>
<path d="M278.039 358.182C277.936 358.182 277.856 332.196 277.848 300.144C277.841 268.092 277.914 242.106 278.01 242.106C278.105 242.106 278.193 268.084 278.201 300.144C278.208 332.204 278.135 358.182 278.039 358.182Z" fill="#E0E0E0"/>
<path d="M299.083 280.368C298.79 280.519 298.486 280.64 298.173 280.732L295.685 281.635C293.585 282.427 290.693 283.528 287.566 284.914C284.44 286.3 281.533 287.496 279.874 289.08C279.206 289.677 278.675 290.433 278.325 291.29C278.083 291.9 278.047 292.272 278.01 292.264C277.997 292.175 277.997 292.084 278.01 291.995C278.04 291.724 278.1 291.459 278.186 291.203C278.496 290.288 279.013 289.471 279.691 288.827C280.697 287.91 281.822 287.158 283.03 286.593C284.366 285.92 285.849 285.215 287.434 284.518C290.576 283.132 293.483 282.047 295.611 281.35C296.668 280.986 297.534 280.725 298.136 280.558C298.445 280.459 298.762 280.395 299.083 280.368Z" fill="#E0E0E0"/>
<path d="M305.983 262.057C305.908 262.165 305.822 262.264 305.726 262.35L304.992 263.142L302.107 265.97L292.506 275.196C288.756 278.792 285.519 282.237 283.273 284.827C282.15 286.118 281.261 287.203 280.66 287.94L279.962 288.795C279.887 288.903 279.798 288.999 279.698 289.08C279.758 288.963 279.826 288.852 279.904 288.748C280.05 288.542 280.263 288.233 280.557 287.845C281.129 287.053 281.988 285.968 283.089 284.677C285.988 281.259 289.053 278.01 292.271 274.943C296.03 271.355 299.457 268.124 301.946 265.803L304.882 263.063L305.696 262.334C305.781 262.23 305.877 262.137 305.983 262.057Z" fill="#E0E0E0"/>
<path d="M288.418 278.847C288.323 278.8 289.108 276.851 289.886 274.38C290.664 271.909 291.046 269.834 291.141 269.85C291.062 271.443 290.75 273.012 290.216 274.499C289.879 275.577 289.489 276.634 289.049 277.667C288.891 278.091 288.679 278.488 288.418 278.847Z" fill="#E0E0E0"/>
<path d="M278.061 294.577C277.833 294.354 277.629 294.104 277.452 293.832L275.984 291.781C274.743 290.046 273.048 287.654 271.096 285.033C269.143 282.411 267.426 280.067 266.119 278.364C265.517 277.572 265.003 276.883 264.607 276.345C264.406 276.103 264.231 275.837 264.086 275.553C264.313 275.756 264.521 275.981 264.71 276.226C265.091 276.677 265.642 277.343 266.31 278.174C267.638 279.83 269.444 282.134 271.374 284.78C273.305 287.425 274.986 289.825 276.182 291.599C276.777 292.486 277.254 293.183 277.577 293.721C277.761 293.991 277.923 294.277 278.061 294.577Z" fill="#E0E0E0"/>
<path d="M273.444 288.185C272.512 287.074 271.847 285.734 271.507 284.281C271.145 282.999 270.998 281.658 271.074 280.321H271.228C271.205 280.482 271.155 280.638 271.081 280.78C271.081 280.78 271.081 280.606 271.081 280.297H271.235C271.309 281.593 271.516 282.876 271.852 284.122C272.289 285.517 272.821 286.875 273.444 288.185Z" fill="#E0E0E0"/>
<path d="M267.484 280.099C267.071 279.753 266.617 279.468 266.134 279.251C264.921 278.86 263.645 278.749 262.39 278.926C261.118 279.032 259.856 279.252 258.617 279.584C258.109 279.762 257.589 279.897 257.061 279.988C257.519 279.694 258.014 279.473 258.529 279.33C259.767 278.91 261.045 278.644 262.339 278.538C263.643 278.349 264.97 278.504 266.207 278.99C266.741 279.184 267.194 279.577 267.484 280.099Z" fill="#E0E0E0"/>
<path d="M266.075 278.135C266.075 278.198 265.29 277.794 264.005 277.343C260.656 276.101 257.067 275.807 253.582 276.487C252.254 276.741 251.446 277.01 251.424 276.947C251.596 276.835 251.781 276.75 251.975 276.693C252.486 276.501 253.008 276.345 253.538 276.226C257.057 275.393 260.724 275.693 264.086 277.089C264.59 277.297 265.08 277.54 265.554 277.818C265.742 277.893 265.918 278 266.075 278.135Z" fill="#E0E0E0"/>
<path d="M278.01 269.85C277.402 268 276.899 266.112 276.505 264.195C276.004 262.309 275.612 260.392 275.331 258.453C275.947 260.301 276.452 262.19 276.843 264.108C277.344 265.994 277.733 267.912 278.01 269.85Z" fill="#E0E0E0"/>
<path d="M278.105 269.85C277.624 268.682 277.067 267.552 276.439 266.468C275.729 265.445 274.9 264.524 273.973 263.728C274.327 263.817 274.654 264 274.927 264.259C275.625 264.806 276.231 265.478 276.718 266.247C277.47 267.293 277.949 268.537 278.105 269.85Z" fill="#E0E0E0"/>
<path d="M278.039 344.33C277.995 344.33 277.929 343.704 277.657 342.603C277.255 341.052 276.717 339.546 276.05 338.105C273.727 333.402 270.856 329.04 267.506 325.124C265.598 322.748 263.748 320.554 262.185 318.432C260.773 316.568 259.499 314.587 258.375 312.507C257.621 311.103 256.977 309.633 256.452 308.112C256.276 307.565 256.144 307.146 256.071 306.853C256.022 306.707 255.99 306.555 255.975 306.401C255.975 306.401 256.181 306.995 256.577 308.056C257.146 309.548 257.818 310.991 258.588 312.373C259.737 314.419 261.023 316.372 262.434 318.218C264.005 320.317 265.862 322.518 267.77 324.878C271.624 329.551 274.648 334.256 276.27 337.986C276.926 339.45 277.435 340.984 277.79 342.564C277.9 343.134 277.973 343.57 278.002 343.871C278.023 344.023 278.035 344.176 278.039 344.33Z" fill="#E0E0E0"/>
<path d="M297.057 321.156C297.057 321.156 296.697 321.378 296.059 321.758C295.157 322.304 294.293 322.921 293.475 323.603C292.264 324.617 291.127 325.732 290.077 326.938C288.888 328.3 287.655 329.876 286.407 331.571C283.897 334.961 281.555 337.962 280.153 340.354C279.419 341.542 278.92 342.548 278.582 343.245C278.424 343.619 278.243 343.982 278.039 344.33C278.039 344.33 278.039 344.219 278.127 344.029C278.215 343.839 278.303 343.538 278.465 343.181C278.899 342.161 279.389 341.169 279.933 340.211C281.833 337.124 283.899 334.159 286.121 331.333C287.376 329.638 288.616 328.062 289.827 326.7C290.9 325.494 292.064 324.387 293.306 323.389C294.149 322.72 295.043 322.13 295.978 321.623C296.308 321.449 296.58 321.338 296.756 321.251C296.932 321.164 297.05 321.14 297.057 321.156Z" fill="#E0E0E0"/>
<path d="M297.424 328.68C296.73 328.846 296.026 328.957 295.318 329.013C293.626 329.195 291.955 329.551 290.326 330.074C288.711 330.637 287.196 331.494 285.849 332.608C284.821 333.464 284.33 334.192 284.286 334.137C284.241 334.081 284.366 333.931 284.594 333.614C284.921 333.17 285.29 332.764 285.695 332.402C287.027 331.2 288.562 330.288 290.216 329.718C291.869 329.186 293.574 328.859 295.296 328.743C296.002 328.651 296.714 328.63 297.424 328.68Z" fill="#E0E0E0"/>
<path d="M284.902 333.297C284.792 333.234 285.739 331.666 286.473 329.567C287.207 327.468 287.324 325.607 287.449 325.607C287.512 326.011 287.512 326.423 287.449 326.827C287.342 327.807 287.135 328.771 286.833 329.702C286.513 330.623 286.102 331.505 285.607 332.331C285.424 332.694 285.186 333.021 284.902 333.297Z" fill="#E0E0E0"/>
<path d="M303.215 300.96C303.108 301.034 302.995 301.097 302.878 301.15L301.887 301.633C301.454 301.839 300.925 302.093 300.331 302.425C299.736 302.758 299.046 303.098 298.32 303.574L297.167 304.278C296.771 304.524 296.375 304.817 295.956 305.07C295.112 305.625 294.261 306.306 293.358 307.003C289.469 310.133 286.08 313.926 283.324 318.233C282.707 319.231 282.106 320.174 281.614 321.101C281.372 321.568 281.107 322.003 280.88 322.439L280.263 323.706C279.86 324.498 279.566 325.29 279.28 325.916C278.993 326.542 278.766 327.143 278.597 327.611L278.186 328.68C278.144 328.81 278.09 328.934 278.025 329.052C278.039 328.916 278.071 328.783 278.12 328.656L278.48 327.547C278.634 327.064 278.832 326.478 279.111 325.813C279.39 325.148 279.654 324.379 280.058 323.564L280.652 322.289C280.865 321.837 281.115 321.401 281.386 320.926C281.863 319.984 282.458 319.033 283.074 318.02C285.822 313.673 289.235 309.861 293.167 306.749C294.084 306.053 294.943 305.371 295.802 304.825C296.228 304.548 296.631 304.263 297.035 304.033L298.202 303.344C298.936 302.885 299.67 302.552 300.25 302.251C300.766 301.973 301.295 301.725 301.835 301.506L302.848 301.087C302.965 301.027 303.088 300.985 303.215 300.96Z" fill="#E0E0E0"/>
<path d="M288.161 311.85C288.301 311.324 288.592 310.858 288.99 310.519C289.915 309.648 291.095 309.157 292.323 309.133C293.526 309.13 294.719 309.383 295.831 309.878C296.305 310.034 296.753 310.269 297.16 310.575C296.679 310.467 296.208 310.316 295.751 310.123C294.651 309.722 293.498 309.516 292.337 309.513C291.184 309.536 290.067 309.958 289.152 310.717C288.797 311.068 288.465 311.447 288.161 311.85Z" fill="#E0E0E0"/>
<path d="M285.915 314.353C286.36 313.292 286.678 312.174 286.862 311.026C286.925 309.865 286.854 308.7 286.649 307.557C286.85 307.84 286.983 308.172 287.038 308.524C287.239 309.355 287.296 310.22 287.207 311.074C287.107 311.927 286.857 312.752 286.473 313.505C286.209 314.083 285.944 314.377 285.915 314.353Z" fill="#E0E0E0"/>
<path d="M261.399 348.052C261.921 357.984 264.695 368.082 268.96 378.299H287.515C291.581 368.185 294.165 358.103 294.62 348.052H261.399Z" fill="#E0E0E0"/>
<path d="M291.611 364.122C291.611 364.225 285.504 364.312 277.973 364.312C270.442 364.312 264.328 364.225 264.328 364.122C264.328 364.019 270.435 363.94 277.973 363.94C285.511 363.94 291.611 364.019 291.611 364.122Z" fill="#FAFAFA"/>
<path d="M291.2 367.726C291.2 367.829 285.475 367.908 278.413 367.908C271.352 367.908 265.62 367.829 265.62 367.726C265.62 367.623 271.345 367.536 278.413 367.536C285.482 367.536 291.2 367.615 291.2 367.726Z" fill="#FAFAFA"/>
<path d="M269.261 354.578C269.495 357.646 269.495 360.73 269.261 363.797C269.026 360.73 269.026 357.646 269.261 354.578Z" fill="#FAFAFA"/>
<path d="M279.199 354.578C279.434 357.755 279.434 360.946 279.199 364.122C278.964 360.946 278.964 357.755 279.199 354.578Z" fill="#FAFAFA"/>
<path d="M288.528 354.491C288.763 357.733 288.763 360.991 288.528 364.233C288.303 360.99 288.303 357.734 288.528 354.491Z" fill="#FAFAFA"/>
<path d="M294.033 354.579C294.033 354.681 286.869 354.761 278.032 354.761C269.194 354.761 262.031 354.681 262.031 354.579C262.031 354.476 269.194 354.388 278.032 354.388C286.869 354.388 294.033 354.468 294.033 354.579Z" fill="#FAFAFA"/>
<path d="M141.662 112.725C145.183 109.27 149.118 106.34 153.362 104.013L153.487 89.7574L174.817 84.7678L180.395 97.6774C185.156 97.9096 189.866 98.8286 194.4 100.41L203.817 90.4385L222.167 103.19L217.653 116.567C220.856 120.366 223.571 124.612 225.727 129.191L238.939 129.326L243.563 152.341L231.606 158.36C231.382 163.49 230.523 168.564 229.052 173.448L238.286 183.609L226.476 203.409L214.078 198.539C210.554 201.99 206.619 204.92 202.378 207.251L202.254 221.507L180.916 226.512L175.345 213.61C170.585 213.375 165.876 212.456 161.341 210.878L151.938 220.849L133.588 208.098L138.102 194.729C134.903 190.927 132.188 186.681 130.028 182.105L116.816 181.97L112.192 158.947L124.156 152.927C124.358 147.79 125.197 142.705 126.652 137.808L117.44 127.663L129.257 107.863L141.662 112.725ZM153.575 138.751C150.479 143.939 148.879 150.001 148.977 156.17C149.075 162.339 150.866 168.339 154.123 173.41C157.381 178.481 161.959 182.396 167.279 184.659C172.599 186.923 178.421 187.433 184.01 186.126C189.598 184.819 194.702 181.753 198.676 177.316C202.65 172.879 205.315 167.27 206.334 161.199C207.354 155.128 206.682 148.866 204.403 143.207C202.125 137.548 198.342 132.745 193.534 129.405C190.34 127.181 186.771 125.659 183.031 124.926C179.292 124.192 175.455 124.261 171.74 125.129C168.025 125.997 164.505 127.647 161.382 129.984C158.259 132.322 155.593 135.301 153.538 138.751H153.575Z" fill="#E0E0E0"/>
<path d="M153.538 138.751L153.795 138.331C153.986 138.046 154.243 137.634 154.588 137.111L155.168 136.216C155.402 135.891 155.681 135.575 155.968 135.21L156.907 134.046C157.276 133.615 157.666 133.206 158.074 132.818C160.097 130.723 162.407 128.976 164.922 127.639C168.247 125.837 171.864 124.745 175.573 124.423L177.136 124.304C177.665 124.304 178.193 124.304 178.736 124.304C179.279 124.304 179.823 124.304 180.373 124.384L182.032 124.597L182.876 124.716L183.713 124.914L185.408 125.326C185.981 125.485 186.531 125.714 187.104 125.904C187.681 126.088 188.247 126.311 188.799 126.57C189.945 127.068 191.056 127.653 192.124 128.32C192.66 128.66 193.225 128.977 193.754 129.357L195.325 130.561C195.582 130.775 195.86 130.957 196.11 131.187L196.844 131.884C197.328 132.359 197.842 132.811 198.312 133.317C199.262 134.348 200.147 135.446 200.962 136.604C201.803 137.792 202.571 139.038 203.259 140.335C203.589 140.992 203.876 141.689 204.199 142.37C204.346 142.718 204.522 143.051 204.646 143.415L205.021 144.493C205.534 145.952 205.956 147.447 206.283 148.967C206.572 150.536 206.764 152.123 206.856 153.719L206.937 154.923V156.135V157.347C206.935 157.755 206.908 158.162 206.856 158.566C206.76 159.358 206.665 160.15 206.577 161.006L206.07 163.421C204.525 169.985 201.035 175.826 196.132 180.053L194.297 181.55L192.308 182.865L191.823 183.182L191.31 183.451L190.297 183.982L189.284 184.512L188.242 184.932C186.863 185.496 185.45 185.959 184.014 186.318C182.596 186.624 181.162 186.831 179.72 186.936L178.648 187.015C178.296 187.015 177.914 187.015 177.584 187.015C176.85 187.015 176.175 187.015 175.477 186.936C174.101 186.799 172.736 186.564 171.389 186.231C170.074 185.906 168.779 185.491 167.513 184.987C166.889 184.726 166.295 184.409 165.693 184.124L164.798 183.697C164.504 183.546 164.232 183.348 163.946 183.182L162.287 182.16C161.744 181.796 161.252 181.368 160.739 180.98C159.733 180.208 158.779 179.361 157.883 178.446C157.437 178.009 157.015 177.543 156.621 177.052C156.224 176.569 155.799 176.125 155.432 175.626L154.382 174.129L153.868 173.393L153.421 172.601C153.127 172.086 152.841 171.571 152.547 171.064C152.254 170.557 152.055 170.003 151.813 169.48C151.571 168.957 151.336 168.443 151.123 167.896C150.91 167.35 150.764 166.835 150.58 166.312C149.316 162.536 148.74 158.531 148.884 154.519C148.974 151.495 149.491 148.504 150.419 145.649C150.617 145.071 150.741 144.493 150.969 143.994L151.564 142.592C151.754 142.156 151.909 141.752 152.085 141.396C152.261 141.039 152.444 140.731 152.599 140.445L153.333 139.17C153.494 138.885 153.582 138.743 153.582 138.743C153.582 138.743 153.516 138.901 153.369 139.194C153.222 139.487 152.988 139.931 152.701 140.493L152.202 141.443C152.033 141.8 151.887 142.235 151.703 142.647L151.131 144.049C150.926 144.591 150.748 145.143 150.595 145.704C149.697 148.549 149.202 151.523 149.127 154.527C149.005 158.506 149.596 162.472 150.866 166.209L151.409 167.793C151.622 168.308 151.865 168.815 152.099 169.377C152.334 169.939 152.54 170.438 152.833 170.961C153.127 171.484 153.406 171.975 153.7 172.482L154.14 173.274L154.654 174.002C154.999 174.493 155.388 174.985 155.696 175.483C156.004 175.982 156.481 176.41 156.878 176.885C157.267 177.369 157.684 177.827 158.126 178.255C159.015 179.159 159.962 179.995 160.959 180.758C161.465 181.146 161.957 181.55 162.493 181.922L164.144 182.944C164.423 183.11 164.695 183.301 164.988 183.451L165.884 183.744C166.478 184.021 167.066 184.338 167.675 184.591C168.927 185.085 170.207 185.492 171.506 185.811C172.838 186.143 174.189 186.373 175.551 186.5C176.241 186.564 176.938 186.548 177.635 186.579C177.98 186.579 178.333 186.579 178.685 186.579L179.742 186.5C181.164 186.398 182.579 186.194 183.977 185.89C185.394 185.535 186.787 185.074 188.146 184.512L189.181 184.093L190.179 183.578L191.185 183.047L191.684 182.786L192.161 182.477L194.077 181.202L195.882 179.729C200.731 175.552 204.178 169.777 205.696 163.287C205.865 162.495 206.026 161.703 206.195 160.911C206.364 160.119 206.379 159.327 206.467 158.535C206.523 158.139 206.55 157.739 206.548 157.339V156.135V154.939L206.467 153.751C206.375 152.184 206.186 150.626 205.902 149.086C205.58 147.587 205.166 146.113 204.661 144.675L204.294 143.605C204.177 143.249 204.001 142.916 203.854 142.576C203.538 141.903 203.259 141.214 202.929 140.564C202.254 139.282 201.499 138.052 200.668 136.881C199.864 135.733 198.991 134.643 198.055 133.618C197.585 133.119 197.079 132.676 196.587 132.209L195.853 131.512C195.604 131.29 195.332 131.1 195.075 130.894C194.561 130.49 194.04 130.102 193.534 129.69C193.027 129.278 192.447 129.009 191.919 128.668C190.863 128.002 189.764 127.42 188.631 126.926C188.086 126.667 187.527 126.445 186.957 126.261C186.392 126.071 185.849 125.841 185.284 125.683L183.61 125.279L182.781 125.073L181.944 124.954L180.3 124.732C179.764 124.645 179.213 124.677 178.685 124.645C178.156 124.613 177.621 124.605 177.099 124.645L175.551 124.756C171.872 125.058 168.281 126.12 164.974 127.884C162.467 129.197 160.16 130.914 158.133 132.977C157.723 133.356 157.331 133.758 156.958 134.181L156.012 135.329C155.718 135.685 155.432 136.002 155.204 136.319L154.602 137.198L153.788 138.394C153.71 138.517 153.626 138.636 153.538 138.751Z" fill="#263238"/>
<path d="M141.662 112.725L140.869 112.424L138.506 111.514L129.184 107.918H129.257L117.469 127.718V127.591L126.718 137.737L126.762 137.784V137.856C125.312 142.73 124.468 147.79 124.251 152.904V152.991H124.185L112.228 159.018L112.302 158.851C113.77 166.098 115.311 173.796 116.941 181.875L116.794 181.74L130.006 181.867H130.101L130.145 181.962C132.307 186.525 135.022 190.757 138.219 194.547L138.285 194.626V194.729L133.779 208.098L133.713 207.884L152.063 220.627H151.842L161.252 210.656L161.333 210.569H161.436C165.952 212.14 170.642 213.056 175.382 213.294H175.492L175.536 213.404C177.283 217.452 179.206 221.855 181.114 226.314L180.909 226.195L202.239 221.206L202.092 221.404C202.092 216.913 202.173 212.058 202.217 207.148V207.029L202.32 206.973C206.542 204.638 210.459 201.708 213.968 198.261L214.056 198.182H214.166L226.556 203.053L226.336 203.132L238.154 183.332V183.586L228.92 173.424L228.839 173.337V173.218C230.303 168.347 231.155 163.286 231.371 158.17V158.052L231.474 157.996L243.438 151.985L243.336 152.207C241.76 144.345 240.221 136.67 238.719 129.183L238.888 129.334L225.676 129.191H225.565L225.521 129.088C223.363 124.523 220.647 120.291 217.447 116.503L217.381 116.424V116.321L221.895 102.952L221.961 103.15L203.611 90.391H203.795L194.37 100.354L194.312 100.418H194.231C189.716 98.8379 185.026 97.9163 180.285 97.6774H180.212V97.6061L174.692 84.8074L174.817 84.8707L153.472 89.8287L153.538 89.7415C153.479 95.4439 153.435 100.109 153.391 103.998V104.037C150.198 105.791 147.174 107.882 144.363 110.278C143.438 111.07 142.77 111.696 142.322 112.108C141.875 112.519 141.662 112.725 141.662 112.725C141.662 112.725 142.484 111.838 144.326 110.231C147.12 107.793 150.138 105.67 153.332 103.895V103.958C153.332 100.085 153.399 95.4202 153.435 89.7019V89.6307H153.501L174.831 84.6094H174.919V84.6965C176.652 88.6565 178.479 92.9016 180.513 97.5903L180.402 97.519C185.175 97.7477 189.897 98.664 194.444 100.243H194.304L203.678 90.288L203.758 90.2009L203.861 90.2643L222.211 103.008L222.321 103.079L222.277 103.213C220.809 107.554 219.341 111.997 217.77 116.582L217.734 116.4C220.957 120.215 223.695 124.476 225.874 129.072L225.72 128.969L238.932 129.104H239.071V129.254C240.578 136.736 242.122 144.408 243.703 152.27V152.428L243.57 152.492L231.614 158.511L231.716 158.337C231.502 163.492 230.648 168.593 229.177 173.503L229.133 173.298L238.374 183.459L238.476 183.57L238.396 183.712L226.578 203.512L226.498 203.647L226.358 203.592L213.961 198.721L214.159 198.681C210.623 202.154 206.674 205.103 202.415 207.449L202.518 207.266C202.474 212.153 202.43 217.008 202.393 221.522V221.681L202.239 221.72L180.909 226.702L180.762 226.742L180.696 226.591L175.125 213.69L175.279 213.8C170.504 213.564 165.779 212.64 161.23 211.052L161.414 211.005L152.048 220.968L151.945 221.071L151.828 220.992L133.478 208.233L133.36 208.153L133.404 208.011C134.982 203.362 136.524 198.784 137.926 194.642V194.824C134.71 191.008 131.98 186.747 129.808 182.152L129.947 182.239L116.735 182.097H116.618V181.97C115.003 173.892 113.462 166.193 112.008 158.946V158.836L112.104 158.78L124.068 152.777L124.002 152.896C124.225 147.767 125.079 142.694 126.541 137.808V137.927L117.315 127.758L117.256 127.702L117.3 127.631L129.147 107.831V107.783H129.191L138.403 111.442L140.766 112.385L141.662 112.725Z" fill="#263238"/>
<path d="M239.592 232.579L197.094 261.883H336.414V232.579H239.592Z" fill="#455A64"/>
<path d="M318.174 214.481V217.428V279.972L357.737 247.223L318.174 214.481Z" fill="#455A64"/>
<path d="M68.0785 159.438C72.4384 219.099 118.827 266.199 175.242 266.199V236.895C153.944 236.876 133.523 227.741 118.461 211.494C103.398 195.247 94.9241 173.215 94.8988 150.234C94.8988 150.234 96.1099 135.107 96.954 130.553L70.2144 125.136C69.2382 130.308 67.6895 154.179 68.0785 159.438Z" fill="#2257E0"/>
<path d="M113.631 123.299L60.2467 107.498L77.5177 152.46L113.631 123.299Z" fill="#455A64"/>
<path d="M100.022 122.182C105.696 105.522 115.966 91.1385 129.448 80.9696C142.93 70.8006 158.977 65.3348 175.426 65.3084V36.0044C128.956 36.0044 89.2838 67.9854 74.3175 112.622L100.022 122.182Z" fill="#455A64"/>
<path d="M190.752 86.7953L155.388 45.049L200.514 17.4716L190.752 86.7953Z" fill="#E0E0E0"/>
<path d="M239.548 93.2184C232.008 83.9058 222.709 76.4417 212.274 71.3273C201.84 66.2128 190.512 63.5665 179.052 63.566V34.262C194.385 34.2634 209.541 37.8033 223.502 44.6442C237.463 51.4851 249.906 61.4688 259.997 73.9253L239.548 93.2184Z" fill="#E0E0E0"/>
<path d="M274.362 203.663L249.773 191.221C254.779 179.697 259.374 163.081 259.374 150.235C259.412 136.649 256.461 123.248 250.764 111.134C249.773 109.019 246.176 101.994 245.185 100.228L268.424 85.053C269.848 87.6032 273.782 95.349 274.986 97.8913C282.624 114.105 286.581 132.046 286.532 150.235C286.532 167.413 281.078 188.211 274.362 203.663Z" fill="#2257E0"/>
<path d="M235.621 113.597L281.871 80.7603L239.174 65.0708L235.621 113.597Z" fill="#2257E0"/>
<path d="M179.052 266.199H92.3885V236.895H179.052C191.413 236.943 203.616 233.892 214.698 227.982C225.78 222.072 235.438 213.465 242.91 202.839L264.482 220.643C254.484 234.856 241.563 246.37 226.738 254.275C211.913 262.181 195.589 266.263 179.052 266.199Z" fill="#2257E0"/>
<path d="M229.177 195.489L275.257 228.587L271.954 180.053L229.177 195.489Z" fill="#2257E0"/>
<g opacity="0.3">
<path d="M275.25 228.587L271.947 180.053L229.169 195.489L241.647 204.479C234.15 214.631 224.62 222.821 213.772 228.435C202.924 234.049 191.039 236.941 179.008 236.895H92.3885V266.199H179.052C195.561 266.261 211.858 262.191 226.662 254.309C241.467 246.426 254.375 234.946 264.372 220.77L275.25 228.587Z" fill="black"/>
</g>
<path d="M85.1733 218.798V284.296L124.229 251.547L85.1733 218.798Z" fill="#E0E0E0"/>
<path d="M92.3959 236.895H11.3182V266.199H92.3959V236.895Z" fill="#E0E0E0"/>
<path d="M169.37 355.869L167.286 379.772L155.307 378.813L157.355 354.855L169.37 355.869Z" fill="#2257E0"/>
<path d="M161.48 378.402C161.385 378.402 161.818 373.151 162.464 366.704C163.109 360.257 163.697 355.038 163.799 355.054C163.902 355.069 163.462 360.297 162.823 366.743C162.185 373.19 161.546 378.41 161.48 378.402Z" fill="#263238"/>
<path d="M167.425 378.125L155.454 377.127L155.307 378.814L167.286 379.772L167.425 378.125Z" fill="#263238"/>
<path d="M155.96 371.155C156.059 370.966 156.189 370.797 156.342 370.656C156.703 370.245 157.099 369.871 157.524 369.539C158.153 369.037 158.845 368.635 159.579 368.343C160.488 367.981 161.462 367.846 162.427 367.947C163.302 368.036 164.15 368.32 164.919 368.78C165.687 369.241 166.358 369.869 166.89 370.624C167.199 371.083 167.447 371.587 167.624 372.121C167.703 372.311 167.748 372.515 167.756 372.723C167.445 372.049 167.082 371.405 166.669 370.799C165.597 369.397 164.053 368.511 162.375 368.335C160.697 368.215 159.03 368.722 157.656 369.769C156.562 370.553 156.012 371.21 155.96 371.155Z" fill="#263238"/>
<g opacity="0.3">
<path d="M156.775 361.675L156.547 364.312L168.556 365.215L168.732 363.235L156.775 361.675Z" fill="black"/>
</g>
<path d="M217.528 354.198L218.967 378.156L206.995 379.257L205.513 355.252L217.528 354.198Z" fill="#2257E0"/>
<path d="M212.999 377.784C212.897 377.784 212.566 372.541 212.265 366.07C211.965 359.6 211.781 354.341 211.876 354.333C211.972 354.325 212.317 359.568 212.61 366.047C212.904 372.525 213.102 377.784 212.999 377.784Z" fill="#263238"/>
<path d="M218.864 376.509L206.893 377.562L206.995 379.257L218.967 378.156L218.864 376.509Z" fill="#263238"/>
<path d="M206.526 371.583C206.526 371.583 206.599 371.369 206.797 371.036C207.093 370.569 207.429 370.134 207.803 369.737C208.349 369.133 208.975 368.618 209.66 368.209C210.851 367.482 212.228 367.187 213.586 367.368C214.945 367.549 216.214 368.196 217.205 369.215C217.582 369.613 217.906 370.066 218.167 370.561C218.271 370.735 218.345 370.929 218.387 371.131C217.979 370.519 217.525 369.944 217.029 369.413C215.76 368.219 214.107 367.611 212.427 367.718C210.753 367.885 209.182 368.668 207.979 369.935C207.025 370.886 206.577 371.622 206.526 371.583Z" fill="#263238"/>
<g opacity="0.3">
<path d="M205.931 362.086L206.1 364.724L218.086 363.567L217.969 361.58L205.931 362.086Z" fill="black"/>
</g>
<path d="M183.632 142.378L167.146 145.031L166.368 129.809C166.368 129.809 165.179 129.753 164.166 123.259C163.153 116.765 161.164 105.756 161.164 105.756C164.482 103.541 168.273 102.289 172.171 102.121C176.069 101.953 179.941 102.875 183.412 104.797L184.447 105.376L183.632 142.378Z" fill="#FFBE9D"/>
<path d="M183.654 113.723C183.757 113.66 187.75 111.656 188.278 116.099C188.807 120.542 184.395 120.257 184.373 120.123C184.351 119.988 183.654 113.723 183.654 113.723Z" fill="#FFBE9D"/>
<path d="M163.454 116.305C163.337 116.305 159.373 115.87 160.173 120.265C160.974 124.661 165.084 122.887 165.069 122.752C165.055 122.617 163.454 116.305 163.454 116.305Z" fill="#FFBE9D"/>
<path d="M184.968 112.987C184.887 116.828 185.306 118.768 185.093 121.358C184.748 125.461 183.324 128.811 180.212 131.377C177.099 133.943 172.483 134.711 169.15 132.541C166.838 131.036 165.084 129.191 164.365 126.443C163.645 123.695 162.596 118.792 162.163 115.973C161.355 110.88 160.306 106.128 160.306 106.128L173.841 101.067L182.509 104.544L184.968 112.987Z" fill="#263238"/>
<path d="M173.495 134.854C175.168 135.07 176.852 134.576 178.193 133.476C178.134 133.365 177.158 133.888 175.874 134.268C174.589 134.648 173.495 134.735 173.495 134.854Z" fill="#263238"/>
<path d="M185.247 119.442C185.078 115.553 184.689 111.133 184.66 107.007C184.66 105.423 184.836 103.19 184.476 101.685C184.202 100.152 183.665 98.6876 182.891 97.3685C182.334 96.5701 181.618 95.9166 180.796 95.4561C179.974 94.9956 179.067 94.7397 178.142 94.7074C177.206 94.6859 176.277 94.8878 175.422 95.2985C174.567 95.7092 173.806 96.3187 173.195 97.0834C172.539 96.3873 171.711 95.9097 170.81 95.7075C169.91 95.5052 168.974 95.587 168.115 95.9429C167.272 96.3127 166.548 96.9444 166.038 97.7578C165.527 98.5713 165.251 99.5301 165.245 100.513C164.657 100.121 163.971 99.9335 163.28 99.976C162.59 100.019 161.928 100.289 161.384 100.75C160.866 101.223 160.504 101.865 160.354 102.58C160.204 103.295 160.275 104.043 160.555 104.71C160.08 104.878 159.65 105.166 159.3 105.551C158.95 105.935 158.691 106.405 158.544 106.92C158.414 107.44 158.41 107.987 158.53 108.509C158.651 109.032 158.893 109.512 159.234 109.906C160.034 110.832 161.282 111.197 162.17 112.06C162.653 112.559 162.989 113.202 163.134 113.907C163.279 114.612 163.227 115.347 162.985 116.02" fill="#263238"/>
<path d="M163.821 109.019C163.869 109.164 163.944 109.296 164.042 109.407C164.303 109.743 164.628 110.013 164.996 110.199C165.584 110.513 166.251 110.613 166.897 110.484C167.316 110.398 167.714 110.222 168.07 109.968C168.425 109.714 168.73 109.386 168.967 109.003H168.658C168.843 109.497 169.143 109.932 169.529 110.264C169.915 110.597 170.373 110.818 170.86 110.904C171.408 111.02 171.974 110.992 172.511 110.824C173.047 110.656 173.538 110.352 173.943 109.938C174.668 109.217 175.159 108.265 175.345 107.221L175.015 107.316C175.456 107.799 175.996 108.163 176.591 108.38C177.186 108.598 177.82 108.662 178.443 108.567C178.933 108.494 179.405 108.316 179.83 108.044C180.256 107.772 180.628 107.412 180.924 106.983C181.32 106.443 181.573 105.797 181.658 105.114C181.709 104.877 181.709 104.631 181.658 104.394C181.658 104.394 181.658 104.647 181.555 105.091C181.428 105.729 181.164 106.326 180.784 106.833C180.204 107.609 179.367 108.112 178.45 108.235C177.884 108.308 177.311 108.24 176.774 108.035C176.236 107.831 175.75 107.495 175.353 107.055L175.096 106.762L175.022 107.158C174.84 108.115 174.386 108.987 173.723 109.652C173.365 110.021 172.93 110.292 172.455 110.442C171.98 110.593 171.479 110.618 170.993 110.516C170.57 110.451 170.169 110.271 169.828 109.995C169.486 109.718 169.215 109.352 169.04 108.932L168.923 108.567L168.732 108.9C168.313 109.603 167.653 110.098 166.897 110.278C166.308 110.413 165.695 110.347 165.143 110.088C164.638 109.834 164.188 109.47 163.821 109.019Z" fill="#455A64"/>
<path d="M163.586 107.245C163.579 106.65 163.7 106.062 163.939 105.526C164.219 104.944 164.682 104.489 165.245 104.243C165.595 104.086 165.972 104.009 166.351 104.017C166.73 104.025 167.103 104.118 167.447 104.29L167.829 104.488L167.726 104.061C167.628 103.633 167.61 103.189 167.675 102.754C167.747 102.276 167.909 101.819 168.15 101.411C168.391 101.002 168.706 100.651 169.077 100.378C169.713 99.9359 170.466 99.7327 171.22 99.7999C171.921 99.8882 172.595 100.142 173.195 100.544C173.195 100.544 173.077 100.354 172.769 100.117C172.316 99.7824 171.795 99.573 171.249 99.5068C170.424 99.3963 169.588 99.5918 168.879 100.061C168.457 100.356 168.097 100.743 167.823 101.197C167.548 101.652 167.365 102.163 167.286 102.699C167.212 103.187 167.234 103.686 167.352 104.164L167.623 103.926C167.231 103.738 166.806 103.641 166.376 103.641C165.946 103.641 165.521 103.738 165.128 103.926C164.49 104.209 163.974 104.741 163.682 105.415C163.501 105.839 163.421 106.304 163.447 106.769C163.498 107.086 163.564 107.253 163.586 107.245Z" fill="#455A64"/>
<path d="M172.49 105.827C172.541 105.827 172.439 105.574 172.409 105.209C172.378 104.733 172.459 104.257 172.644 103.823C172.857 103.316 173.121 102.786 173.275 102.501C173.324 102.43 173.391 102.376 173.468 102.346C173.545 102.316 173.629 102.312 173.708 102.334C173.708 102.334 173.708 102.231 173.584 102.168C173.495 102.135 173.399 102.131 173.308 102.155C173.217 102.178 173.135 102.23 173.07 102.303C172.916 102.484 172.78 102.683 172.666 102.897C172.516 103.147 172.388 103.412 172.284 103.689C172.066 104.182 172.011 104.741 172.13 105.273C172.248 105.685 172.49 105.859 172.49 105.827Z" fill="#455A64"/>
<path d="M179.911 98.7862C179.955 98.7862 179.867 98.4377 179.529 97.9942C179.325 97.7456 179.075 97.546 178.795 97.4081C178.416 97.2682 178.005 97.271 177.628 97.416C176.973 97.6582 176.428 98.1591 176.101 98.8179C175.852 99.2772 175.749 99.6099 175.793 99.6099C175.837 99.6099 176.035 99.3723 176.336 98.9683C176.681 98.434 177.171 98.0274 177.738 97.8041C178.018 97.7233 178.313 97.7225 178.593 97.8016C178.874 97.8808 179.131 98.0372 179.338 98.2555C179.683 98.5565 179.83 98.8179 179.911 98.7862Z" fill="#455A64"/>
<path d="M180.564 118.008C181.126 117.075 181.482 116.016 181.606 114.911C181.859 113.84 181.872 112.718 181.643 111.64C181.526 111.64 181.518 113.098 181.217 114.808C180.916 116.519 180.469 118.008 180.564 118.008Z" fill="#455A64"/>
<path d="M178.868 119.434C179.259 118.766 179.509 118.015 179.602 117.232C179.818 116.482 179.879 115.689 179.779 114.911C179.497 115.627 179.309 116.381 179.221 117.153C179 117.89 178.882 118.659 178.868 119.434Z" fill="#455A64"/>
<path d="M167.176 121.786C167.173 123.146 167.544 124.477 168.24 125.611C168.837 126.827 169.744 127.833 170.853 128.51C170.022 127.542 169.263 126.504 168.585 125.405C168.024 124.243 167.553 123.032 167.176 121.786Z" fill="#455A64"/>
<path d="M164.812 118.863C164.6 120.063 164.692 121.303 165.08 122.45C165.467 123.598 166.136 124.611 167.014 125.382C166.409 124.408 165.888 123.377 165.458 122.301C165.148 121.178 164.932 120.028 164.812 118.863Z" fill="#455A64"/>
<path d="M166.427 141.95L166.574 138.133L183.808 134.204L184.417 137.349L166.427 141.95Z" fill="white"/>
<path d="M112.471 188.132C112.471 188.132 111.619 188.607 112.207 189.28C112.794 189.953 120.64 197.461 121.705 198.198C123.06 198.891 124.476 199.435 125.932 199.822L128.002 199.41L129.184 194.04L130.652 191.442L130.278 190.848L131.65 185.09C131.65 185.09 130.461 184.568 129.911 185.494C129.14 186.801 128.076 188.924 128.076 188.924C128.076 188.924 125.918 189.272 125.14 188.266C124.362 187.261 119.789 178.937 119.268 178.762C118.746 178.588 117.873 178.762 118.321 180.117C118.769 181.471 121.69 186.16 121.58 186.453C121.47 186.746 121.022 187.063 120.846 186.833C120.67 186.603 115.972 179.966 115.231 179.847C114.489 179.729 113.88 180.418 114.599 181.693C115.319 182.968 119.121 187.649 118.945 187.95C118.769 188.251 118.269 187.886 118.269 187.886C118.269 187.886 113.931 183 113.322 183.087C112.713 183.174 112.537 183.879 112.882 184.52C113.227 185.162 117.616 189.716 117.697 190.064C117.748 190.302 117.565 191.244 117.205 190.92C116.845 190.595 112.816 187.823 112.471 188.132Z" fill="#FFBE9D"/>
<path d="M156.782 236.808L155.872 300.707L153.861 367.037L170.545 368.28L176.16 300.675L182.568 252.688L183.977 252.593L196.595 302.544L204.456 366.696C205.432 366.403 220.2 365.112 220.2 365.112L209.924 235.327L208.214 224.532L164.291 225.585L156.782 236.808Z" fill="#263238"/>
<path d="M206.166 202.364L204.896 165.409L202.782 139.891H188.381L184.711 136.018L166.236 139.891L164.526 145.435C164.526 145.435 149.692 150.528 148.87 152.08C148.87 152.08 154.074 174.256 156.525 186.659C158.206 195.18 159.975 203.916 159.975 203.916L155.292 244.791C155.102 244.791 183.83 243.429 183.83 243.429L211.575 240.19L206.166 202.364Z" fill="#455A64"/>
<path d="M221.169 128.304C221.169 128.304 216.941 128.66 216.692 128.66C216.442 128.66 212.126 129.096 212.126 129.096C212.204 128.753 212.351 128.432 212.558 128.158C212.765 127.884 213.026 127.663 213.322 127.512C214.328 127.029 216.258 126.276 216.435 125.928C216.611 125.58 217.073 125.009 216.677 124.415C216.28 123.821 208.985 115.83 208.735 115.402C208.485 114.975 208.082 114.159 208.735 114C209.388 113.842 210.203 114.594 210.739 115.078C211.275 115.561 214.122 118.151 214.409 117.992C214.695 117.834 214.46 117.557 214.46 117.557C214.46 117.557 209.638 112.203 209.586 112.013C209.535 111.822 208.97 110.27 210.32 110.531C210.981 110.65 215.987 116.178 216.192 115.957C216.398 115.735 211.987 109.621 212.39 109.161C212.794 108.702 213.242 108.187 214.042 109.161C214.842 110.136 218.284 115.093 218.541 115.149C218.612 115.158 218.683 115.148 218.749 115.12C218.815 115.091 218.873 115.045 218.918 114.986C218.962 114.926 218.992 114.856 219.005 114.78C219.017 114.705 219.012 114.627 218.989 114.555C218.894 114.183 216.846 110.333 216.846 109.898C216.846 109.462 217.242 109.359 217.646 109.304C218.049 109.248 222.343 115.957 222.343 115.957C222.343 115.957 225.661 121.715 226.013 122.38C226.394 123.326 226.713 124.3 226.968 125.294L221.169 128.304Z" fill="#FFBE9D"/>
<path d="M220.112 128.565L222.989 140.556L216.383 143.217L202.188 139.891V162.534L204.199 168.419C204.199 168.419 233.926 152.951 235.9 151.272C239.57 148.104 233.735 137.127 233.735 137.127L228.34 124.597L220.112 128.565Z" fill="#455A64"/>
<path d="M148.863 152.104L145.537 159.287L137.141 189.288L127.76 191.989L125.998 201.239C125.998 201.239 140.678 204.954 143.394 203.679C148.011 201.517 155.725 180.861 155.725 180.861L154.683 163.207L148.863 152.104Z" fill="#455A64"/>
<path d="M232.311 145.459C230.947 144.216 229.472 143.123 227.907 142.196C226.294 141.388 224.609 140.76 222.879 140.319C223.41 140.277 223.943 140.331 224.457 140.477C225.715 140.748 226.933 141.204 228.076 141.831C229.223 142.466 230.284 143.265 231.232 144.207C231.656 144.554 232.021 144.978 232.311 145.459Z" fill="#263238"/>
<path d="M229.514 140.493C228.329 140.277 227.128 140.176 225.925 140.192C224.734 140.345 223.558 140.61 222.409 140.984C223.467 140.283 224.667 139.872 225.906 139.788C227.145 139.703 228.384 139.948 229.514 140.501V140.493Z" fill="#263238"/>
<path d="M188.381 139.891C188.132 140.122 187.862 140.324 187.574 140.493C187.309 140.683 186.979 140.897 186.583 141.127C186.186 141.356 185.739 141.625 185.225 141.919C184.032 142.542 182.807 143.089 181.555 143.558C180.025 144.105 178.469 144.565 176.894 144.936C174.014 145.62 171.084 146.026 168.137 146.148C167.007 146.195 166.097 146.195 165.466 146.148C165.136 146.154 164.807 146.128 164.482 146.069C164.806 146.004 165.136 145.974 165.466 145.981C166.09 145.981 167 145.91 168.123 145.831C171.044 145.625 173.946 145.183 176.806 144.508C178.479 144.104 180.05 143.621 181.459 143.13C182.869 142.639 184.109 142.093 185.129 141.546C185.643 141.309 186.098 141.063 186.495 140.849C186.891 140.635 187.229 140.453 187.515 140.279C187.791 140.12 188.081 139.99 188.381 139.891Z" fill="#263238"/>
<path d="M192.734 203.972C192.392 204.11 192.038 204.208 191.677 204.265C190.987 204.431 189.989 204.621 188.741 204.803C182.21 205.717 175.576 205.177 169.246 203.219C168.035 202.839 167.044 202.491 166.42 202.213C166.073 202.091 165.737 201.938 165.414 201.754C165.773 201.816 166.125 201.92 166.464 202.063C167.132 202.293 168.108 202.594 169.319 202.942C175.637 204.743 182.207 205.28 188.704 204.526C189.952 204.383 190.957 204.241 191.64 204.122C192 204.04 192.366 203.99 192.734 203.972Z" fill="#263238"/>
<path d="M136.619 192.028C136.517 192.028 137.552 187.854 138.924 182.778C140.297 177.701 141.486 173.614 141.589 173.646C141.691 173.678 140.664 177.812 139.291 182.896C137.919 187.981 136.722 192.06 136.619 192.028Z" fill="#263238"/>
<path d="M181.665 215.947C181.775 215.947 181.966 220.556 182.098 226.243C182.23 231.929 182.245 236.539 182.142 236.539C182.039 236.539 181.841 231.937 181.716 226.243C181.592 220.548 181.562 215.955 181.665 215.947Z" fill="#263238"/>
<path d="M192.191 250.985C192.191 251.096 188.476 251.927 183.852 252.846C179.228 253.765 175.47 254.43 175.448 254.295C175.426 254.161 179.162 253.353 183.786 252.434C188.41 251.516 192.168 250.874 192.191 250.985Z" fill="#455A64"/>
<path d="M209.131 299.463C207.516 299.56 205.909 299.782 204.323 300.128C202.773 300.612 201.255 301.21 199.78 301.918C200.13 301.559 200.535 301.267 200.976 301.055C202.009 300.473 203.103 300.028 204.235 299.732C205.367 299.432 206.528 299.283 207.693 299.289C208.178 299.254 208.665 299.313 209.131 299.463Z" fill="#455A64"/>
<path d="M168.945 302.544C168.945 302.663 167.565 302.362 165.877 302.449C164.188 302.536 162.86 302.948 162.831 302.829C164.755 301.872 166.951 301.77 168.945 302.544Z" fill="#455A64"/>
<path d="M159.968 203.94C159.915 203.811 159.875 203.675 159.851 203.536C159.777 203.219 159.682 202.831 159.579 202.356C159.344 201.271 159.021 199.798 158.639 198.008C157.861 194.278 156.812 189.225 155.652 183.641C154.492 178.057 153.45 172.997 152.679 169.266C152.305 167.476 151.997 165.995 151.777 164.91L151.542 163.722C151.504 163.586 151.484 163.445 151.483 163.302C151.544 163.43 151.588 163.566 151.615 163.706C151.696 164.015 151.799 164.403 151.916 164.871C152.173 165.892 152.525 167.373 152.936 169.203C153.773 172.862 154.859 177.915 156.019 183.546C157.179 189.177 158.221 194.254 158.904 197.945C159.241 199.75 159.52 201.231 159.718 202.316C159.799 202.8 159.873 203.196 159.924 203.512C159.958 203.652 159.973 203.796 159.968 203.94Z" fill="#263238"/>
<path d="M204.184 152.69C204.202 152.765 204.215 152.842 204.221 152.919L204.272 153.585C204.324 154.163 204.39 155.026 204.448 156.143C204.595 158.36 204.757 161.584 204.94 165.56C205.307 173.48 205.74 184.504 206.159 196.646C206.225 198.602 206.291 200.534 206.357 202.356C207.825 213.04 209.183 222.497 210.137 229.284C210.592 232.658 210.966 235.382 211.223 237.291C211.341 238.21 211.429 238.931 211.495 239.453C211.495 239.683 211.546 239.865 211.561 240.016C211.572 240.078 211.572 240.143 211.561 240.206C211.538 240.148 211.523 240.086 211.517 240.024C211.517 239.873 211.458 239.691 211.421 239.461C211.341 238.946 211.223 238.226 211.076 237.315C210.79 235.406 210.386 232.69 209.88 229.324C208.889 222.512 207.524 213.064 205.975 202.396C205.916 200.566 205.85 198.642 205.777 196.685C204.911 172.656 204.265 154.939 204.184 152.69Z" fill="#263238"/>
<g opacity="0.3">
<path d="M186.473 141.285C179.529 144.31 172.673 146.172 165.187 146.179C166.231 147.282 167.611 147.937 169.07 148.025C170.533 148.112 172.001 147.976 173.429 147.621C177.04 146.873 180.586 145.798 184.028 144.405C185.254 143.93 186.634 142.56 186.473 141.285Z" fill="black"/>
</g>
<g opacity="0.3">
<path d="M151.894 164.593C152.011 167.476 151.71 170.929 152.276 173.773C152.76 176.62 153.907 179.288 155.608 181.526C154.323 176.093 153.23 170.137 151.894 164.593Z" fill="black"/>
</g>
<g opacity="0.3">
<path d="M173.429 208.082L173.202 208.043C175.448 210.799 179.177 211.084 182.582 211.108C185.988 211.131 189.673 210.902 191.956 208.177C185.838 209.5 179.535 209.468 173.429 208.082Z" fill="black"/>
</g>
<path d="M49.4643 329.266C50.3524 332.244 53.6187 334.311 56.3199 333.226C57.8539 332.6 58.9623 331.159 59.9091 329.717C60.7507 328.202 61.8169 326.845 63.0653 325.702C63.9886 324.953 65.1376 324.603 66.2876 324.72L53.8756 319.683C48.5615 323.136 48.5762 326.304 49.4643 329.266Z" fill="#2257E0"/>
<path d="M49.4643 329.266C50.3524 332.244 53.6187 334.311 56.3199 333.226C57.8539 332.6 58.9623 331.159 59.9091 329.717C60.7507 328.202 61.8169 326.845 63.0653 325.702C63.9886 324.953 65.1376 324.603 66.2876 324.72L53.8756 319.683C48.5615 323.136 48.5762 326.304 49.4643 329.266Z" fill="#2257E0"/>
<g opacity="0.3">
<path d="M49.4643 329.266C50.3524 332.244 53.6187 334.311 56.3199 333.226C57.8539 332.6 58.9623 331.159 59.9091 329.717C60.7507 328.202 61.8169 326.845 63.0653 325.702C63.9886 324.953 65.1376 324.603 66.2876 324.72L53.8756 319.683C48.5615 323.136 48.5762 326.304 49.4643 329.266Z" fill="black"/>
</g>
<path d="M111.26 332.806C109.991 331.489 108.436 330.538 106.737 330.04C105.038 329.542 103.251 329.514 101.539 329.957C99.8276 330.401 98.2469 331.302 96.9427 332.577C95.6386 333.853 94.653 335.463 94.0768 337.257L95.3172 342.445C95.5117 341.546 95.8857 340.704 96.4131 339.978C96.9405 339.251 97.6086 338.658 98.3707 338.239C99.9928 337.447 101.879 337.915 103.509 338.564C105.138 339.214 106.812 340.093 108.588 340.211C110.364 340.33 112.353 339.419 112.882 337.598C113.41 335.776 112.456 334.05 111.26 332.806Z" fill="#2257E0"/>
<g opacity="0.3">
<path d="M111.26 332.806C109.991 331.489 108.436 330.538 106.737 330.04C105.038 329.542 103.251 329.514 101.539 329.957C99.8276 330.401 98.2469 331.302 96.9427 332.577C95.6386 333.853 94.653 335.463 94.0768 337.257L95.3172 342.445C95.5117 341.546 95.8857 340.704 96.4131 339.978C96.9405 339.251 97.6086 338.658 98.3707 338.239C99.9928 337.447 101.879 337.915 103.509 338.564C105.138 339.214 106.812 340.093 108.588 340.211C110.364 340.33 112.353 339.419 112.882 337.598C113.41 335.776 112.456 334.05 111.26 332.806Z" fill="black"/>
</g>
<path d="M81.2979 350.111C78.6996 347.45 78.8317 342.817 80.1235 339.214C81.4154 335.61 84.2486 332.878 87.4048 331.024C90.487 329.278 93.8954 328.308 97.3747 328.186C100.854 328.064 104.314 328.793 107.494 330.319C105.938 330.393 104.421 330.877 103.078 331.729C101.734 332.581 100.605 333.774 99.7874 335.206C98.3634 337.756 98.0478 340.853 96.8514 343.546C95.5255 346.582 93.1722 348.954 90.2752 350.175C87.3783 351.396 84.1578 351.373 81.2759 350.111" fill="#2257E0"/>
<path d="M80.0501 334.121C77.1728 330.462 76.7911 324.617 77.2169 319.81C77.6426 315.002 78.6849 310.226 77.9509 305.482C77.5398 302.679 76.5269 299.994 76.1893 297.174C75.8516 294.355 76.3287 291.171 78.3913 289.349C80.718 287.258 84.3807 287.765 86.8029 289.722C89.2251 291.678 90.627 294.767 91.6473 297.84C93.9007 304.595 94.7301 312.096 92.8804 318.978C91.0307 325.86 86.6855 332.038 80.3217 334.121" fill="#2257E0"/>
<path d="M78.6702 364.162C78.6573 364.022 78.6573 363.881 78.6702 363.742C78.6702 363.465 78.6702 363.053 78.6702 362.53C78.6702 361.477 78.8023 359.964 79.0225 358.095C79.2786 355.91 79.6461 353.742 80.1235 351.601C80.7201 348.972 81.6461 346.443 82.876 344.084C84.1035 341.726 85.6111 339.551 87.3608 337.614C88.7839 336.028 90.3614 334.613 92.0657 333.392C92.7997 332.854 93.475 332.45 94.0769 332.07C94.6787 331.69 95.2219 331.436 95.6623 331.207L96.6972 330.739C96.815 330.679 96.9379 330.631 97.0642 330.597L96.7119 330.787L95.699 331.302C95.2733 331.539 94.7448 331.84 94.1429 332.197C93.541 332.553 92.8658 332.989 92.1611 333.543C88.4105 336.293 85.3024 339.945 83.0815 344.211C80.4391 349.201 79.7125 354.444 79.1913 358.119C78.9491 359.98 78.8317 361.493 78.7656 362.538C78.7656 363.045 78.7142 363.441 78.6996 363.742C78.7008 363.882 78.691 364.023 78.6702 364.162Z" fill="#263238"/>
<path d="M49.912 323.476C51.2992 321.401 54.7344 320.8 56.907 321.837C59.0796 322.875 60.6651 324.926 62.089 326.969C63.513 329.013 64.8929 331.183 66.86 332.608C68.8272 334.034 71.587 334.549 73.5468 333.115C74.1736 332.612 74.6987 331.975 75.0899 331.246C75.4811 330.516 75.7303 329.707 75.8222 328.87C75.992 327.194 75.8852 325.5 75.5066 323.865C75.0368 321.489 74.2734 318.946 72.4898 317.418C70.5007 315.707 67.7335 315.628 65.2012 315.723C62.279 315.697 59.372 316.178 56.5914 317.148C53.8609 318.241 51.0717 320.594 49.912 323.484" fill="#2257E0"/>
<path d="M74.2515 359.568C74.2515 359.568 74.2515 359.521 74.2515 359.441C74.2515 359.362 74.2515 359.22 74.2515 359.069C74.2515 358.721 74.2368 358.245 74.2075 357.643C74.2075 356.384 74.1267 354.602 74.068 352.408C74.0093 350.215 73.9212 347.561 73.7744 344.647C73.6276 341.732 73.4221 338.517 73.0404 335.143C72.8665 333.517 72.572 331.91 72.1596 330.335C71.7139 328.891 71.1463 327.494 70.4641 326.161C69.8734 324.938 69.1858 323.772 68.4089 322.677C67.7256 321.728 66.9746 320.838 66.1628 320.016C64.9762 318.835 63.6359 317.848 62.1846 317.085C61.9203 316.958 61.6928 316.832 61.4946 316.745L60.9735 316.531L60.6505 316.388L60.5477 316.333C60.5477 316.333 60.5844 316.333 60.6578 316.333L60.9881 316.444L61.5166 316.642C61.7221 316.721 61.957 316.848 62.2506 316.966C63.7289 317.7 65.0952 318.672 66.3023 319.849C67.1307 320.668 67.8965 321.558 68.5924 322.51C69.3841 323.611 70.0841 324.785 70.6843 326.019C71.3495 327.376 71.8951 328.797 72.3137 330.264C72.7339 331.851 73.0334 333.472 73.2092 335.111C73.6203 338.461 73.8184 341.677 73.9432 344.615C74.068 347.553 74.1414 350.159 74.1855 352.385C74.2295 354.61 74.2442 356.392 74.2515 357.628V359.053C74.2515 359.204 74.2515 359.323 74.2515 359.425C74.2552 359.473 74.2552 359.521 74.2515 359.568Z" fill="#263238"/>
<path d="M76.1672 362.158C75.9112 361.355 75.7149 360.531 75.58 359.695C75.2109 357.41 75.1294 355.081 75.3378 352.773C75.6623 349.351 76.3418 345.98 77.3637 342.722C78.4573 339.031 79.94 335.087 81.2025 330.842C81.8283 328.781 82.3381 326.681 82.7292 324.554C83.0766 322.571 83.3216 320.57 83.4632 318.558C83.7082 315.133 83.7646 311.695 83.632 308.262C83.5366 305.34 83.3971 302.979 83.3091 301.348C83.265 300.556 83.2283 299.907 83.2063 299.463V298.972C83.2063 298.861 83.2063 298.806 83.2063 298.806V298.972C83.2063 299.099 83.2063 299.257 83.2503 299.463C83.2503 299.907 83.3384 300.532 83.3971 301.34C83.5146 302.972 83.6834 305.3 83.8008 308.254C83.9558 311.686 83.9165 315.124 83.6834 318.55C83.542 320.572 83.2969 322.584 82.9494 324.577C82.5625 326.721 82.0526 328.837 81.4227 330.913C80.1529 335.166 78.6628 339.111 77.5618 342.793C76.537 346.031 75.8453 349.38 75.4993 352.78C75.2773 355.075 75.3341 357.392 75.6681 359.671C75.7929 360.463 75.9177 361.096 76.0204 361.508C76.0645 361.709 76.1012 361.867 76.1305 361.983C76.1599 362.102 76.1672 362.158 76.1672 362.158Z" fill="#263238"/>
<path d="M89.3498 364.755H64.3792L63.8066 359.568H89.3498V364.755Z" fill="#455A64"/>
<path d="M67.0582 364.162L70.1777 379.717H83.7494L86.6707 364.162H67.0582Z" fill="#455A64"/>
<path d="M89.3498 364.755C89.3498 364.827 83.8595 364.866 77.0847 364.843C70.3099 364.819 64.8269 364.748 64.8269 364.676C64.8269 364.605 70.3172 364.565 77.0847 364.589C83.8522 364.613 89.3498 364.684 89.3498 364.755Z" fill="#455A64"/>
<path d="M85.0632 372.43C84.383 371.882 83.6436 371.424 82.8612 371.068C82.008 370.711 81.1042 370.516 80.1895 370.49C79.0657 370.494 77.9518 370.717 76.9012 371.147C75.7635 371.559 74.6992 372.042 73.6642 372.311C72.7446 372.523 71.7971 372.553 70.8677 372.398C70.2421 372.299 69.6351 372.093 69.0694 371.789C68.92 371.697 68.7754 371.597 68.6363 371.488C68.5409 371.408 68.4969 371.369 68.5042 371.361C68.5115 371.353 68.7171 371.496 69.1134 371.694C69.6775 371.964 70.2764 372.14 70.8897 372.216C71.7977 372.345 72.7196 372.299 73.6128 372.082C74.6184 371.804 75.6754 371.29 76.8278 370.902C77.9036 370.462 79.0465 370.244 80.1968 370.26C81.1362 370.287 82.0624 370.505 82.9273 370.902C83.5105 371.165 84.0585 371.511 84.5568 371.931C84.6923 372.042 84.8221 372.161 84.9458 372.288C85.0265 372.375 85.0706 372.422 85.0632 372.43Z" fill="#263238"/>
<path d="M84.8724 373.468C84.2162 372.938 83.5071 372.489 82.7585 372.129C81.9402 371.767 81.0664 371.574 80.1822 371.559C79.0973 371.561 78.0213 371.77 77.004 372.177C75.903 372.573 74.868 373.032 73.8845 373.317C73.0125 373.589 72.1041 373.698 71.198 373.642C70.5849 373.604 69.9854 373.432 69.4364 373.135C69.2885 373.051 69.1462 372.956 69.0107 372.85C68.9226 372.771 68.8786 372.731 68.8859 372.723C68.8933 372.715 69.0914 372.85 69.4731 373.04C70.0213 373.295 70.6088 373.437 71.2054 373.46C72.0918 373.49 72.9769 373.364 73.8257 373.087C74.7873 372.794 75.8149 372.295 76.9232 371.931C77.9682 371.514 79.0753 371.307 80.1895 371.321C81.7174 371.372 83.1895 371.953 84.388 372.977C84.5568 373.127 84.6743 373.246 84.755 373.333C84.7984 373.373 84.8378 373.418 84.8724 373.468Z" fill="white"/>
<path d="M85.3128 371.4C84.6101 370.835 83.852 370.354 83.0521 369.967C82.1833 369.564 81.2576 369.323 80.3143 369.254C79.1537 369.23 77.9998 369.448 76.9158 369.896C75.8226 370.359 74.7049 370.753 73.5688 371.076C72.6119 371.254 71.6337 371.254 70.6768 371.076C70.0319 370.966 69.4058 370.753 68.8198 370.442C68.6629 370.356 68.5131 370.255 68.3721 370.141C68.2767 370.062 68.2253 370.022 68.2326 370.014C68.24 370.007 68.4528 370.149 68.8639 370.355C69.4532 370.622 70.0727 370.803 70.7062 370.894C71.6421 371.044 72.5946 371.025 73.5248 370.838C74.649 370.504 75.7564 370.108 76.8424 369.65C77.9508 369.188 79.1338 368.969 80.3216 369.009C81.9437 369.155 83.4928 369.801 84.7843 370.87C84.9678 371.028 85.0999 371.155 85.188 371.242C85.2359 371.289 85.2778 371.342 85.3128 371.4Z" fill="white"/>
<path d="M89.548 364.771C89.548 364.843 83.9329 364.906 77.0039 364.906C70.075 364.906 64.4525 364.843 64.4525 364.771C64.4525 364.7 70.075 364.645 77.0039 364.645C83.9329 364.645 89.548 364.7 89.548 364.771Z" fill="#263238"/>
<path d="M333.405 379.598C333.405 379.716 266.281 379.811 183.507 379.811C100.734 379.811 33.5879 379.716 33.5879 379.598C33.5879 379.479 100.698 379.368 183.5 379.368C266.303 379.368 333.405 379.487 333.405 379.598Z" fill="#263238"/>
<path d="M153.575 130.593L145.501 128.645C142.309 132.563 137.874 135.05 133.068 135.618C128.262 136.186 123.433 134.794 119.53 131.715C115.628 128.636 112.934 124.093 111.978 118.979C111.022 113.865 111.874 108.551 114.366 104.081C116.858 99.6103 120.81 96.3076 125.444 94.8219C130.079 93.3361 135.06 93.7748 139.41 96.0517C143.76 98.3286 147.163 102.279 148.95 107.126C150.737 111.973 150.779 117.366 149.068 122.245L153.575 130.593Z" fill="white"/>
<path d="M153.575 130.593L149.171 122.198C149.156 122.185 149.138 122.178 149.119 122.178C149.101 122.178 149.083 122.185 149.068 122.198L149.2 122.269C150.424 118.836 150.781 115.113 150.235 111.482C150.081 110.404 149.835 109.343 149.501 108.314C149.318 107.775 149.149 107.229 148.951 106.682L148.217 105.098C145.891 100.356 141.969 96.7561 137.258 95.04C134.665 94.0824 131.913 93.7315 129.184 94.0104C126.301 94.3304 123.519 95.3338 121.037 96.9487C118.438 98.6266 116.246 100.948 114.643 103.72C112.986 106.54 111.98 109.748 111.707 113.074C111.471 116.254 111.9 119.45 112.963 122.427C113.955 125.248 115.514 127.796 117.528 129.888C121.147 133.648 125.966 135.763 130.99 135.796C133.112 135.77 135.219 135.393 137.236 134.68C140.449 133.51 143.318 131.445 145.552 128.692H145.486L153.56 130.569L145.486 128.542C145.475 128.536 145.462 128.533 145.449 128.533C145.437 128.533 145.424 128.536 145.413 128.542C143.184 131.255 140.33 133.285 137.141 134.426C135.143 135.123 133.059 135.486 130.96 135.503C126.002 135.449 121.251 133.349 117.682 129.635C115.706 127.563 114.175 125.048 113.197 122.269C112.152 119.334 111.733 116.183 111.972 113.05C112.233 109.779 113.217 106.623 114.842 103.847C116.415 101.112 118.572 98.8228 121.132 97.1704C123.59 95.594 126.339 94.6206 129.184 94.3192C131.876 94.0338 134.594 94.3713 137.155 95.3092C141.784 97.0043 145.647 100.527 147.967 105.17C148.202 105.708 148.437 106.239 148.701 106.754C148.965 107.268 149.068 107.831 149.252 108.338C149.581 109.369 149.827 110.429 149.986 111.506C150.535 115.1 150.198 118.788 149.009 122.198C149.006 122.208 149.004 122.218 149.005 122.229C149.005 122.239 149.007 122.25 149.011 122.259C149.015 122.269 149.021 122.277 149.028 122.284C149.036 122.292 149.044 122.297 149.053 122.301C149.065 122.31 149.079 122.315 149.094 122.315C149.108 122.315 149.123 122.31 149.134 122.301H149.002L153.575 130.593Z" fill="#263238"/>
<path d="M120.391 115.291L123.158 112.306L128.501 117.43L138.99 106.54L141.559 109.526L128.105 123.188L120.391 115.291Z" fill="#2257E0"/>
</svg>
