<svg width="500" height="500" viewBox="0 0 500 500" fill="none" xmlns="http://www.w3.org/2000/svg">
<path d="M77.7199 333.84C134.72 384.01 185.63 384.51 257.64 388.62C329.65 392.73 379.96 376.62 413.4 337.29C452 291.9 438.22 201.43 366.81 178.05C344.49 170.73 319.12 170.98 298.81 159.21C260.13 136.74 226.15 98.29 168.81 97.81C111.47 97.33 78.4899 140.19 78.4899 140.19C38.9999 197 20.6999 283.67 77.7199 333.84Z" fill="#2257E0"/>
<path opacity="0.7" d="M77.7199 333.84C134.72 384.01 185.63 384.51 257.64 388.62C329.65 392.73 379.96 376.62 413.4 337.29C452 291.9 438.22 201.43 366.81 178.05C344.49 170.73 319.12 170.98 298.81 159.21C260.13 136.74 226.15 98.29 168.81 97.81C111.47 97.33 78.4899 140.19 78.4899 140.19C38.9999 197 20.6999 283.67 77.7199 333.84Z" fill="white"/>
<path d="M234.59 428.22C320.923 428.22 390.91 424.71 390.91 420.38C390.91 416.05 320.923 412.54 234.59 412.54C148.257 412.54 78.27 416.05 78.27 420.38C78.27 424.71 148.257 428.22 234.59 428.22Z" fill="#2257E0"/>
<path opacity="0.7" d="M234.59 428.22C320.923 428.22 390.91 424.71 390.91 420.38C390.91 416.05 320.923 412.54 234.59 412.54C148.257 412.54 78.27 416.05 78.27 420.38C78.27 424.71 148.257 428.22 234.59 428.22Z" fill="white"/>
<path d="M418.57 438.35C435.376 438.35 449 435.256 449 431.44C449 427.624 435.376 424.53 418.57 424.53C401.764 424.53 388.14 427.624 388.14 431.44C388.14 435.256 401.764 438.35 418.57 438.35Z" fill="#2257E0"/>
<path opacity="0.7" d="M418.57 438.35C435.376 438.35 449 435.256 449 431.44C449 427.624 435.376 424.53 418.57 424.53C401.764 424.53 388.14 427.624 388.14 431.44C388.14 435.256 401.764 438.35 418.57 438.35Z" fill="white"/>
<path d="M140.17 397.79C138.78 395.64 136.86 392.53 134.64 388.71C134.01 387.61 133.37 386.44 132.72 385.22C133.19 384.92 137.05 382.48 138.25 380.68C139.36 379.07 140.25 376.68 139.55 374.76C139.274 373.89 138.665 373.164 137.855 372.742C137.045 372.321 136.101 372.237 135.23 372.51L134.88 372.64C132.24 373.89 131.38 379.07 131.71 381.64C131.71 381.79 132.21 383.72 132.47 384.7L131.29 382.49C130.72 381.38 130.18 380.19 129.58 379.05L128.76 377.2C128.47 376.58 128.26 375.96 128.01 375.33C127.66 374.4 127.34 373.42 127.01 372.44C128.12 371.92 131.57 370.34 132.83 368.95C134.09 367.56 135.39 365.31 135.04 363.28C134.899 362.38 134.408 361.571 133.674 361.032C132.939 360.492 132.021 360.265 131.12 360.4L130.74 360.48C127.95 361.31 126.31 366.3 126.25 368.9C126.252 369.335 126.286 369.77 126.35 370.2C126.07 369.2 125.78 368.27 125.53 367.29C124.81 364.49 124.17 361.62 123.53 358.76C123.4 358.16 123.26 357.56 123.11 356.97C124.11 356.54 127.78 354.84 129.11 353.38C130.44 351.92 131.68 349.74 131.32 347.72C131.177 346.817 130.682 346.007 129.944 345.467C129.206 344.927 128.284 344.702 127.38 344.84L127.02 344.92C124.23 345.75 122.59 350.75 122.53 353.35C122.53 353.44 122.53 354.1 122.65 354.83C122.27 353.28 121.87 351.73 121.43 350.21C120.681 347.596 119.762 345.034 118.68 342.54C119.03 342.4 123.39 340.54 124.86 338.88C126.17 337.44 127.43 335.24 127.07 333.23C126.932 332.326 126.44 331.513 125.703 330.971C124.966 330.429 124.044 330.202 123.14 330.34C123.015 330.356 122.891 330.383 122.77 330.42C119.98 331.25 118.35 336.25 118.28 338.85C118.28 339.02 118.49 341.4 118.6 342.25V342.17C117.471 339.748 116.133 337.429 114.6 335.24C113.228 333.29 111.749 331.417 110.17 329.63C108.72 327.96 107.29 326.52 106.02 325.21C105.32 324.53 104.67 323.92 104.02 323.36C104.02 323.36 102.66 320.11 102.55 319.91C101.25 317.69 97.4099 314.08 94.5499 314.7C93.6642 314.918 92.9012 315.478 92.4287 316.258C91.9561 317.038 91.8127 317.974 92.0299 318.86C92.0299 318.98 92.0999 319.1 92.1399 319.22C92.7699 321.22 94.9399 322.54 96.7799 323.14C98.6199 323.74 102.78 323.47 103.78 323.38C104.4 323.98 105.06 324.62 105.78 325.38C107.02 326.67 108.42 328.13 109.78 329.8C110.16 330.25 110.54 330.8 110.89 331.23C110.07 330.56 108.94 329.65 108.82 329.57C106.61 328.18 101.56 326.77 99.3299 328.63C98.9883 328.926 98.7083 329.286 98.5062 329.69C98.3041 330.094 98.1838 330.534 98.1522 330.984C98.1206 331.435 98.1783 331.887 98.3221 332.316C98.4659 332.744 98.6928 333.14 98.9899 333.48C99.0695 333.583 99.16 333.677 99.2599 333.76C100.73 335.2 103.26 335.38 105.18 335.09C107.1 334.8 110.71 332.56 111.55 332.09C112.38 333.2 113.21 334.3 114.01 335.51C115.478 337.697 116.75 340.009 117.81 342.42C117.87 342.56 117.91 342.71 117.98 342.85C117.64 342.46 115.59 340.39 115.42 340.25C113.42 338.63 108.52 336.67 106.09 338.25C105.339 338.78 104.828 339.586 104.671 340.491C104.514 341.397 104.722 342.328 105.25 343.08C105.318 343.174 105.391 343.265 105.47 343.35C106.76 344.95 109.26 345.35 111.2 345.35C113.41 345.28 117.84 343.05 118.01 342.96C119.007 345.395 119.839 347.894 120.5 350.44C121.01 352.31 121.44 354.24 121.85 356.17C121.4 355.66 119.49 353.74 119.34 353.62C117.34 351.99 112.44 350.03 110 351.62C109.25 352.143 108.738 352.942 108.577 353.842C108.415 354.742 108.618 355.669 109.14 356.42L109.37 356.72C110.68 358.31 113.17 358.72 115.11 358.72C117.33 358.64 121.53 356.5 121.88 356.35C122.07 357.22 122.27 358.11 122.45 358.98C123.05 361.87 123.63 364.76 124.3 367.59C124.52 368.59 124.78 369.59 125.04 370.5C124.33 369.75 123.04 368.42 122.88 368.29C120.88 366.65 115.97 364.7 113.54 366.29C112.789 366.815 112.277 367.616 112.116 368.517C111.955 369.419 112.157 370.348 112.68 371.1C112.751 371.201 112.828 371.298 112.91 371.39C114.22 372.99 116.71 373.44 118.65 373.39C120.59 373.34 124.19 371.62 125.2 371.18C125.65 372.77 126.12 374.36 126.66 375.88C126.92 376.54 127.13 377.22 127.39 377.88C127.65 378.54 127.91 379.13 128.18 379.74C128.75 380.99 129.28 382.15 129.85 383.3C130.13 383.88 130.41 384.41 130.69 384.98C130.08 384.12 129.1 382.77 128.99 382.66C127.23 380.73 122.7 378.07 120.06 379.28C119.653 379.478 119.289 379.755 118.989 380.094C118.69 380.434 118.46 380.829 118.313 381.257C118.166 381.685 118.105 382.138 118.134 382.59C118.163 383.042 118.28 383.484 118.48 383.89C118.48 384 118.6 384.11 118.66 384.22C119.77 386 122.11 386.82 124.04 387.04C126.17 387.29 130.54 385.93 131.04 385.73C131.73 387.11 132.42 388.43 133.04 389.67C135.16 393.58 137.04 396.74 138.42 398.95C139.8 401.16 140.63 402.39 140.63 402.39C140.705 402.503 140.802 402.6 140.916 402.674C141.03 402.749 141.157 402.799 141.291 402.822C141.425 402.846 141.562 402.842 141.694 402.81C141.827 402.779 141.951 402.721 142.06 402.64C142.172 402.565 142.267 402.468 142.341 402.355C142.414 402.242 142.464 402.116 142.487 401.983C142.511 401.851 142.507 401.715 142.476 401.584C142.446 401.452 142.389 401.329 142.31 401.22C142.31 401.22 141.58 399.93 140.17 397.79Z" fill="#2257E0"/>
<path d="M111.61 331.53C111.61 331.53 115.61 328.36 116.67 326.32C117.54 324.6 118.17 322.14 117.26 320.32C116.888 319.488 116.201 318.837 115.35 318.511C114.499 318.184 113.553 318.209 112.72 318.58L112.38 318.75C109.91 320.29 109.64 325.54 110.27 328.07C110.36 328.26 111.61 331.56 111.61 331.53Z" fill="#2257E0"/>
<path d="M137.88 399.67C135.54 398.67 132.2 397.14 128.28 395.15C127.18 394.58 125.96 393.96 124.74 393.29C124.99 392.79 126.85 388.62 126.84 386.47C126.84 384.53 126.3 382.04 124.63 380.82C123.923 380.243 123.016 379.971 122.108 380.063C121.201 380.155 120.367 380.603 119.79 381.31L119.56 381.62C118.05 384.12 120.18 388.92 121.89 390.88C122 391.02 123.46 392.35 124.21 393.03L122 391.81C120.89 391.2 119.79 390.53 118.68 389.88L117 388.77C116.41 388.42 115.89 388.01 115.34 387.66C114.53 387.09 113.72 386.45 112.93 385.81C113.61 384.7 115.56 381.54 115.85 379.68C116.14 377.82 115.97 375.25 114.54 373.76C113.931 373.08 113.079 372.669 112.168 372.617C111.257 372.564 110.362 372.875 109.68 373.48C109.585 373.568 109.495 373.662 109.41 373.76C107.54 375.97 108.92 381.06 110.3 383.26C110.544 383.611 110.811 383.945 111.1 384.26C110.34 383.61 109.56 382.96 108.81 382.26C106.68 380.32 104.55 378.26 102.43 376.26L101.07 375C101.65 374.11 103.8 370.66 104.07 368.72C104.34 366.78 104.19 364.29 102.76 362.79C102.458 362.452 102.092 362.177 101.683 361.981C101.275 361.785 100.832 361.672 100.379 361.648C99.9264 361.624 99.4736 361.689 99.0464 361.841C98.6193 361.992 98.2263 362.226 97.8899 362.53L97.6299 362.79C95.7599 365 97.1399 370.1 98.5299 372.3C98.8051 372.711 99.1092 373.102 99.4399 373.47C98.2699 372.38 97.0799 371.31 95.8799 370.29C93.8181 368.52 91.6399 366.889 89.3599 365.41C89.5699 365.09 92.1699 361.12 92.4999 358.95C92.7899 357.02 92.6199 354.52 91.1899 353.02C90.8855 352.682 90.5171 352.407 90.1061 352.212C89.695 352.017 89.2494 351.905 88.7949 351.882C88.3404 351.86 87.8859 351.928 87.4577 352.082C87.0295 352.236 86.636 352.473 86.2999 352.78L86.0599 353.02C84.1899 355.23 85.5699 360.33 86.9499 362.53C87.0499 362.69 88.5499 364.53 89.0999 365.2L89.0199 365.14C86.7459 363.745 84.3533 362.554 81.8699 361.58C79.6495 360.718 77.3826 359.98 75.0799 359.37C72.9499 358.77 70.9599 358.37 69.1999 358.01C68.1999 357.83 67.3699 357.68 66.5599 357.54C66.5599 357.54 63.6199 355.59 63.4199 355.49C61.0999 354.33 55.9099 353.49 53.8799 355.54C53.2609 356.214 52.9344 357.107 52.9719 358.021C53.0094 358.936 53.4078 359.799 54.0799 360.42L54.3599 360.65C55.9699 361.94 58.4999 361.84 60.3599 361.36C62.2199 360.88 65.5499 358.36 66.3599 357.69C67.2099 357.84 68.1199 358.02 69.1099 358.23C70.8599 358.62 72.8299 359.07 74.9399 359.71C75.5099 359.88 76.0499 360.09 76.6799 360.27C75.6799 360.16 74.1899 360.02 74.0599 360.03C71.4499 360.03 66.4599 361.69 65.6099 364.46C65.4889 364.897 65.4556 365.353 65.5119 365.803C65.5682 366.252 65.7131 366.686 65.9381 367.08C66.1631 367.473 66.4638 367.818 66.8229 368.094C67.1819 368.371 67.5922 368.573 68.0299 368.69C68.1476 368.726 68.268 368.753 68.3899 368.77C70.3899 369.17 72.6199 367.92 74.0599 366.56C75.4999 365.2 77.3799 361.36 77.6999 360.56C78.9799 360.99 80.2999 361.47 81.6299 362.05C84.0688 363.06 86.4117 364.289 88.6299 365.72L88.9999 366C88.4899 365.86 85.6799 365.26 85.4499 365.24C82.8499 365.01 77.7099 366.06 76.5999 368.75C76.4346 369.175 76.3553 369.628 76.3665 370.083C76.3778 370.539 76.4794 370.987 76.6655 371.403C76.8515 371.819 77.1184 372.194 77.4504 372.506C77.7825 372.818 78.1732 373.06 78.5999 373.22C78.7111 373.266 78.8246 373.306 78.9399 373.34C80.9399 373.95 83.2299 372.95 84.8099 371.82C86.6299 370.52 89.0799 366.22 89.1699 366.07C91.3398 367.55 93.4108 369.17 95.3699 370.92C96.8299 372.22 98.2599 373.58 99.6699 374.92C98.9999 374.76 96.3499 374.2 96.1499 374.18C93.5699 373.94 88.4099 375 87.2999 377.68C86.9651 378.529 86.9802 379.476 87.3419 380.314C87.7036 381.151 88.3825 381.812 89.2299 382.15L89.5899 382.27C91.5899 382.89 93.8899 381.89 95.4699 380.75C97.2399 379.48 99.6099 375.39 99.7999 375.04L101.73 376.94C103.82 379 105.9 381.1 108.01 383.09C108.74 383.78 109.5 384.44 110.23 385.09C109.23 384.86 107.38 384.48 107.23 384.46C104.63 384.23 99.4799 385.29 98.3799 387.97C98.2125 388.39 98.1293 388.838 98.1352 389.29C98.1411 389.741 98.2359 390.188 98.4142 390.603C98.5925 391.018 98.8507 391.394 99.1743 391.709C99.4979 392.024 99.8804 392.273 100.3 392.44L100.67 392.56C102.67 393.17 104.96 392.17 106.54 391.04C108.12 389.91 110.19 386.51 110.76 385.51C112.01 386.62 113.27 387.66 114.56 388.63C115.14 389.04 115.67 389.49 116.25 389.86L117.93 390.96C119.1 391.68 120.14 392.36 121.24 393.01L122.87 393.95C121.87 393.56 120.31 392.95 120.17 392.95C117.64 392.32 112.43 392.59 110.86 395.07C110.631 395.461 110.482 395.894 110.421 396.343C110.359 396.792 110.387 397.249 110.502 397.687C110.617 398.125 110.818 398.537 111.092 398.897C111.366 399.258 111.709 399.562 112.1 399.79C112.206 399.855 112.316 399.911 112.43 399.96C114.27 400.85 116.73 400.22 118.43 399.35C120.34 398.35 123.22 394.81 123.57 394.35C124.91 395.12 126.21 395.85 127.45 396.5C131.36 398.59 134.7 400.19 137.06 401.28C139.42 402.37 140.78 402.94 140.78 402.94C141.035 403.037 141.317 403.029 141.566 402.917C141.814 402.805 142.008 402.6 142.105 402.345C142.202 402.09 142.193 401.808 142.082 401.559C141.97 401.311 141.765 401.117 141.51 401.02C141.51 401.02 140.24 400.67 137.88 399.67Z" fill="#2257E0"/>
<path d="M77.5398 360.15C77.5398 360.15 79.1398 355.29 78.8798 353.03C78.6498 351.09 77.7698 348.7 76.0598 347.66C75.2864 347.169 74.3499 347.005 73.4557 347.204C72.5616 347.403 71.7827 347.948 71.2898 348.72C71.2223 348.822 71.1622 348.929 71.1098 349.04C69.8898 351.7 72.5698 356.22 74.4998 357.97C74.6598 358.13 77.5298 360.21 77.5398 360.15Z" fill="#2257E0"/>
<g opacity="0.4">
<path d="M140.17 397.79C138.78 395.64 136.86 392.53 134.64 388.71C134.01 387.61 133.37 386.44 132.72 385.22C133.19 384.92 137.05 382.48 138.25 380.68C139.36 379.07 140.25 376.68 139.55 374.76C139.274 373.89 138.665 373.164 137.855 372.742C137.045 372.321 136.101 372.237 135.23 372.51L134.88 372.64C132.24 373.89 131.38 379.07 131.71 381.64C131.71 381.79 132.21 383.72 132.47 384.7L131.29 382.49C130.72 381.38 130.18 380.19 129.58 379.05L128.76 377.2C128.47 376.58 128.26 375.96 128.01 375.33C127.66 374.4 127.34 373.42 127.01 372.44C128.12 371.92 131.57 370.34 132.83 368.95C134.09 367.56 135.39 365.31 135.04 363.28C134.899 362.38 134.408 361.571 133.674 361.032C132.939 360.492 132.021 360.265 131.12 360.4L130.74 360.48C127.95 361.31 126.31 366.3 126.25 368.9C126.252 369.335 126.286 369.77 126.35 370.2C126.07 369.2 125.78 368.27 125.53 367.29C124.81 364.49 124.17 361.62 123.53 358.76C123.4 358.16 123.26 357.56 123.11 356.97C124.11 356.54 127.78 354.84 129.11 353.38C130.44 351.92 131.68 349.74 131.32 347.72C131.177 346.817 130.682 346.007 129.944 345.467C129.206 344.927 128.284 344.702 127.38 344.84L127.02 344.92C124.23 345.75 122.59 350.75 122.53 353.35C122.53 353.44 122.53 354.1 122.65 354.83C122.27 353.28 121.87 351.73 121.43 350.21C120.681 347.596 119.762 345.034 118.68 342.54C119.03 342.4 123.39 340.54 124.86 338.88C126.17 337.44 127.43 335.24 127.07 333.23C126.932 332.326 126.44 331.513 125.703 330.971C124.966 330.429 124.044 330.202 123.14 330.34C123.015 330.356 122.891 330.383 122.77 330.42C119.98 331.25 118.35 336.25 118.28 338.85C118.28 339.02 118.49 341.4 118.6 342.25V342.17C117.471 339.748 116.133 337.429 114.6 335.24C113.228 333.29 111.749 331.417 110.17 329.63C108.72 327.96 107.29 326.52 106.02 325.21C105.32 324.53 104.67 323.92 104.02 323.36C104.02 323.36 102.66 320.11 102.55 319.91C101.25 317.69 97.4099 314.08 94.5499 314.7C93.6642 314.918 92.9012 315.478 92.4287 316.258C91.9561 317.038 91.8127 317.974 92.0299 318.86C92.0299 318.98 92.0999 319.1 92.1399 319.22C92.7699 321.22 94.9399 322.54 96.7799 323.14C98.6199 323.74 102.78 323.47 103.78 323.38C104.4 323.98 105.06 324.62 105.78 325.38C107.02 326.67 108.42 328.13 109.78 329.8C110.16 330.25 110.54 330.8 110.89 331.23C110.07 330.56 108.94 329.65 108.82 329.57C106.61 328.18 101.56 326.77 99.3299 328.63C98.9883 328.926 98.7083 329.286 98.5062 329.69C98.3041 330.094 98.1838 330.534 98.1522 330.984C98.1206 331.435 98.1783 331.887 98.3221 332.316C98.4659 332.744 98.6928 333.14 98.9899 333.48C99.0695 333.583 99.16 333.677 99.2599 333.76C100.73 335.2 103.26 335.38 105.18 335.09C107.1 334.8 110.71 332.56 111.55 332.09C112.38 333.2 113.21 334.3 114.01 335.51C115.478 337.697 116.75 340.009 117.81 342.42C117.87 342.56 117.91 342.71 117.98 342.85C117.64 342.46 115.59 340.39 115.42 340.25C113.42 338.63 108.52 336.67 106.09 338.25C105.339 338.78 104.828 339.586 104.671 340.491C104.514 341.397 104.722 342.328 105.25 343.08C105.318 343.174 105.391 343.265 105.47 343.35C106.76 344.95 109.26 345.35 111.2 345.35C113.41 345.28 117.84 343.05 118.01 342.96C119.007 345.395 119.839 347.894 120.5 350.44C121.01 352.31 121.44 354.24 121.85 356.17C121.4 355.66 119.49 353.74 119.34 353.62C117.34 351.99 112.44 350.03 110 351.62C109.25 352.143 108.738 352.942 108.577 353.842C108.415 354.742 108.618 355.669 109.14 356.42L109.37 356.72C110.68 358.31 113.17 358.72 115.11 358.72C117.33 358.64 121.53 356.5 121.88 356.35C122.07 357.22 122.27 358.11 122.45 358.98C123.05 361.87 123.63 364.76 124.3 367.59C124.52 368.59 124.78 369.59 125.04 370.5C124.33 369.75 123.04 368.42 122.88 368.29C120.88 366.65 115.97 364.7 113.54 366.29C112.789 366.815 112.277 367.616 112.116 368.517C111.955 369.419 112.157 370.348 112.68 371.1C112.751 371.201 112.828 371.298 112.91 371.39C114.22 372.99 116.71 373.44 118.65 373.39C120.59 373.34 124.19 371.62 125.2 371.18C125.65 372.77 126.12 374.36 126.66 375.88C126.92 376.54 127.13 377.22 127.39 377.88C127.65 378.54 127.91 379.13 128.18 379.74C128.75 380.99 129.28 382.15 129.85 383.3C130.13 383.88 130.41 384.41 130.69 384.98C130.08 384.12 129.1 382.77 128.99 382.66C127.23 380.73 122.7 378.07 120.06 379.28C119.653 379.478 119.289 379.755 118.989 380.094C118.69 380.434 118.46 380.829 118.313 381.257C118.166 381.685 118.105 382.138 118.134 382.59C118.163 383.042 118.28 383.484 118.48 383.89C118.48 384 118.6 384.11 118.66 384.22C119.77 386 122.11 386.82 124.04 387.04C126.17 387.29 130.54 385.93 131.04 385.73C131.73 387.11 132.42 388.43 133.04 389.67C135.16 393.58 137.04 396.74 138.42 398.95C139.8 401.16 140.63 402.39 140.63 402.39C140.705 402.503 140.802 402.6 140.916 402.674C141.03 402.749 141.157 402.799 141.291 402.822C141.425 402.846 141.562 402.842 141.694 402.81C141.827 402.779 141.951 402.721 142.06 402.64C142.172 402.565 142.267 402.468 142.341 402.355C142.414 402.242 142.464 402.116 142.487 401.983C142.511 401.851 142.507 401.715 142.476 401.584C142.446 401.452 142.389 401.329 142.31 401.22C142.31 401.22 141.58 399.93 140.17 397.79Z" fill="white"/>
<path d="M111.61 331.53C111.61 331.53 115.61 328.36 116.67 326.32C117.54 324.6 118.17 322.14 117.26 320.32C116.888 319.488 116.201 318.837 115.35 318.511C114.499 318.184 113.553 318.209 112.72 318.58L112.38 318.75C109.91 320.29 109.64 325.54 110.27 328.07C110.36 328.26 111.61 331.56 111.61 331.53Z" fill="white"/>
<path d="M137.88 399.67C135.54 398.67 132.2 397.14 128.28 395.15C127.18 394.58 125.96 393.96 124.74 393.29C124.99 392.79 126.85 388.62 126.84 386.47C126.84 384.53 126.3 382.04 124.63 380.82C123.923 380.243 123.016 379.971 122.108 380.063C121.201 380.155 120.367 380.603 119.79 381.31L119.56 381.62C118.05 384.12 120.18 388.92 121.89 390.88C122 391.02 123.46 392.35 124.21 393.03L122 391.81C120.89 391.2 119.79 390.53 118.68 389.88L117 388.77C116.41 388.42 115.89 388.01 115.34 387.66C114.53 387.09 113.72 386.45 112.93 385.81C113.61 384.7 115.56 381.54 115.85 379.68C116.14 377.82 115.97 375.25 114.54 373.76C113.931 373.08 113.079 372.669 112.168 372.617C111.257 372.564 110.362 372.875 109.68 373.48C109.585 373.568 109.495 373.662 109.41 373.76C107.54 375.97 108.92 381.06 110.3 383.26C110.544 383.611 110.811 383.945 111.1 384.26C110.34 383.61 109.56 382.96 108.81 382.26C106.68 380.32 104.55 378.26 102.43 376.26L101.07 375C101.65 374.11 103.8 370.66 104.07 368.72C104.34 366.78 104.19 364.29 102.76 362.79C102.458 362.452 102.092 362.177 101.683 361.981C101.275 361.785 100.832 361.672 100.379 361.648C99.9264 361.624 99.4736 361.689 99.0464 361.841C98.6193 361.992 98.2263 362.226 97.8899 362.53L97.6299 362.79C95.7599 365 97.1399 370.1 98.5299 372.3C98.8051 372.711 99.1092 373.102 99.4399 373.47C98.2699 372.38 97.0799 371.31 95.8799 370.29C93.8181 368.52 91.6399 366.889 89.3599 365.41C89.5699 365.09 92.1699 361.12 92.4999 358.95C92.7899 357.02 92.6199 354.52 91.1899 353.02C90.8855 352.682 90.5171 352.407 90.1061 352.212C89.695 352.017 89.2494 351.905 88.7949 351.882C88.3404 351.86 87.8859 351.928 87.4577 352.082C87.0295 352.236 86.636 352.473 86.2999 352.78L86.0599 353.02C84.1899 355.23 85.5699 360.33 86.9499 362.53C87.0499 362.69 88.5499 364.53 89.0999 365.2L89.0199 365.14C86.7459 363.745 84.3533 362.554 81.8699 361.58C79.6495 360.718 77.3826 359.98 75.0799 359.37C72.9499 358.77 70.9599 358.37 69.1999 358.01C68.1999 357.83 67.3699 357.68 66.5599 357.54C66.5599 357.54 63.6199 355.59 63.4199 355.49C61.0999 354.33 55.9099 353.49 53.8799 355.54C53.2609 356.214 52.9344 357.107 52.9719 358.021C53.0094 358.936 53.4078 359.799 54.0799 360.42L54.3599 360.65C55.9699 361.94 58.4999 361.84 60.3599 361.36C62.2199 360.88 65.5499 358.36 66.3599 357.69C67.2099 357.84 68.1199 358.02 69.1099 358.23C70.8599 358.62 72.8299 359.07 74.9399 359.71C75.5099 359.88 76.0499 360.09 76.6799 360.27C75.6799 360.16 74.1899 360.02 74.0599 360.03C71.4499 360.03 66.4599 361.69 65.6099 364.46C65.4889 364.897 65.4556 365.353 65.5119 365.803C65.5682 366.252 65.7131 366.686 65.9381 367.08C66.1631 367.473 66.4638 367.818 66.8229 368.094C67.1819 368.371 67.5922 368.573 68.0299 368.69C68.1476 368.726 68.268 368.753 68.3899 368.77C70.3899 369.17 72.6199 367.92 74.0599 366.56C75.4999 365.2 77.3799 361.36 77.6999 360.56C78.9799 360.99 80.2999 361.47 81.6299 362.05C84.0688 363.06 86.4117 364.289 88.6299 365.72L88.9999 366C88.4899 365.86 85.6799 365.26 85.4499 365.24C82.8499 365.01 77.7099 366.06 76.5999 368.75C76.4346 369.175 76.3553 369.628 76.3665 370.083C76.3778 370.539 76.4794 370.987 76.6655 371.403C76.8515 371.819 77.1184 372.194 77.4504 372.506C77.7825 372.818 78.1732 373.06 78.5999 373.22C78.7111 373.266 78.8246 373.306 78.9399 373.34C80.9399 373.95 83.2299 372.95 84.8099 371.82C86.6299 370.52 89.0799 366.22 89.1699 366.07C91.3398 367.55 93.4108 369.17 95.3699 370.92C96.8299 372.22 98.2599 373.58 99.6699 374.92C98.9999 374.76 96.3499 374.2 96.1499 374.18C93.5699 373.94 88.4099 375 87.2999 377.68C86.9651 378.529 86.9802 379.476 87.3419 380.314C87.7036 381.151 88.3825 381.812 89.2299 382.15L89.5899 382.27C91.5899 382.89 93.8899 381.89 95.4699 380.75C97.2399 379.48 99.6099 375.39 99.7999 375.04L101.73 376.94C103.82 379 105.9 381.1 108.01 383.09C108.74 383.78 109.5 384.44 110.23 385.09C109.23 384.86 107.38 384.48 107.23 384.46C104.63 384.23 99.4799 385.29 98.3799 387.97C98.2125 388.39 98.1293 388.838 98.1352 389.29C98.1411 389.741 98.2359 390.188 98.4142 390.603C98.5925 391.018 98.8507 391.394 99.1743 391.709C99.4979 392.024 99.8804 392.273 100.3 392.44L100.67 392.56C102.67 393.17 104.96 392.17 106.54 391.04C108.12 389.91 110.19 386.51 110.76 385.51C112.01 386.62 113.27 387.66 114.56 388.63C115.14 389.04 115.67 389.49 116.25 389.86L117.93 390.96C119.1 391.68 120.14 392.36 121.24 393.01L122.87 393.95C121.87 393.56 120.31 392.95 120.17 392.95C117.64 392.32 112.43 392.59 110.86 395.07C110.631 395.461 110.482 395.894 110.421 396.343C110.359 396.792 110.387 397.249 110.502 397.687C110.617 398.125 110.818 398.537 111.092 398.897C111.366 399.258 111.709 399.562 112.1 399.79C112.206 399.855 112.316 399.911 112.43 399.96C114.27 400.85 116.73 400.22 118.43 399.35C120.34 398.35 123.22 394.81 123.57 394.35C124.91 395.12 126.21 395.85 127.45 396.5C131.36 398.59 134.7 400.19 137.06 401.28C139.42 402.37 140.78 402.94 140.78 402.94C141.035 403.037 141.317 403.029 141.566 402.917C141.814 402.805 142.008 402.6 142.105 402.345C142.202 402.09 142.193 401.808 142.082 401.559C141.97 401.311 141.765 401.117 141.51 401.02C141.51 401.02 140.24 400.67 137.88 399.67Z" fill="white"/>
<path d="M77.5398 360.15C77.5398 360.15 79.1398 355.29 78.8798 353.03C78.6498 351.09 77.7698 348.7 76.0598 347.66C75.2864 347.169 74.3499 347.005 73.4557 347.204C72.5616 347.403 71.7827 347.948 71.2898 348.72C71.2223 348.822 71.1622 348.929 71.1098 349.04C69.8898 351.7 72.5698 356.22 74.4998 357.97C74.6598 358.13 77.5298 360.21 77.5398 360.15Z" fill="white"/>
</g>
<path d="M307.76 350C307.88 378.66 330.65 401.83 330.65 401.83C330.65 401.83 353.25 378.5 353.13 349.83C353.01 321.16 330.2 298 330.2 298C330.2 298 307.63 321.29 307.76 350Z" fill="#2257E0"/>
<path d="M330.7 401.76L330.24 297.95" stroke="white" stroke-width="0.993857" stroke-miterlimit="10"/>
<path d="M330.41 334.85L317.64 323.8" stroke="white" stroke-width="0.993857" stroke-miterlimit="10"/>
<path d="M330.67 352L346.33 329.13" stroke="white" stroke-width="0.993857" stroke-miterlimit="10"/>
<path d="M330.52 361.89L311.68 345.22" stroke="white" stroke-width="0.993857" stroke-miterlimit="10"/>
<path d="M330.78 375.21L349.27 358.58" stroke="white" stroke-width="0.993857" stroke-miterlimit="10"/>
<path d="M330.83 386.71L316.25 375.27" stroke="white" stroke-width="0.993857" stroke-miterlimit="10"/>
<path d="M292.22 394.23C303.28 406.61 322.09 407.89 322.09 407.89C322.09 407.89 322.92 389.08 311.83 376.67C300.74 364.26 282 363.06 282 363.06C282 363.06 281.13 381.87 292.22 394.23Z" fill="#2257E0"/>
<path d="M322.1 407.89L281.96 363.02" stroke="white" stroke-width="0.993857" stroke-miterlimit="10"/>
<path d="M296.22 378.97L286.45 379.08" stroke="white" stroke-width="0.993857" stroke-miterlimit="10"/>
<path d="M302.95 386.3L300.94 370.36" stroke="white" stroke-width="0.993857" stroke-miterlimit="10"/>
<path d="M306.68 390.65L292.1 390.67" stroke="white" stroke-width="0.993857" stroke-miterlimit="10"/>
<path d="M311.92 396.33L313.55 382" stroke="white" stroke-width="0.993857" stroke-miterlimit="10"/>
<path d="M316.37 401.3L305.64 401.95" stroke="white" stroke-width="0.993857" stroke-miterlimit="10"/>
<path d="M350 376.07C338.47 388.07 338.62 406.89 338.62 406.89C338.62 406.89 357.42 406.32 368.97 394.33C380.52 382.34 380.36 363.51 380.36 363.51C380.36 363.51 361.53 364.1 350 376.07Z" fill="#2257E0"/>
<path d="M338.62 406.89L380.36 363.51" stroke="white" stroke-width="0.993857" stroke-miterlimit="10"/>
<path d="M365.52 378.94L364.68 369.19" stroke="white" stroke-width="0.993857" stroke-miterlimit="10"/>
<path d="M358.71 386.18L374.46 382.98" stroke="white" stroke-width="0.993857" stroke-miterlimit="10"/>
<path d="M354.65 390.23L353.54 375.68" stroke="white" stroke-width="0.993857" stroke-miterlimit="10"/>
<path d="M349.38 395.88L363.78 396.43" stroke="white" stroke-width="0.993857" stroke-miterlimit="10"/>
<path d="M344.76 400.68L343.31 390.03" stroke="white" stroke-width="0.993857" stroke-miterlimit="10"/>
<g opacity="0.4">
<path d="M307.76 350C307.88 378.66 330.65 401.83 330.65 401.83C330.65 401.83 353.25 378.5 353.13 349.83C353.01 321.16 330.2 298 330.2 298C330.2 298 307.63 321.29 307.76 350Z" fill="white"/>
<path d="M292.22 394.23C303.28 406.61 322.09 407.89 322.09 407.89C322.09 407.89 322.92 389.08 311.83 376.67C300.74 364.26 282 363.06 282 363.06C282 363.06 281.13 381.87 292.22 394.23Z" fill="white"/>
<path d="M350 376.07C338.47 388.07 338.62 406.89 338.62 406.89C338.62 406.89 357.42 406.32 368.97 394.33C380.52 382.34 380.36 363.51 380.36 363.51C380.36 363.51 361.53 364.1 350 376.07Z" fill="white"/>
</g>
<path d="M278.49 100.94C278.59 124.88 297.65 144.22 297.65 144.22C297.65 144.22 316.54 124.73 316.46 100.78C316.38 76.83 297.3 57.49 297.3 57.49C297.3 57.49 278.38 77 278.49 100.94Z" fill="#2257E0"/>
<path d="M297.65 144.22L297.28 57.49" stroke="white" stroke-width="0.993857" stroke-miterlimit="10"/>
<path d="M297.41 88.32L286.74 79.09" stroke="white" stroke-width="0.993857" stroke-miterlimit="10"/>
<path d="M297.64 102.64L310.71 83.54" stroke="white" stroke-width="0.993857" stroke-miterlimit="10"/>
<path d="M297.51 110.91L281.77 96.98" stroke="white" stroke-width="0.993857" stroke-miterlimit="10"/>
<path d="M297.72 122.04L313.17 108.14" stroke="white" stroke-width="0.993857" stroke-miterlimit="10"/>
<path d="M297.76 131.65L285.58 122.09" stroke="white" stroke-width="0.993857" stroke-miterlimit="10"/>
<path d="M265.5 137.93C274.76 148.28 290.5 149.34 290.5 149.34C290.5 149.34 291.2 133.61 281.94 123.27C272.68 112.93 256.94 111.86 256.94 111.86C256.94 111.86 256.24 127.58 265.5 137.93Z" fill="#2257E0"/>
<path d="M290.46 149.34L256.94 111.86" stroke="white" stroke-width="0.993857" stroke-miterlimit="10"/>
<path d="M268.86 125.18L260.68 125.28" stroke="white" stroke-width="0.993857" stroke-miterlimit="10"/>
<path d="M274.46 131.31L272.78 117.99" stroke="white" stroke-width="0.993857" stroke-miterlimit="10"/>
<path d="M277.59 134.94L265.4 134.96" stroke="white" stroke-width="0.993857" stroke-miterlimit="10"/>
<path d="M281.96 139.68L283.33 127.71" stroke="white" stroke-width="0.993857" stroke-miterlimit="10"/>
<path d="M285.68 143.84L276.72 144.38" stroke="white" stroke-width="0.993857" stroke-miterlimit="10"/>
<path d="M313.78 122.76C304.16 132.76 304.27 148.51 304.27 148.51C304.27 148.51 320 148 329.63 138C339.26 128 339.15 112.26 339.15 112.26C339.15 112.26 323.42 112.76 313.78 122.76Z" fill="#2257E0"/>
<path d="M304.27 148.51L339.15 112.27" stroke="white" stroke-width="0.993857" stroke-miterlimit="10"/>
<path d="M326.75 125.15L326.04 117" stroke="white" stroke-width="0.993857" stroke-miterlimit="10"/>
<path d="M321.06 131.21L334.21 128.53" stroke="white" stroke-width="0.993857" stroke-miterlimit="10"/>
<path d="M317.66 134.59L316.73 122.44" stroke="white" stroke-width="0.993857" stroke-miterlimit="10"/>
<path d="M313.26 139.31L325.3 139.77" stroke="white" stroke-width="0.993857" stroke-miterlimit="10"/>
<path d="M309.4 143.32L308.18 134.43" stroke="white" stroke-width="0.993857" stroke-miterlimit="10"/>
<g opacity="0.4">
<path d="M278.49 100.94C278.59 124.88 297.65 144.22 297.65 144.22C297.65 144.22 316.54 124.73 316.46 100.78C316.38 76.83 297.3 57.49 297.3 57.49C297.3 57.49 278.38 77 278.49 100.94Z" fill="white"/>
<path d="M265.5 137.93C274.76 148.28 290.5 149.34 290.5 149.34C290.5 149.34 291.2 133.61 281.94 123.27C272.68 112.93 256.94 111.86 256.94 111.86C256.94 111.86 256.24 127.58 265.5 137.93Z" fill="white"/>
<path d="M313.78 122.76C304.16 132.76 304.27 148.51 304.27 148.51C304.27 148.51 320 148 329.63 138C339.26 128 339.15 112.26 339.15 112.26C339.15 112.26 323.42 112.76 313.78 122.76Z" fill="white"/>
</g>
<path d="M144.07 370.18C144.15 388.84 158.99 403.89 158.99 403.89C158.99 403.89 173.71 388.71 173.62 370.05C173.53 351.39 158.69 336.34 158.69 336.34C158.69 336.34 144 351.53 144.07 370.18Z" fill="#2257E0"/>
<path d="M158.99 403.89L158.69 336.34" stroke="white" stroke-width="0.993857" stroke-miterlimit="10"/>
<path d="M158.8 360.35L150.5 353.17" stroke="white" stroke-width="0.993857" stroke-miterlimit="10"/>
<path d="M158.98 371.51L169.16 356.63" stroke="white" stroke-width="0.993857" stroke-miterlimit="10"/>
<path d="M158.88 377.95L146.61 367.11" stroke="white" stroke-width="0.993857" stroke-miterlimit="10"/>
<path d="M159.05 386.62L171.08 375.8" stroke="white" stroke-width="0.993857" stroke-miterlimit="10"/>
<path d="M159.08 394.1L149.59 386.66" stroke="white" stroke-width="0.993857" stroke-miterlimit="10"/>
<path d="M134 399C141.2 407.06 153.43 407.85 153.43 407.85C153.43 407.85 153.98 395.6 146.8 387.54C139.62 379.48 127.35 378.69 127.35 378.69C127.35 378.69 126.74 390.94 134 399Z" fill="#2257E0"/>
<path d="M153.39 407.89L127.28 378.69" stroke="white" stroke-width="0.993857" stroke-miterlimit="10"/>
<path d="M136.57 389.07L130.2 389.15" stroke="white" stroke-width="0.993857" stroke-miterlimit="10"/>
<path d="M140.94 393.84L139.62 383.46" stroke="white" stroke-width="0.993857" stroke-miterlimit="10"/>
<path d="M143.37 396.67L133.88 396.68" stroke="white" stroke-width="0.993857" stroke-miterlimit="10"/>
<path d="M146.78 400.36L147.83 391.04" stroke="white" stroke-width="0.993857" stroke-miterlimit="10"/>
<path d="M149.67 403.61L142.69 404.03" stroke="white" stroke-width="0.993857" stroke-miterlimit="10"/>
<path d="M171.56 387.18C164.06 394.98 164.15 407.23 164.15 407.23C164.15 407.23 176.4 406.86 183.91 399.07C191.42 391.28 191.26 379 191.26 379C191.26 379 179.09 379.39 171.56 387.18Z" fill="#2257E0"/>
<path d="M164.15 407.23L191.31 379.01" stroke="white" stroke-width="0.993857" stroke-miterlimit="10"/>
<path d="M181.66 389.05L181.11 382.7" stroke="white" stroke-width="0.993857" stroke-miterlimit="10"/>
<path d="M177.22 393.76L187.47 391.68" stroke="white" stroke-width="0.993857" stroke-miterlimit="10"/>
<path d="M174.58 396.39L173.86 386.93" stroke="white" stroke-width="0.993857" stroke-miterlimit="10"/>
<path d="M171.15 400.07L180.53 400.43" stroke="white" stroke-width="0.993857" stroke-miterlimit="10"/>
<path d="M168.14 403.2L167.2 396.27" stroke="white" stroke-width="0.993857" stroke-miterlimit="10"/>
<g opacity="0.4">
<path d="M144.07 370.18C144.15 388.84 158.99 403.89 158.99 403.89C158.99 403.89 173.71 388.71 173.62 370.05C173.53 351.39 158.69 336.34 158.69 336.34C158.69 336.34 144 351.53 144.07 370.18Z" fill="white"/>
<path d="M134 399C141.2 407.06 153.43 407.85 153.43 407.85C153.43 407.85 153.98 395.6 146.8 387.54C139.62 379.48 127.35 378.69 127.35 378.69C127.35 378.69 126.74 390.94 134 399Z" fill="white"/>
<path d="M171.56 387.18C164.06 394.98 164.15 407.23 164.15 407.23C164.15 407.23 176.4 406.86 183.91 399.07C191.42 391.28 191.26 379 191.26 379C191.26 379 179.09 379.39 171.56 387.18Z" fill="white"/>
</g>
<path d="M132.46 88.19L119.52 99.49L131.32 137.02L158.53 136.52L164.58 90.48L145.25 85.23L132.46 88.19Z" fill="white"/>
<mask id="mask0_10_1051" style="mask-type:luminance" maskUnits="userSpaceOnUse" x="119" y="85" width="46" height="53">
<path d="M132.46 88.19L119.52 99.49L131.32 137.02L158.53 136.52L164.58 90.48L145.25 85.23L132.46 88.19Z" fill="white"/>
</mask>
<g mask="url(#mask0_10_1051)">
<path opacity="0.5" d="M155 91.47C152.7 90.96 149.12 89.68 149.12 89.68C149.12 89.68 134.54 89.43 132.22 98.89L131.46 102.73L135.3 101.73L130.43 109.16C129.91 109.94 129.43 102.76 128.38 103.53C127.33 104.3 125.1 114 125.1 114L126.58 121.94L131.32 137.04L158.52 136.54L163.87 95.88C162.43 95 157 91.91 155 91.47Z" fill="#2257E0"/>
</g>
<path d="M132.46 88.19L119.52 99.49L131.32 137.02L158.53 136.52L164.58 90.48L145.25 85.23L132.46 88.19Z" stroke="#263238" stroke-width="0.829701" stroke-linecap="round" stroke-linejoin="round"/>
<path d="M134.93 96.05L139.34 101.3L138.21 132.76L142.46 138.49L146.89 129.97L140.66 101.3L144.27 95.23L142.8 90.16L134.93 96.05Z" fill="#263238" stroke="#263238" stroke-width="0.829701" stroke-linecap="round" stroke-linejoin="round"/>
<path d="M131.32 87C130.645 89.1749 130.274 91.4332 130.22 93.71C130.368 96.3434 130.862 98.9458 131.69 101.45C131.69 101.45 135.01 97.18 137.22 96.37C139.43 95.56 143.94 95.06 145.42 95.71C146.9 96.36 150.5 98.71 150.5 98.71C150.619 95.2457 150.062 91.7913 148.86 88.54C146.86 83.63 146.07 81.82 144.75 81.34C143.43 80.86 133.61 80.15 131.32 87Z" fill="white" stroke="#263238" stroke-width="0.829701" stroke-linecap="round" stroke-linejoin="round"/>
<path d="M119.52 99.49L109.4 125.38C109.4 125.38 117.26 129.97 117.4 129.47C117.54 128.97 125.53 118.47 125.53 118.47L119.52 99.49Z" fill="white"/>
<mask id="mask1_10_1051" style="mask-type:luminance" maskUnits="userSpaceOnUse" x="109" y="99" width="17" height="31">
<path d="M119.52 99.49L109.4 125.38C109.4 125.38 117.26 129.97 117.4 129.47C117.54 128.97 125.53 118.47 125.53 118.47L119.52 99.49Z" fill="white"/>
</mask>
<g mask="url(#mask1_10_1051)">
<path opacity="0.5" d="M121.77 113.48C121.77 113.48 115.21 110.94 116.91 112.48C118.629 114.175 120.251 115.964 121.77 117.84L115.63 120.92L119.94 125.92C122.32 122.71 125.53 118.5 125.53 118.5L121.25 104.93L121 105.03L121.77 113.48Z" fill="#2257E0"/>
</g>
<path d="M119.52 99.49L109.4 125.38C109.4 125.38 117.26 129.97 117.4 129.47C117.54 128.97 125.53 118.47 125.53 118.47L119.52 99.49Z" stroke="#263238" stroke-width="0.829701" stroke-linecap="round" stroke-linejoin="round"/>
<path d="M164.58 90.48L189.44 110.39L179.76 116.1L162.62 106.21L164.58 90.48Z" fill="white"/>
<mask id="mask2_10_1051" style="mask-type:luminance" maskUnits="userSpaceOnUse" x="162" y="90" width="28" height="27">
<path d="M164.58 90.48L189.44 110.39L179.76 116.1L162.62 106.21L164.58 90.48Z" fill="white"/>
</mask>
<g mask="url(#mask2_10_1051)">
<path opacity="0.5" d="M181.13 113.22L172.69 107.08C172.69 107.08 176.53 106.31 177.29 105.29C178.05 104.27 168.29 104.53 168.29 104.53L171.36 100.43L165.48 102.43V99.91L163.86 95.91L162.58 106.19L179.72 116.08L181.2 115.2L181.13 113.22Z" fill="#2257E0"/>
</g>
<path d="M164.58 90.48L189.44 110.39L179.76 116.1L162.62 106.21L164.58 90.48Z" stroke="#263238" stroke-width="0.829701" stroke-linecap="round" stroke-linejoin="round"/>
<path d="M131.32 87C131.32 87 133.45 92.74 135.9 95C138.35 97.26 140.5 96.8 142.13 94.67C143.76 92.54 145.57 85.49 146.07 85.16C146.57 84.83 148.36 83.16 148.36 81.56C148.36 79.96 146.24 80.74 145.9 81.4L145.57 82.05L143.94 78.61C143.184 80.536 142.25 82.3873 141.15 84.14C139.84 85.95 139.51 87.26 138.21 86.28C136.91 85.3 135.9 83.82 134.89 85.46C133.88 87.1 131.32 87 131.32 87Z" fill="white" stroke="#263238" stroke-width="0.829701" stroke-linecap="round" stroke-linejoin="round"/>
<path opacity="0.5" d="M145.9 81.47L145.57 82.12L143.94 78.68C143.184 80.606 142.25 82.4573 141.15 84.21C139.84 86.02 139.51 87.33 138.21 86.35C136.91 85.37 135.9 83.89 134.89 85.53C133.88 87.17 131.28 87 131.28 87C131.28 87 131.78 88.35 132.57 90C136.8 90.22 143.64 89.82 145.21 85.2V87.14C145.371 86.4562 145.637 85.8017 146 85.2C146.48 84.88 148.29 83.2 148.29 81.59C148.29 79.98 146.24 80.81 145.9 81.47Z" fill="#2257E0"/>
<path d="M133.19 88.92C133.19 88.92 135.48 89.92 136.3 89.27C136.3 89.27 136.47 93.83 137.61 93.42L139.06 92.42" stroke="#263238" stroke-width="0.553134" stroke-linecap="round" stroke-linejoin="round"/>
<path d="M139.69 89.06C139.69 89.06 140.89 90.06 142.76 88.41" stroke="#263238" stroke-width="0.553134" stroke-linecap="round" stroke-linejoin="round"/>
<path d="M138.86 88.23C138.86 88.23 138.86 85.74 142.8 85.95" stroke="#263238" stroke-width="0.553134" stroke-linecap="round" stroke-linejoin="round"/>
<path d="M136.3 89.27C136.14 88.6274 135.812 88.0388 135.35 87.5645C134.888 87.0901 134.308 86.7469 133.67 86.57" stroke="#263238" stroke-width="0.553134" stroke-linecap="round" stroke-linejoin="round"/>
<path d="M136.78 94.24C137.41 94.522 138.114 94.5936 138.787 94.4441C139.461 94.2946 140.069 93.932 140.52 93.41" stroke="#263238" stroke-width="0.553134" stroke-linecap="round" stroke-linejoin="round"/>
<path d="M147.54 81.63C147.54 81.63 152.07 76.87 149.59 71.4C147.96 67.81 147.71 67.95 143.77 63.77C139.83 59.59 131.77 61.87 129.07 64.77C126.37 67.67 128.24 72.85 127.2 73.47C126.16 74.09 119.94 75.96 120.2 78.47C120.46 80.98 127.2 82.2 126.42 83.03C125.64 83.86 120.2 83.65 122.69 85.73C125.18 87.81 132.36 88.86 138.26 86.4C144.16 83.94 143.79 80.33 143.79 80.33C143.79 80.33 144.47 84.39 147.54 81.63Z" fill="#263238" stroke="#263238" stroke-width="0.829701" stroke-linecap="round" stroke-linejoin="round"/>
<path d="M133.05 85.93C133.05 85.93 136.55 86.55 140.65 83.26C144.75 79.97 141.88 75.52 141.88 75.52" stroke="white" stroke-width="0.553134" stroke-linecap="round" stroke-linejoin="round"/>
<path d="M144.54 72.18C144.54 72.18 146.76 79.35 144.75 81.31" stroke="white" stroke-width="0.553134" stroke-linecap="round" stroke-linejoin="round"/>
<path d="M126.37 83C126.37 83 133.01 84.48 136.32 80.79" stroke="white" stroke-width="0.553134" stroke-linecap="round" stroke-linejoin="round"/>
<path d="M111.32 128.84C111.32 128.84 106.32 127.74 107.17 124.97C108.02 122.2 107.17 119.16 113.26 119.71C119.35 120.26 121.83 121.65 121.83 124.42C121.83 127.19 121 131.88 117.68 130.5C115.646 129.658 113.506 129.1 111.32 128.84Z" fill="white" stroke="#263238" stroke-width="0.829701" stroke-linecap="round" stroke-linejoin="round"/>
<path d="M169.58 101.66L162.62 106.21L174.77 103.39" stroke="#263238" stroke-width="0.553134" stroke-linecap="round" stroke-linejoin="round"/>
<path d="M124.76 116.86L119.25 111.59" stroke="#263238" stroke-width="0.553134" stroke-linecap="round" stroke-linejoin="round"/>
<path d="M122.29 115.91L118.61 113.96" stroke="#263238" stroke-width="0.553134" stroke-linecap="round" stroke-linejoin="round"/>
<path d="M157.92 109.22L151.44 109.43V111.37H157.49" stroke="#263238" stroke-width="0.553134" stroke-linecap="round" stroke-linejoin="round"/>
<path opacity="0.5" d="M110.25 126.78C110.25 126.78 107.19 125.21 108.46 124.22C110.444 123.001 112.805 122.546 115.1 122.94C116.433 123.302 117.718 123.819 118.93 124.48C118.93 124.48 115.62 121.92 117.65 121.92C119.68 121.92 120.97 124.48 120.21 127.04C119.45 129.6 116.37 128.83 116.37 128.83L110.25 126.78Z" fill="#2257E0"/>
<path d="M258.29 387.49V351.61H200.55V387.49C200.559 393.637 198.132 399.538 193.8 403.9L180.64 417.18H278.2L265.05 403.9C260.711 399.542 258.279 393.64 258.29 387.49Z" fill="white" stroke="#263238" stroke-width="1.10627" stroke-linecap="round" stroke-linejoin="round"/>
<path opacity="0.44" d="M200.55 351.61V387.49C200.547 390.271 200.043 393.028 199.06 395.63H259.78C258.802 393.027 258.297 390.27 258.29 387.49V351.61H200.55Z" fill="#2257E0"/>
<path d="M258.29 353.23H200.55V379.85H258.29V353.23Z" fill="#263238" stroke="#263238" stroke-width="1.10627" stroke-miterlimit="10"/>
<path d="M278.19 417.18H180.64V419.08H278.19V417.18Z" fill="white" stroke="#263238" stroke-width="1.10627" stroke-linecap="round" stroke-linejoin="round"/>
<path d="M89.3902 132H369.46C371.24 131.999 373.003 132.349 374.648 133.03C376.293 133.711 377.787 134.71 379.044 135.97C380.302 137.23 381.299 138.725 381.978 140.371C382.657 142.016 383.004 143.78 383 145.56V354.64C382.987 358.534 381.428 362.264 378.666 365.009C375.904 367.754 372.164 369.291 368.27 369.28H90.5901C86.6968 369.28 82.9629 367.733 80.2098 364.98C77.4568 362.227 75.9102 358.493 75.9102 354.6V145.51C75.9154 141.934 77.3364 138.505 79.8624 135.973C82.3884 133.442 85.8139 132.013 89.3902 132Z" fill="#263238" stroke="#263238" stroke-width="1.10627" stroke-miterlimit="10"/>
<path d="M75.8601 341.82H383V354.6C383 358.493 381.453 362.227 378.7 364.98C375.947 367.733 372.214 369.28 368.32 369.28H90.5901C86.6967 369.28 82.9628 367.733 80.2098 364.98C77.4567 362.227 75.9101 358.493 75.9101 354.6V341.82H75.8601Z" fill="white" stroke="#263238" stroke-width="1.10627" stroke-miterlimit="10"/>
<path d="M395.08 146.98H120.49V330.03H395.08V146.98Z" fill="white" stroke="#263238" stroke-width="0.829701" stroke-linecap="round" stroke-linejoin="round"/>
<path d="M395.08 146.98H120.49V206.3H395.08V146.98Z" fill="#2257E0"/>
<path d="M148.47 317.7H137.41V221H148.47V317.7ZM170.15 220.94H159.15V317.7H170.21L170.15 220.94ZM191.84 220.94H180.77V317.7H191.84V220.94ZM213.51 220.94H202.45V317.7H213.51V220.94ZM235.19 220.94H224.13V317.7H235.19V220.94ZM256.86 220.94H245.8V317.7H256.86V220.94ZM278.55 220.94H267.48V317.7H278.55V220.94ZM300.23 220.94H289.17V317.7H300.23V220.94ZM321.9 220.94H310.84V317.7H321.9V220.94ZM343.58 220.94H332.52V317.7H343.58V220.94Z" fill="#2257E0"/>
<path opacity="0.4" d="M148.47 317.7H137.41V221H148.47V317.7ZM170.15 220.94H159.15V317.7H170.21L170.15 220.94ZM191.84 220.94H180.77V317.7H191.84V220.94ZM213.51 220.94H202.45V317.7H213.51V220.94ZM235.19 220.94H224.13V317.7H235.19V220.94ZM256.86 220.94H245.8V317.7H256.86V220.94ZM278.55 220.94H267.48V317.7H278.55V220.94ZM300.23 220.94H289.17V317.7H300.23V220.94ZM321.9 220.94H310.84V317.7H321.9V220.94ZM343.58 220.94H332.52V317.7H343.58V220.94Z" fill="white"/>
<path d="M206.14 169.19H133.43C132.786 169.19 132.167 168.934 131.712 168.478C131.256 168.023 131 167.405 131 166.76C131.003 166.117 131.26 165.502 131.715 165.048C132.171 164.595 132.787 164.34 133.43 164.34H206.14C206.782 164.34 207.397 164.595 207.851 165.049C208.305 165.503 208.56 166.118 208.56 166.76C208.561 167.079 208.5 167.394 208.379 167.689C208.258 167.984 208.08 168.252 207.855 168.478C207.63 168.703 207.363 168.883 207.068 169.005C206.774 169.127 206.459 169.19 206.14 169.19Z" fill="white" stroke="#263238" stroke-width="0.829701" stroke-linecap="round" stroke-linejoin="round"/>
<path d="M184.14 169.19H133.43C132.786 169.19 132.167 168.934 131.712 168.478C131.256 168.023 131 167.405 131 166.76C131.003 166.117 131.26 165.502 131.715 165.048C132.171 164.595 132.787 164.34 133.43 164.34H184.14V169.19Z" fill="#263238" stroke="#263238" stroke-width="1.10627" stroke-linecap="round" stroke-linejoin="round"/>
<path d="M206.14 178.7H133.43C133.111 178.701 132.796 178.64 132.501 178.519C132.206 178.398 131.938 178.22 131.712 177.995C131.487 177.77 131.307 177.503 131.185 177.208C131.063 176.914 131 176.599 131 176.28C131 175.961 131.063 175.646 131.185 175.352C131.307 175.057 131.487 174.79 131.712 174.565C131.938 174.34 132.206 174.162 132.501 174.041C132.796 173.92 133.111 173.859 133.43 173.86H206.14C206.782 173.86 207.397 174.115 207.851 174.569C208.305 175.023 208.56 175.638 208.56 176.28C208.56 176.922 208.305 177.537 207.851 177.991C207.397 178.445 206.782 178.7 206.14 178.7Z" fill="white" stroke="#263238" stroke-width="0.829701" stroke-linecap="round" stroke-linejoin="round"/>
<path d="M193.47 178.7H133.47C133.151 178.701 132.836 178.64 132.541 178.519C132.246 178.398 131.978 178.22 131.752 177.995C131.527 177.77 131.347 177.503 131.225 177.208C131.103 176.914 131.04 176.599 131.04 176.28C131.04 175.961 131.103 175.646 131.225 175.352C131.347 175.057 131.527 174.79 131.752 174.565C131.978 174.34 132.246 174.162 132.541 174.041C132.836 173.92 133.151 173.859 133.47 173.86H193.47V178.7Z" fill="#263238" stroke="#263238" stroke-width="1.10627" stroke-linecap="round" stroke-linejoin="round"/>
<path d="M206.14 188.27H133.43C133.111 188.271 132.796 188.21 132.501 188.089C132.206 187.968 131.938 187.79 131.712 187.565C131.487 187.34 131.307 187.073 131.185 186.778C131.063 186.484 131 186.169 131 185.85C131 185.206 131.256 184.587 131.712 184.132C132.167 183.676 132.786 183.42 133.43 183.42H206.14C206.459 183.42 206.774 183.483 207.068 183.605C207.363 183.727 207.63 183.907 207.855 184.132C208.08 184.358 208.258 184.626 208.379 184.921C208.5 185.216 208.561 185.531 208.56 185.85C208.56 186.492 208.305 187.107 207.851 187.561C207.397 188.015 206.782 188.27 206.14 188.27Z" fill="white" stroke="#263238" stroke-width="0.829701" stroke-linecap="round" stroke-linejoin="round"/>
<path d="M171.17 188.27H133.43C133.111 188.271 132.796 188.21 132.501 188.089C132.206 187.968 131.938 187.79 131.712 187.565C131.487 187.34 131.307 187.073 131.185 186.778C131.063 186.484 131 186.169 131 185.85C131 185.206 131.256 184.587 131.712 184.132C132.167 183.676 132.786 183.42 133.43 183.42H171.17V188.27Z" fill="#263238" stroke="#263238" stroke-width="1.10627" stroke-linecap="round" stroke-linejoin="round"/>
<path d="M206.14 197.73H133.43C132.787 197.73 132.171 197.475 131.715 197.022C131.26 196.568 131.003 195.953 131 195.31C131.003 194.665 131.259 194.048 131.714 193.591C132.169 193.134 132.785 192.875 133.43 192.87H206.14C206.784 192.875 207.399 193.135 207.852 193.592C208.306 194.049 208.56 194.666 208.56 195.31C208.56 195.952 208.305 196.567 207.851 197.021C207.397 197.475 206.782 197.73 206.14 197.73Z" fill="white" stroke="#263238" stroke-width="0.829701" stroke-linecap="round" stroke-linejoin="round"/>
<path d="M203.52 197.73H133.43C132.787 197.73 132.171 197.475 131.715 197.022C131.26 196.568 131.003 195.953 131 195.31C131.003 194.665 131.259 194.048 131.714 193.591C132.169 193.134 132.785 192.875 133.43 192.87H203.52V197.73Z" fill="#263238" stroke="#263238" stroke-width="1.10627" stroke-linecap="round" stroke-linejoin="round"/>
<path d="M131.53 317.73H349.42" stroke="#263238" stroke-width="0.829701" stroke-linecap="round" stroke-linejoin="round"/>
<path d="M153.32 317.73V315.54" stroke="#263238" stroke-width="0.829701" stroke-linecap="round" stroke-linejoin="round"/>
<path d="M175.11 317.73V315.54" stroke="#263238" stroke-width="0.829701" stroke-linecap="round" stroke-linejoin="round"/>
<path d="M196.9 317.73V315.54" stroke="#263238" stroke-width="0.829701" stroke-linecap="round" stroke-linejoin="round"/>
<path d="M218.69 317.73V315.54" stroke="#263238" stroke-width="0.829701" stroke-linecap="round" stroke-linejoin="round"/>
<path d="M240.48 317.73V315.54" stroke="#263238" stroke-width="0.829701" stroke-linecap="round" stroke-linejoin="round"/>
<path d="M262.27 317.73V315.54" stroke="#263238" stroke-width="0.829701" stroke-linecap="round" stroke-linejoin="round"/>
<path d="M284.06 317.73V315.54" stroke="#263238" stroke-width="0.829701" stroke-linecap="round" stroke-linejoin="round"/>
<path d="M305.85 317.73V315.54" stroke="#263238" stroke-width="0.829701" stroke-linecap="round" stroke-linejoin="round"/>
<path d="M327.64 317.73V315.54" stroke="#263238" stroke-width="0.829701" stroke-linecap="round" stroke-linejoin="round"/>
<path d="M349.42 317.73V315.54" stroke="#263238" stroke-width="0.829701" stroke-linecap="round" stroke-linejoin="round"/>
<path d="M131.53 317.73V309.09V221.28" stroke="#263238" stroke-width="0.829701" stroke-linecap="round" stroke-linejoin="round"/>
<path d="M131.53 309.09H136.98" stroke="#263238" stroke-width="0.829701" stroke-linecap="round" stroke-linejoin="round"/>
<path d="M131.53 294.45H136.98" stroke="#263238" stroke-width="0.829701" stroke-linecap="round" stroke-linejoin="round"/>
<path d="M131.53 279.81H136.98" stroke="#263238" stroke-width="0.829701" stroke-linecap="round" stroke-linejoin="round"/>
<path d="M131.53 265.19H136.98" stroke="#263238" stroke-width="0.829701" stroke-linecap="round" stroke-linejoin="round"/>
<path d="M131.53 250.55H136.98" stroke="#263238" stroke-width="0.829701" stroke-linecap="round" stroke-linejoin="round"/>
<path d="M131.53 235.92H136.98" stroke="#263238" stroke-width="0.829701" stroke-linecap="round" stroke-linejoin="round"/>
<path d="M131.53 221.28H136.98" stroke="#263238" stroke-width="0.829701" stroke-linecap="round" stroke-linejoin="round"/>
<path d="M388.96 162.53H353.42V199.13H388.96V162.53Z" fill="white" stroke="#263238" stroke-width="0.829701" stroke-linecap="round" stroke-linejoin="round"/>
<path d="M388.96 162.53H353.42V168.81H388.96V162.53Z" fill="#263238" stroke="#263238" stroke-width="1.00786" stroke-linecap="round" stroke-linejoin="round"/>
<path d="M356.68 173.93V194.72" stroke="#263238" stroke-width="0.829701" stroke-linecap="round" stroke-linejoin="round"/>
<path d="M361.48 173.93V194.72" stroke="#263238" stroke-width="0.829701" stroke-linecap="round" stroke-linejoin="round"/>
<path d="M366.27 173.93V194.72" stroke="#263238" stroke-width="0.829701" stroke-linecap="round" stroke-linejoin="round"/>
<path d="M371.07 173.93V194.72" stroke="#263238" stroke-width="0.829701" stroke-linecap="round" stroke-linejoin="round"/>
<path d="M375.88 173.93V194.72" stroke="#263238" stroke-width="0.829701" stroke-linecap="round" stroke-linejoin="round"/>
<path d="M380.68 173.93V194.72" stroke="#263238" stroke-width="0.829701" stroke-linecap="round" stroke-linejoin="round"/>
<path d="M385.48 173.93V194.72" stroke="#263238" stroke-width="0.829701" stroke-linecap="round" stroke-linejoin="round"/>
<path d="M385.16 176.65H356.84" stroke="#263238" stroke-width="0.829701" stroke-linecap="round" stroke-linejoin="round"/>
<path d="M385.16 180.49H356.84" stroke="#263238" stroke-width="0.829701" stroke-linecap="round" stroke-linejoin="round"/>
<path d="M385.16 184.33H356.84" stroke="#263238" stroke-width="0.829701" stroke-linecap="round" stroke-linejoin="round"/>
<path d="M385.16 188.17H356.84" stroke="#263238" stroke-width="0.829701" stroke-linecap="round" stroke-linejoin="round"/>
<path d="M385.16 192.01H356.84" stroke="#263238" stroke-width="0.829701" stroke-linecap="round" stroke-linejoin="round"/>
<path d="M164.21 273.83L142.43 317.73" stroke="#263238" stroke-width="2.21254" stroke-linecap="round" stroke-linejoin="round"/>
<path d="M186.01 303.09L164.21 273.83" stroke="#263238" stroke-width="2.21254" stroke-linecap="round" stroke-linejoin="round"/>
<path d="M207.8 279.68L186.01 303.09" stroke="#263238" stroke-width="2.21254" stroke-linecap="round" stroke-linejoin="round"/>
<path d="M229.58 229.93L207.8 279.68" stroke="#263238" stroke-width="2.21254" stroke-linecap="round" stroke-linejoin="round"/>
<path d="M251.38 244.56L229.58 229.93" stroke="#263238" stroke-width="2.21254" stroke-linecap="round" stroke-linejoin="round"/>
<path d="M273.16 295.78L251.38 244.56" stroke="#263238" stroke-width="2.21254" stroke-linecap="round" stroke-linejoin="round"/>
<path d="M294.95 291.39L273.16 295.78" stroke="#263238" stroke-width="2.21254" stroke-linecap="round" stroke-linejoin="round"/>
<path d="M316.75 285.53L294.95 291.39" stroke="#263238" stroke-width="2.21254" stroke-linecap="round" stroke-linejoin="round"/>
<path d="M338.53 259.19L316.75 285.53" stroke="#263238" stroke-width="2.21254" stroke-linecap="round" stroke-linejoin="round"/>
<path d="M142.43 315.49C143.035 315.49 143.615 315.73 144.042 316.158C144.47 316.585 144.71 317.165 144.71 317.77C144.71 318.376 144.47 318.957 144.043 319.386C143.616 319.815 143.036 320.057 142.43 320.06C141.824 320.057 141.243 319.815 140.814 319.386C140.385 318.957 140.143 318.377 140.14 317.77C140.143 317.164 140.385 316.584 140.814 316.157C141.244 315.73 141.825 315.49 142.43 315.49Z" fill="white" stroke="#263238" stroke-width="0.829701" stroke-linecap="round" stroke-linejoin="round"/>
<path d="M164.21 271.55C164.816 271.55 165.397 271.79 165.826 272.217C166.255 272.644 166.498 273.224 166.5 273.83C166.498 274.436 166.255 275.016 165.826 275.443C165.397 275.87 164.816 276.11 164.21 276.11C163.605 276.11 163.026 275.87 162.598 275.442C162.17 275.015 161.93 274.435 161.93 273.83C161.93 273.225 162.17 272.645 162.598 272.218C163.026 271.79 163.605 271.55 164.21 271.55Z" fill="white" stroke="#263238" stroke-width="0.829701" stroke-linecap="round" stroke-linejoin="round"/>
<path d="M186 300.81C186.605 300.81 187.185 301.05 187.612 301.478C188.04 301.905 188.28 302.485 188.28 303.09C188.28 303.696 188.04 304.277 187.613 304.706C187.186 305.135 186.606 305.377 186 305.38C185.395 305.377 184.815 305.135 184.387 304.706C183.96 304.277 183.72 303.696 183.72 303.09C183.72 302.485 183.96 301.905 184.388 301.478C184.816 301.05 185.396 300.81 186 300.81Z" fill="white" stroke="#263238" stroke-width="0.829701" stroke-linecap="round" stroke-linejoin="round"/>
<path d="M207.86 277.4C208.463 277.403 209.04 277.644 209.466 278.071C209.891 278.499 210.13 279.077 210.13 279.68C210.13 280.283 209.891 280.861 209.466 281.289C209.04 281.716 208.463 281.957 207.86 281.96C207.254 281.96 206.673 281.72 206.244 281.293C205.815 280.866 205.573 280.286 205.57 279.68C205.573 279.074 205.815 278.495 206.244 278.067C206.673 277.64 207.254 277.4 207.86 277.4Z" fill="white" stroke="#263238" stroke-width="0.829701" stroke-linecap="round" stroke-linejoin="round"/>
<path d="M229.58 227.64C230.187 227.64 230.77 227.881 231.199 228.311C231.629 228.74 231.87 229.323 231.87 229.93C231.867 230.536 231.625 231.116 231.196 231.543C230.767 231.97 230.186 232.21 229.58 232.21C229.281 232.21 228.984 232.151 228.708 232.036C228.431 231.922 228.18 231.754 227.968 231.542C227.756 231.331 227.588 231.079 227.474 230.803C227.359 230.526 227.3 230.229 227.3 229.93C227.3 229.324 227.54 228.743 227.967 228.314C228.395 227.885 228.974 227.643 229.58 227.64Z" fill="white" stroke="#263238" stroke-width="0.829701" stroke-linecap="round" stroke-linejoin="round"/>
<path d="M251.38 242.28C251.984 242.283 252.562 242.524 252.989 242.951C253.416 243.378 253.657 243.956 253.66 244.56C253.66 245.166 253.42 245.747 252.993 246.176C252.566 246.605 251.986 246.847 251.38 246.85C250.774 246.847 250.195 246.605 249.767 246.176C249.34 245.747 249.1 245.166 249.1 244.56C249.1 243.955 249.34 243.375 249.768 242.948C250.195 242.52 250.775 242.28 251.38 242.28Z" fill="white" stroke="#263238" stroke-width="0.829701" stroke-linecap="round" stroke-linejoin="round"/>
<path d="M273.13 293.5C273.736 293.5 274.317 293.74 274.746 294.167C275.175 294.594 275.417 295.174 275.42 295.78C275.417 296.386 275.175 296.966 274.746 297.393C274.317 297.82 273.736 298.06 273.13 298.06C272.525 298.06 271.945 297.82 271.518 297.392C271.09 296.965 270.85 296.385 270.85 295.78C270.85 295.175 271.09 294.595 271.518 294.168C271.945 293.74 272.525 293.5 273.13 293.5Z" fill="white" stroke="#263238" stroke-width="0.829701" stroke-linecap="round" stroke-linejoin="round"/>
<path d="M295 289.11C295.605 289.11 296.185 289.35 296.612 289.778C297.04 290.205 297.28 290.785 297.28 291.39C297.28 291.996 297.04 292.577 296.613 293.006C296.186 293.435 295.606 293.677 295 293.68C294.395 293.677 293.815 293.435 293.387 293.006C292.96 292.577 292.72 291.996 292.72 291.39C292.72 290.785 292.96 290.205 293.388 289.778C293.816 289.35 294.396 289.11 295 289.11Z" fill="white" stroke="#263238" stroke-width="0.829701" stroke-linecap="round" stroke-linejoin="round"/>
<path d="M316.75 283.25C317.353 283.253 317.931 283.494 318.356 283.921C318.781 284.349 319.02 284.927 319.02 285.53C319.02 286.133 318.781 286.711 318.356 287.139C317.931 287.566 317.353 287.807 316.75 287.81C316.145 287.81 315.564 287.57 315.134 287.143C314.705 286.716 314.463 286.136 314.46 285.53C314.463 284.924 314.705 284.344 315.134 283.917C315.564 283.49 316.145 283.25 316.75 283.25Z" fill="white" stroke="#263238" stroke-width="0.829701" stroke-linecap="round" stroke-linejoin="round"/>
<path d="M338.53 256.91C339.136 256.91 339.717 257.15 340.146 257.577C340.575 258.005 340.817 258.584 340.82 259.19C340.817 259.796 340.575 260.376 340.146 260.803C339.717 261.23 339.136 261.47 338.53 261.47C337.925 261.47 337.345 261.23 336.918 260.802C336.49 260.375 336.25 259.795 336.25 259.19C336.25 258.585 336.49 258.005 336.918 257.578C337.345 257.15 337.925 256.91 338.53 256.91Z" fill="white" stroke="#263238" stroke-width="0.829701" stroke-linecap="round" stroke-linejoin="round"/>
<path d="M170.39 263.66H158.49C157.695 263.66 156.932 263.344 156.369 262.781C155.806 262.219 155.49 261.456 155.49 260.66C155.49 259.873 155.799 259.117 156.351 258.556C156.903 257.995 157.653 257.673 158.44 257.66H170.35C171.146 257.66 171.909 257.976 172.472 258.539C173.034 259.101 173.35 259.864 173.35 260.66C173.35 261.456 173.034 262.219 172.472 262.781C171.909 263.344 171.146 263.66 170.35 263.66H170.39Z" fill="white" stroke="#263238" stroke-width="0.829701" stroke-linecap="round" stroke-linejoin="round"/>
<path d="M164.21 271.55V263.95" stroke="#263238" stroke-width="0.829701" stroke-linecap="round" stroke-linejoin="round"/>
<path d="M235.51 219.84H223.58C222.784 219.84 222.021 219.524 221.459 218.961C220.896 218.399 220.58 217.636 220.58 216.84C220.58 216.044 220.896 215.281 221.459 214.719C222.021 214.156 222.784 213.84 223.58 213.84H235.58C236.376 213.84 237.139 214.156 237.701 214.719C238.264 215.281 238.58 216.044 238.58 216.84C238.58 217.24 238.5 217.636 238.345 218.004C238.19 218.373 237.963 218.707 237.677 218.986C237.391 219.266 237.052 219.485 236.68 219.632C236.308 219.779 235.91 219.849 235.51 219.84Z" fill="white" stroke="#263238" stroke-width="0.829701" stroke-linecap="round" stroke-linejoin="round"/>
<path d="M229.3 227.73V220.13" stroke="#263238" stroke-width="0.829701" stroke-linecap="round" stroke-linejoin="round"/>
<path d="M344.21 248.66H332.32C331.524 248.66 330.761 248.344 330.199 247.781C329.636 247.219 329.32 246.456 329.32 245.66C329.32 244.864 329.636 244.101 330.199 243.539C330.761 242.976 331.524 242.66 332.32 242.66H344.21C344.989 242.66 345.737 242.962 346.297 243.503C346.857 244.044 347.184 244.782 347.21 245.56V245.63C347.21 246.426 346.894 247.189 346.331 247.751C345.769 248.314 345.006 248.63 344.21 248.63V248.66Z" fill="white" stroke="#263238" stroke-width="0.829701" stroke-linecap="round" stroke-linejoin="round"/>
<path d="M338.04 256.55V248.95" stroke="#263238" stroke-width="0.829701" stroke-linecap="round" stroke-linejoin="round"/>
<path d="M238.69 162.53C235.29 162.53 231.967 163.538 229.14 165.427C226.313 167.316 224.11 170.001 222.809 173.142C221.507 176.283 221.167 179.739 221.83 183.074C222.494 186.408 224.131 189.471 226.535 191.875C228.939 194.279 232.002 195.916 235.336 196.58C238.671 197.243 242.127 196.903 245.268 195.602C248.409 194.3 251.094 192.097 252.983 189.27C254.872 186.443 255.88 183.12 255.88 179.72C255.877 175.162 254.065 170.791 250.842 167.568C247.619 164.345 243.248 162.533 238.69 162.53ZM238.69 191.85C236.283 191.85 233.929 191.136 231.928 189.798C229.926 188.461 228.366 186.559 227.445 184.335C226.525 182.111 226.284 179.663 226.755 177.302C227.225 174.941 228.385 172.773 230.088 171.071C231.791 169.369 233.96 168.211 236.322 167.743C238.683 167.274 241.131 167.517 243.354 168.439C245.578 169.362 247.478 170.923 248.814 172.926C250.15 174.929 250.862 177.283 250.86 179.69C250.86 181.288 250.545 182.87 249.933 184.346C249.322 185.822 248.425 187.163 247.295 188.292C246.165 189.421 244.823 190.317 243.346 190.927C241.87 191.538 240.288 191.851 238.69 191.85Z" fill="white" stroke="#263238" stroke-width="0.829701" stroke-linecap="round" stroke-linejoin="round"/>
<path d="M238.69 162.53C236.371 162.521 234.075 162.986 231.942 163.898C229.81 164.809 227.886 166.148 226.29 167.83L229.93 171.32C231.057 170.13 232.415 169.183 233.922 168.538C235.428 167.893 237.051 167.564 238.69 167.57C241.918 167.57 245.013 168.852 247.296 171.135C249.578 173.417 250.86 176.512 250.86 179.74C250.86 182.968 249.578 186.063 247.296 188.345C245.013 190.628 241.918 191.91 238.69 191.91V196.91C243.248 197.025 247.665 195.325 250.969 192.184C254.273 189.043 256.195 184.718 256.31 180.16C256.425 175.602 254.726 171.185 251.584 167.881C248.443 164.577 244.118 162.655 239.56 162.54H238.69V162.53Z" fill="#263238" stroke="#263238" stroke-width="1.00786" stroke-linecap="round" stroke-linejoin="round"/>
<path d="M233.91 178.81H243.48" stroke="#263238" stroke-width="0.829701" stroke-linecap="round" stroke-linejoin="round"/>
<path d="M233.91 180.63H243.48" stroke="#263238" stroke-width="0.829701" stroke-linecap="round" stroke-linejoin="round"/>
<path d="M132.35 158.98H141.92" stroke="#263238" stroke-width="0.829701" stroke-linecap="round" stroke-linejoin="round"/>
<path d="M132.35 160.79H141.92" stroke="#263238" stroke-width="0.829701" stroke-linecap="round" stroke-linejoin="round"/>
<path d="M144.18 158.98H153.75" stroke="#263238" stroke-width="0.829701" stroke-linecap="round" stroke-linejoin="round"/>
<path d="M144.18 160.79H153.75" stroke="#263238" stroke-width="0.829701" stroke-linecap="round" stroke-linejoin="round"/>
<path d="M155.99 158.98H165.56" stroke="#263238" stroke-width="0.829701" stroke-linecap="round" stroke-linejoin="round"/>
<path d="M155.99 160.79H165.56" stroke="#263238" stroke-width="0.829701" stroke-linecap="round" stroke-linejoin="round"/>
<path d="M132.35 212.2H141.92" stroke="#263238" stroke-width="0.829701" stroke-linecap="round" stroke-linejoin="round"/>
<path d="M132.35 214H141.92" stroke="#263238" stroke-width="0.829701" stroke-linecap="round" stroke-linejoin="round"/>
<path d="M144.18 212.2H153.75" stroke="#263238" stroke-width="0.829701" stroke-linecap="round" stroke-linejoin="round"/>
<path d="M144.18 214H153.75" stroke="#263238" stroke-width="0.829701" stroke-linecap="round" stroke-linejoin="round"/>
<path d="M155.99 212.2H165.56" stroke="#263238" stroke-width="0.829701" stroke-linecap="round" stroke-linejoin="round"/>
<path d="M155.99 214H165.56" stroke="#263238" stroke-width="0.829701" stroke-linecap="round" stroke-linejoin="round"/>
<path d="M355.74 221.35H365.31" stroke="#263238" stroke-width="0.829701" stroke-linecap="round" stroke-linejoin="round"/>
<path d="M367.57 221.35H377.14" stroke="#263238" stroke-width="0.829701" stroke-linecap="round" stroke-linejoin="round"/>
<path d="M379.38 221.35H388.95" stroke="#263238" stroke-width="0.829701" stroke-linecap="round" stroke-linejoin="round"/>
<path d="M355.74 223.57H365.31" stroke="#263238" stroke-width="0.829701" stroke-linecap="round" stroke-linejoin="round"/>
<path d="M367.57 223.57H377.14" stroke="#263238" stroke-width="0.829701" stroke-linecap="round" stroke-linejoin="round"/>
<path d="M379.38 223.57H388.95" stroke="#263238" stroke-width="0.829701" stroke-linecap="round" stroke-linejoin="round"/>
<path d="M355.74 225.81H365.31" stroke="#263238" stroke-width="0.829701" stroke-linecap="round" stroke-linejoin="round"/>
<path d="M367.57 225.81H377.14" stroke="#263238" stroke-width="0.829701" stroke-linecap="round" stroke-linejoin="round"/>
<path d="M379.38 225.81H388.95" stroke="#263238" stroke-width="0.829701" stroke-linecap="round" stroke-linejoin="round"/>
<path d="M355.74 228.03H365.31" stroke="#263238" stroke-width="0.829701" stroke-linecap="round" stroke-linejoin="round"/>
<path d="M367.57 228.03H377.14" stroke="#263238" stroke-width="0.829701" stroke-linecap="round" stroke-linejoin="round"/>
<path d="M379.38 228.03H388.95" stroke="#263238" stroke-width="0.829701" stroke-linecap="round" stroke-linejoin="round"/>
<path d="M355.74 230.26H365.31" stroke="#263238" stroke-width="0.829701" stroke-linecap="round" stroke-linejoin="round"/>
<path d="M367.57 230.26H377.14" stroke="#263238" stroke-width="0.829701" stroke-linecap="round" stroke-linejoin="round"/>
<path d="M379.38 230.26H388.95" stroke="#263238" stroke-width="0.829701" stroke-linecap="round" stroke-linejoin="round"/>
<path d="M355.74 232.5H365.31" stroke="#263238" stroke-width="0.829701" stroke-linecap="round" stroke-linejoin="round"/>
<path d="M367.57 232.5H377.14" stroke="#263238" stroke-width="0.829701" stroke-linecap="round" stroke-linejoin="round"/>
<path d="M379.38 232.5H388.95" stroke="#263238" stroke-width="0.829701" stroke-linecap="round" stroke-linejoin="round"/>
<path d="M355.74 234.72H365.31" stroke="#263238" stroke-width="0.829701" stroke-linecap="round" stroke-linejoin="round"/>
<path d="M367.57 234.72H377.14" stroke="#263238" stroke-width="0.829701" stroke-linecap="round" stroke-linejoin="round"/>
<path d="M379.38 234.72H388.95" stroke="#263238" stroke-width="0.829701" stroke-linecap="round" stroke-linejoin="round"/>
<path d="M355.74 236.96H365.31" stroke="#263238" stroke-width="0.829701" stroke-linecap="round" stroke-linejoin="round"/>
<path d="M367.57 236.96H377.14" stroke="#263238" stroke-width="0.829701" stroke-linecap="round" stroke-linejoin="round"/>
<path d="M379.38 236.96H388.95" stroke="#263238" stroke-width="0.829701" stroke-linecap="round" stroke-linejoin="round"/>
<path d="M355.74 239.18H365.31" stroke="#263238" stroke-width="0.829701" stroke-linecap="round" stroke-linejoin="round"/>
<path d="M367.57 239.18H377.14" stroke="#263238" stroke-width="0.829701" stroke-linecap="round" stroke-linejoin="round"/>
<path d="M379.38 239.18H388.95" stroke="#263238" stroke-width="0.829701" stroke-linecap="round" stroke-linejoin="round"/>
<path d="M355.74 241.42H365.31" stroke="#263238" stroke-width="0.829701" stroke-linecap="round" stroke-linejoin="round"/>
<path d="M367.57 241.42H377.14" stroke="#263238" stroke-width="0.829701" stroke-linecap="round" stroke-linejoin="round"/>
<path d="M379.38 241.42H388.95" stroke="#263238" stroke-width="0.829701" stroke-linecap="round" stroke-linejoin="round"/>
<path d="M355.74 243.65H365.31" stroke="#263238" stroke-width="0.829701" stroke-linecap="round" stroke-linejoin="round"/>
<path d="M367.57 243.65H377.14" stroke="#263238" stroke-width="0.829701" stroke-linecap="round" stroke-linejoin="round"/>
<path d="M379.38 243.65H388.95" stroke="#263238" stroke-width="0.829701" stroke-linecap="round" stroke-linejoin="round"/>
<path d="M355.74 245.87H365.31" stroke="#263238" stroke-width="0.829701" stroke-linecap="round" stroke-linejoin="round"/>
<path d="M367.57 245.87H377.14" stroke="#263238" stroke-width="0.829701" stroke-linecap="round" stroke-linejoin="round"/>
<path d="M379.38 245.87H388.95" stroke="#263238" stroke-width="0.829701" stroke-linecap="round" stroke-linejoin="round"/>
<path d="M355.74 248.11H365.31" stroke="#263238" stroke-width="0.829701" stroke-linecap="round" stroke-linejoin="round"/>
<path d="M367.57 248.11H377.14" stroke="#263238" stroke-width="0.829701" stroke-linecap="round" stroke-linejoin="round"/>
<path d="M379.38 248.11H388.95" stroke="#263238" stroke-width="0.829701" stroke-linecap="round" stroke-linejoin="round"/>
<path d="M355.74 250.33H365.31" stroke="#263238" stroke-width="0.829701" stroke-linecap="round" stroke-linejoin="round"/>
<path d="M367.57 250.33H377.14" stroke="#263238" stroke-width="0.829701" stroke-linecap="round" stroke-linejoin="round"/>
<path d="M379.38 250.33H388.95" stroke="#263238" stroke-width="0.829701" stroke-linecap="round" stroke-linejoin="round"/>
<path d="M355.74 252.57H365.31" stroke="#263238" stroke-width="0.829701" stroke-linecap="round" stroke-linejoin="round"/>
<path d="M367.57 252.57H377.14" stroke="#263238" stroke-width="0.829701" stroke-linecap="round" stroke-linejoin="round"/>
<path d="M379.38 252.57H388.95" stroke="#263238" stroke-width="0.829701" stroke-linecap="round" stroke-linejoin="round"/>
<path d="M279 162.53C275.6 162.528 272.276 163.534 269.448 165.422C266.62 167.309 264.415 169.992 263.112 173.132C261.809 176.273 261.467 179.729 262.128 183.064C262.79 186.399 264.425 189.463 266.828 191.868C269.23 194.274 272.292 195.913 275.627 196.578C278.961 197.243 282.417 196.905 285.559 195.605C288.701 194.306 291.387 192.104 293.277 189.279C295.168 186.453 296.178 183.13 296.18 179.73C296.177 175.173 294.367 170.802 291.146 167.578C287.926 164.353 283.557 162.538 279 162.53ZM279 191.85C276.593 191.85 274.239 191.136 272.238 189.798C270.236 188.461 268.676 186.559 267.755 184.335C266.835 182.111 266.594 179.663 267.065 177.302C267.535 174.941 268.695 172.773 270.398 171.071C272.101 169.369 274.271 168.211 276.632 167.743C278.993 167.274 281.441 167.517 283.664 168.439C285.888 169.362 287.788 170.923 289.124 172.926C290.46 174.929 291.172 177.283 291.17 179.69C291.17 181.288 290.855 182.87 290.243 184.346C289.632 185.822 288.735 187.163 287.605 188.292C286.475 189.421 285.133 190.317 283.657 190.927C282.18 191.538 280.598 191.851 279 191.85Z" fill="white" stroke="#263238" stroke-width="0.829701" stroke-linecap="round" stroke-linejoin="round"/>
<path d="M290.83 176.83L295.58 175.05C294.761 172.134 293.184 169.487 291.011 167.377C288.838 165.267 286.146 163.769 283.207 163.036C280.268 162.303 277.187 162.36 274.278 163.202C271.368 164.044 268.733 165.641 266.64 167.83L270.28 171.32C271.784 169.748 273.682 168.609 275.777 168.023C277.872 167.437 280.086 167.425 282.187 167.989C284.288 168.552 286.199 169.67 287.72 171.225C289.24 172.781 290.315 174.717 290.83 176.83Z" fill="#263238" stroke="#263238" stroke-width="1.00786" stroke-linecap="round" stroke-linejoin="round"/>
<path d="M273.99 178.81H283.56" stroke="#263238" stroke-width="0.829701" stroke-linecap="round" stroke-linejoin="round"/>
<path d="M273.99 180.63H283.56" stroke="#263238" stroke-width="0.829701" stroke-linecap="round" stroke-linejoin="round"/>
<path d="M334.73 169.31C332.671 166.607 329.857 164.576 326.644 163.472C323.43 162.368 319.962 162.242 316.677 163.11C313.392 163.978 310.438 165.8 308.188 168.346C305.939 170.892 304.495 174.049 304.039 177.416C303.583 180.783 304.136 184.209 305.627 187.262C307.119 190.315 309.482 192.857 312.418 194.567C315.354 196.276 318.731 197.077 322.123 196.868C325.514 196.658 328.767 195.448 331.47 193.39C333.267 192.024 334.776 190.317 335.913 188.367C337.049 186.417 337.79 184.262 338.092 182.026C338.395 179.789 338.254 177.515 337.677 175.333C337.1 173.151 336.099 171.105 334.73 169.31ZM311.4 187.08C309.939 185.168 309.077 182.865 308.925 180.462C308.772 178.06 309.335 175.667 310.543 173.585C311.75 171.503 313.548 169.825 315.709 168.765C317.87 167.705 320.296 167.309 322.682 167.628C325.068 167.947 327.306 168.966 329.112 170.556C330.919 172.147 332.213 174.238 332.831 176.564C333.45 178.89 333.365 181.347 332.587 183.625C331.809 185.903 330.372 187.898 328.46 189.36C325.895 191.317 322.657 192.177 319.458 191.749C316.26 191.322 313.362 189.642 311.4 187.08Z" fill="white" stroke="#263238" stroke-width="0.829701" stroke-linecap="round" stroke-linejoin="round"/>
<path d="M330.49 187.34L334.79 190.05C336.61 187.63 337.758 184.771 338.119 181.764C338.479 178.757 338.039 175.709 336.842 172.927C335.645 170.145 333.735 167.728 331.304 165.922C328.874 164.116 326.009 162.983 323 162.64L322.42 167.64C324.575 167.897 326.622 168.725 328.349 170.039C330.076 171.354 331.42 173.106 332.242 175.114C333.064 177.122 333.335 179.314 333.025 181.462C332.715 183.61 331.836 185.636 330.48 187.33L330.49 187.34Z" fill="#263238" stroke="#263238" stroke-width="1.00786" stroke-linecap="round" stroke-linejoin="round"/>
<path d="M316.04 178.81H325.61" stroke="#263238" stroke-width="0.829701" stroke-linecap="round" stroke-linejoin="round"/>
<path d="M316.04 180.63H325.61" stroke="#263238" stroke-width="0.829701" stroke-linecap="round" stroke-linejoin="round"/>
<path d="M385.62 289.53C383.561 286.827 380.747 284.796 377.534 283.692C374.32 282.588 370.852 282.462 367.567 283.33C364.282 284.198 361.328 286.02 359.078 288.566C356.829 291.112 355.385 294.269 354.929 297.636C354.473 301.003 355.026 304.429 356.517 307.482C358.009 310.535 360.372 313.077 363.308 314.787C366.244 316.496 369.621 317.297 373.012 317.088C376.404 316.878 379.657 315.668 382.36 313.61C384.155 312.243 385.664 310.536 386.8 308.586C387.935 306.636 388.675 304.481 388.978 302.245C389.281 300.009 389.14 297.735 388.564 295.554C387.988 293.372 386.987 291.325 385.62 289.53ZM362.29 307.28C360.831 305.366 359.973 303.062 359.823 300.66C359.673 298.258 360.239 295.865 361.45 293.785C362.66 291.704 364.459 290.029 366.621 288.971C368.783 287.914 371.21 287.521 373.596 287.842C375.981 288.164 378.217 289.186 380.022 290.778C381.826 292.371 383.118 294.462 383.734 296.789C384.35 299.116 384.262 301.573 383.482 303.849C382.702 306.126 381.264 308.12 379.35 309.58C378.079 310.549 376.629 311.259 375.084 311.668C373.539 312.077 371.928 312.178 370.344 311.964C368.759 311.751 367.233 311.227 365.851 310.423C364.469 309.62 363.259 308.551 362.29 307.28Z" fill="#2257E0" stroke="#263238" stroke-width="1.10627" stroke-linecap="round" stroke-linejoin="round"/>
<path d="M381.37 307.56L385.68 310.26C387.5 307.841 388.649 304.984 389.01 301.978C389.372 298.973 388.932 295.925 387.736 293.144C386.541 290.363 384.631 287.947 382.201 286.141C379.772 284.335 376.908 283.203 373.9 282.86L373.32 287.86C375.476 288.115 377.524 288.943 379.251 290.257C380.979 291.572 382.323 293.324 383.145 295.334C383.966 297.343 384.235 299.536 383.923 301.684C383.611 303.832 382.729 305.858 381.37 307.55V307.56Z" fill="#263238" stroke="#263238" stroke-width="1.00786" stroke-linecap="round" stroke-linejoin="round"/>
<path d="M366.93 299.03H376.5" stroke="#263238" stroke-width="0.829701" stroke-linecap="round" stroke-linejoin="round"/>
<path d="M366.93 300.83H376.5" stroke="#263238" stroke-width="0.829701" stroke-linecap="round" stroke-linejoin="round"/>
<path d="M185.56 107.07C185.56 107.07 179.46 109.42 177.7 112.52C176.59 114.4 177.6 118.38 181.97 119.9C183.85 120.57 186.55 119.71 189.59 118.61C192.63 117.51 190 105.69 185.56 107.07Z" fill="white" stroke="#263238" stroke-width="0.829701" stroke-linecap="round" stroke-linejoin="round"/>
<path opacity="0.5" d="M183.52 118.92C183.52 118.92 179.52 118.08 179.52 114.76C179.52 111.44 184.89 109.38 186.43 109.38C187.97 109.38 188.73 110.92 188.73 113.48C188.73 116.04 185.73 119.77 183.52 118.92Z" fill="#2257E0"/>
<path d="M109.4 125.38L120.25 160.38L118.81 168.29L122.81 174.04L124.25 173.32L124.97 167.92V163.61L126.77 169.36L128.56 168.25L127.46 159.98L123.86 154.22L118.86 126.92C118.86 126.92 114 124.41 109.4 125.38Z" fill="white" stroke="#263238" stroke-width="0.829701" stroke-linecap="round" stroke-linejoin="round"/>
<path d="M122.61 173.49L119.84 167.21" stroke="#263238" stroke-width="0.553134" stroke-linecap="round" stroke-linejoin="round"/>
<path d="M124.17 173.27L121.88 165.76" stroke="#263238" stroke-width="0.553134" stroke-linecap="round" stroke-linejoin="round"/>
<path d="M189.71 112.05L209.35 136.77L215.48 141.97L216.08 148.97L214.5 149.33L210.5 145.62L207.76 142.3L210.03 147.83L207.95 148.14L203.55 141L203.64 136.11L183.52 118.89C181.86 117.45 182.18 113.16 184.08 112.06C184.953 111.62 185.916 111.389 186.894 111.388C187.871 111.386 188.836 111.613 189.71 112.05Z" fill="white" stroke="#263238" stroke-width="0.829701" stroke-linecap="round" stroke-linejoin="round"/>
<path d="M215.42 149.24L210.61 140.78" stroke="#263238" stroke-width="0.553134" stroke-linecap="round" stroke-linejoin="round"/>
<path d="M215.28 146.18L213.09 141.51" stroke="#263238" stroke-width="0.553134" stroke-linecap="round" stroke-linejoin="round"/>
</svg>
